<svg xmlns="http://www.w3.org/2000/svg" viewBox="0 0 327.51 319.74"><defs><style>.cls-1{fill:#ffc210;}.cls-2{fill:#f6e08a;}.cls-3{fill:#cc6f28;}.cls-4{fill:#ad5a27;}.cls-5{fill:#ad5b27;}.cls-6{fill:#ae5b27;}.cls-7{fill:#997661;}.cls-8{fill:#f3df93;}.cls-9{fill:#905022;}.cls-10{fill:#fdeb64;}.cls-11{fill:#f1db8a;}.cls-12{fill:#ea9b23;}.cls-13{fill:#904f22;}.cls-14{fill:#8b5122;}</style></defs><g id="Layer_2" data-name="Layer 2"><g id="Layer_1-2" data-name="Layer 1"><path class="cls-1" d="M1.9,133.89a112.86,112.86,0,0,1,3.58-18.56c1.25-4.75,2.55-9.48,4.22-14.11a180.9,180.9,0,0,1,8.38-20.1,170.18,170.18,0,0,1,11.5-19.5c2.57-3.77,5.36-7.4,8.25-10.93A160,160,0,0,1,52.51,35.33,138.07,138.07,0,0,1,85.58,12.81,121.85,121.85,0,0,1,109.2,4.2a125.6,125.6,0,0,1,37.93-4c5.1.26,10.18.91,15.27,1.38,16.14,1.75,30.67,8.05,44.62,15.9,10.31,5.8,19.37,13.26,27.87,21.43a169.46,169.46,0,0,1,18.27,21.65A163.84,163.84,0,0,1,268.51,88a16.8,16.8,0,0,0,1.16,2.42,171,171,0,0,1,11,36.72c1,5.3,1.37,10.66,2.3,16,.58,5.77.5,11.56.58,17.35a161.1,161.1,0,0,1-3.12,32.79c-1.67,7.49-3.25,15-5.84,22.25a146.13,146.13,0,0,1-6.46,16.4c-8.89,19.41-20.75,36.71-36.59,51.18a134.63,134.63,0,0,1-51,30.17,143.69,143.69,0,0,1-28.46,5.92c-6.59.09-13.18-.2-19.77,0a40.53,40.53,0,0,1-10.13-1.21,9,9,0,0,0-4.24-.86c-3.85-.2-7.51-1.36-11.2-2.35C93.59,311.14,81.5,305.17,70.07,298a132.36,132.36,0,0,1-14.94-11.38,159.36,159.36,0,0,1-17.2-17.37,138.13,138.13,0,0,1-11.7-16A167.09,167.09,0,0,1,7.86,214.45a190.64,190.64,0,0,1-6.31-26.09C.83,184.3.11,180.16.47,176c.08-.93.31-2-.47-2.8V149.62c.56-2.61.34-5.3.94-7.9l.12-3.82C1.57,136.61,1.4,135.18,1.9,133.89Z"/><path class="cls-2" d="M.94,141.72a18.9,18.9,0,0,1-.94,7.9v-5.89C.74,143.26.16,142.18.94,141.72Z"/><path class="cls-3" d="M279.73,193.68c.68-5.22,1.51-10.41,2.15-15.64a187.45,187.45,0,0,0,.91-19.95c.09-5.13-.38-10.22-.56-15.34a2.55,2.55,0,0,1,2.28-1.19c8.31-.57,16.6-1.3,24.9-2,4.47-.37,9-.51,13.42-1.1,1.18-.16,2.29-.16,3.13.88,1.39,6.24,1.41,12.62,1.52,19a154.79,154.79,0,0,1-4,38.06,11.44,11.44,0,0,1-.48,1.35c-1.15.9-2.45.68-3.75.52-5.89-.74-11.82-1-17.75-1.25-3.43-.14-6.74-1.05-10.17-1.19-2.19-.09-4.38-.23-6.57-.34C283,195.35,281.05,195.33,279.73,193.68Z"/><path class="cls-3" d="M269,90.26a212.86,212.86,0,0,0-9.72-19,142,142,0,0,0-14.57-20.69c-3.3-3.8-6.71-7.51-10.07-11.27.54-1.24,1.73-1.43,2.84-1.59,8.86-1.27,17.74-2.4,26.64-3.33a5.29,5.29,0,0,1,3.09.46c5,3.23,9.11,7.54,13.34,11.66a153.13,153.13,0,0,1,25.28,32.77A80.74,80.74,0,0,1,312.6,92.7c-.32.9-1.1.87-1.83.86-4.66-.07-9.3-.43-13.95-.85C287.55,91.87,278.29,90.89,269,90.26Z"/><path class="cls-4" d="M269,90.26c.11-.86.66-1,1.4-.9,6.46,1.16,13,1.17,19.54,1.92q10.6,1.23,21.27,1.67a1.87,1.87,0,0,0,1.39-.25A134.75,134.75,0,0,1,321.91,118a145.36,145.36,0,0,1,3.8,18.14c.14,1,.17,2.1.25,3.16-1.35-.68-2.7-.15-4,0-8.94,1-17.94,1.16-26.88,2.34-3.27.43-6.64.24-10,.58a6.33,6.33,0,0,0-2.85.51c-.91-6.09-1.63-12.22-2.78-18.28A175.08,175.08,0,0,0,269,90.26Z"/><path class="cls-3" d="M247.37,285.12c-5.09-.72-10.21-1.16-15.28-2.05a1.4,1.4,0,0,1-.81-.52,155.7,155.7,0,0,0,33.62-45.37c.88-1.72,1.73-3.45,2.59-5.17,1.65-1.18,3.63-.81,5.45-1,10-1.11,20.1-1.91,30.16-2.68,2.12-.16,4.2-.59,6.32-.68,1.08,0,2.33-.42,3,.89-2.18,5.8-5.38,11.08-8.58,16.34a158.1,158.1,0,0,1-34.29,39.62c-1.09.91-2.3,1.67-3.46,2.5"/><path class="cls-4" d="M312.46,228.53a5.45,5.45,0,0,0-3-.26c-6.61.83-13.23,1.39-19.87,1.83-5.82.39-11.61,1.19-17.42,1.76-1.54.15-3.09.1-4.64.15a189.05,189.05,0,0,0,11-32.95c.4-1.79.37-3.69,1.26-5.38a19.66,19.66,0,0,0,6.06,1.09c7.06,0,14,1.47,21,1.86,3.08.17,6.15.06,9.24.47,2.3.3,4.63.88,7,.6a121.08,121.08,0,0,1-6.32,21A66.49,66.49,0,0,1,312.46,228.53Z"/><path class="cls-5" d="M266.13,287c-4.12,3.86-8.93,6.77-13.67,9.73a151,151,0,0,1-52.26,20.44,104.15,104.15,0,0,1-19.44,2.22c-6.13.3-12.27.26-18.4,0a62.44,62.44,0,0,1-9.75-.79c5.48-1.24,11.09-1.72,16.58-3a132.3,132.3,0,0,0,51-23.89c3.85-2.9,7.49-6,11.11-9.21a109.88,109.88,0,0,1,14.23,1.72"/><path class="cls-6" d="M262.16,30.85a26.18,26.18,0,0,1,5,4c-6.76.44-13.46,1.44-20.17,2.36-3,.41-5.94.78-8.91,1.09a11,11,0,0,0-3.49,1C229.49,34.76,224.49,30.08,219,26A132.77,132.77,0,0,0,163.77,2a9.5,9.5,0,0,1-1.37-.44,147.31,147.31,0,0,1,54.35,6.38,157.67,157.67,0,0,1,36.51,16.72c.69.43,1.33.93,2,1.4"/><path class="cls-7" d="M162.36,319.4l18.4,0a.29.29,0,0,0,.05.36H162.28A.37.37,0,0,0,162.36,319.4Z"/><path class="cls-8" d="M1.9,133.89c.14,1.43.23,2.84-.84,4C1,136.49.76,135.05,1.9,133.89Z"/><path class="cls-9" d="M109,281.08a106.74,106.74,0,0,1-37.79-21.61,119.45,119.45,0,0,1-26.05-32.78c-.54-1-1-2-1.53-3l-4.88-10.77a124.78,124.78,0,0,1-7.85-29.39,127.83,127.83,0,0,1,.3-40.15c.37-2.16.71-4.32,1.07-6.48-.75-1.39-.08-2.75.24-4A129.65,129.65,0,0,1,47.05,97.12c1-1.61,2-3.2,2.91-4.82.61-1,1.59-1.66,2.06-2.74,1-1.26,1.79-2.62,2.83-3.81l8.73-10.31a92.41,92.41,0,0,1,16.06-14A104.43,104.43,0,0,1,125.8,42.75c7.14-1.07,14.36-.69,21.55-.68a3.46,3.46,0,0,1,1.84.59c3.59.62,7.2,1.17,10.78,1.86a100.47,100.47,0,0,1,40.85,18C221.1,77.42,235,97,243.28,120.67a129,129,0,0,1,7,33.87l.44,2.69-.39,10.27c0,.1.07.21.1.32a126.17,126.17,0,0,1-10.06,47.58,120.11,120.11,0,0,1-24.55,37.46,107.68,107.68,0,0,1-40.56,26.73,100.1,100.1,0,0,1-39.4,6.25,75.37,75.37,0,0,1-19-2.8"/><path class="cls-10" d="M14.4,104.51c1.42-4.26,2-5.89,3-8.74,3.49-9.34,8.26-18.06,13.3-26.64a98.77,98.77,0,0,1,8.94-13c6.43-7.76,13.17-15.31,21.14-21.67A150.56,150.56,0,0,1,86.18,18a118.33,118.33,0,0,1,22.71-8.62,132.52,132.52,0,0,1,23.85-4c3.84-.33,7.66-.25,11.49-.34,1.91,0,3.08.44,3.19,2.88.1,2.18.31,4.38.3,6.57,0,7.92.78,15.81.59,23.73a10.9,10.9,0,0,0,.88,4.51c-6.61.08-13.22-.3-19.84.4A103.72,103.72,0,0,0,78.84,62.82a144,144,0,0,0-15.1,12.79L50.54,92.17a47.83,47.83,0,0,1-3.22,5.67,131.13,131.13,0,0,0-15,39,1.26,1.26,0,0,1-1.15.05c-6.85-3.1-13.7-6.2-20.57-9.25-1.31-.58-1.65-1.19-1.38-2.76a179.3,179.3,0,0,1,4.61-18.75Z"/><path class="cls-11" d="M121.78,317.3c-1.37-.18-3,.74-4-.88C119.19,316.33,120.62,316.19,121.78,317.3Z"/><path class="cls-12" d="M241.52,177.59c-.21,7.56-2,14.82-4.16,22A113.65,113.65,0,0,1,216.74,239a99.18,99.18,0,0,1-34.1,27.33,89.59,89.59,0,0,1-31.44,8.49c-15.79,1.43-30.72-1.69-45-8.23a92.42,92.42,0,0,1-24.18-16.44,105.91,105.91,0,0,1-22.7-29.82A120.59,120.59,0,0,1,47,180.86a135.13,135.13,0,0,1-.77-25.42A119.68,119.68,0,0,1,66.71,95.92c12.37-17.66,28.34-30.87,48.93-37.83a86.3,86.3,0,0,1,61.94,1.84c16.2,6.59,29.37,17,40.14,30.68,11.8,15,19.09,31.94,22.68,50.54a104.59,104.59,0,0,1,2,21.63"/><path class="cls-1" d="M176.21,245.25c-1.31,1.48-3.16,2.13-4.82,3.06-1.29.71-1.57-.5-1.81-1.24-.77-2.38-1.41-4.82-2.1-7.23-.84-.38-1-1.2-1.33-2-2.38-6.59-4.19-13.37-6.39-19.92,0,10.56,0,21.23,0,31.9,0,4-.29,4.38-4.17,5.34a61.9,61.9,0,0,1-17.45,2.05c-1-.05-2.15.14-3-.62-2,0-3.9-.14-5.85-.07-2.13.08-2.92-.76-3.17-3-.3-2.63,0-5.35-.93-7.89-1.28-2.81-1.07-5.89-1.47-8.84-.74-5.41-1.11-10.87-1.84-16.28a5.15,5.15,0,0,1,.17-2.66c-1.66,10.52-4.38,21.06-6.48,31.72-.27,1.4-.28,3-1.65,3.94-3.91-.08-7.09-2.18-10.09-4.21A50.31,50.31,0,0,1,93.24,240c-1.19-1.42-1.41-2.57-.38-4.48,2.26-4.2,3.64-8.82,5.1-13.38.42-1.3-.45-1.56-1.29-1.88-1.52-.56-3.17-.82-4.39-2-.33-1.36-1.75-1.32-2.61-2a72.21,72.21,0,0,1-17.38-19.11c-5.47-8.93-8.12-18.6-9.19-28.87-1.26-12.11.89-23.74,4.71-35.15A89.82,89.82,0,0,1,89.82,98a60.28,60.28,0,0,1,30.1-16.52c11.21-2.51,22.46-2.65,33.86-1.4A130.66,130.66,0,0,1,176,84.67c3,1.64,5.82,3.57,7.6,6.65l1,.88a5.51,5.51,0,0,1,2.93,3l1,.87c1.38.35,2.09,1.5,2.91,2.5A88.5,88.5,0,0,1,211,144.09,95.37,95.37,0,0,1,211.1,170c-1.5,10.87-6.44,20.27-12.93,29a71.39,71.39,0,0,1-14.41,14.22,16.13,16.13,0,0,0-1.44,1.06,2.41,2.41,0,0,0-1.06,3.34c.39,1,.53,2.06.88,3.06a20.5,20.5,0,0,0,1,2.62c1.34,3.16,2.13,6.51,3.18,9.77a3.16,3.16,0,0,1-.16,2.84,29.43,29.43,0,0,1-9,9.23A1.49,1.49,0,0,1,176.21,245.25Z"/><path class="cls-10" d="M176.24,85c-2.08.36-3.89-.68-5.77-1.21a114.55,114.55,0,0,0-18.91-3.35,97.91,97.91,0,0,0-26.82.63A64.12,64.12,0,0,0,98.49,91.56c-7.72,5.35-13.66,12.33-19,19.81A82.58,82.58,0,0,0,69,131.2,99,99,0,0,0,63.67,156a69.94,69.94,0,0,0,4.09,30.43C72.12,198.62,80.1,208.2,90.32,216c.7.54,1.55.89,2.26,1.43s.4.78-.3.86c-11-4.78-19.21-12.62-25.76-22.66-6.22-9.54-8-20.09-9.17-31a127.94,127.94,0,0,1-.42-15.9,81.47,81.47,0,0,1,16.85-48.48C83.92,86.87,97.3,78,113.29,73.33a72.9,72.9,0,0,1,32.91-1.79,62,62,0,0,1,29.43,12.83A.6.6,0,0,1,176.24,85Z"/><path class="cls-9" d="M135.09,256.63a81.29,81.29,0,0,0,21.08-2.25c2.11-.5,3-1.23,3-3.68-.16-11.09,0-22.19,0-33.28a3.69,3.69,0,0,1,.52-2.23l7.83,24.65c0,5.22-.08,10.44,0,15.66a2.27,2.27,0,0,1-1.88,2.61,75,75,0,0,1-13.2,2.35,80.39,80.39,0,0,1-14.88.08C134.77,260.32,134.16,259.48,135.09,256.63Z"/><path class="cls-9" d="M113.87,253.59q3.43-16,6.88-31.92A43.1,43.1,0,0,1,122,217c1.13,9.59,2.64,19.12,3.17,28.76-1.3,3.35-1.6,6.94-2.46,10.4-.39,1.59-1.08,2.34-2.66,1.38C118,256.23,115.12,256.14,113.87,253.59Z"/><path class="cls-12" d="M124.68,147.16a19.85,19.85,0,0,1,3.4,13,15.71,15.71,0,0,1-7.45,12.54,28.58,28.58,0,0,1-12.54,4.31,36.08,36.08,0,0,1-14.82-1.93,38.58,38.58,0,0,1-7.16-6.53,21.53,21.53,0,0,1-4.17-19.1A36.09,36.09,0,0,1,91.08,132c3.88-4,8.29-6.19,14-5.38a61.88,61.88,0,0,1,14.21,12.7c1.88,2.29,4.25,4.3,5,7.38"/><path class="cls-12" d="M192.37,135.87c3.3,2.39,4.09,6.1,4.89,9.7a21.41,21.41,0,0,1-.5,11.52,27.31,27.31,0,0,1-9.29,12.76,34.71,34.71,0,0,1-14.62,7,28.7,28.7,0,0,1-14.8-.66c-.94-1.79-2.43-3.2-3.25-5.13-2-4.64-1.25-8.93,1.23-13.07a44.25,44.25,0,0,1,12.59-13.19c5.6-4,11.44-7.59,18.28-9.12C188.73,135.24,190.59,134.83,192.37,135.87Z"/><path class="cls-13" d="M192.37,135.87c-7.25-.46-13.28,2.9-19.11,6.46a51.18,51.18,0,0,0-14.76,13c-3.82,5.13-5.91,10.49-2.53,16.72a16.36,16.36,0,0,0,2.51,3.26c.61.67.06.75-.43.86a20.08,20.08,0,0,1-8.54-5.53c-4.47-5.06-4.78-11.16-.94-17.13,4.38-6.81,10.5-11.75,17.34-15.88a44,44,0,0,1,10.41-4.82c4.72-1.37,9.31-1.47,13.74,1A5.06,5.06,0,0,1,192.37,135.87Z"/><path class="cls-9" d="M105,126.58c-.19.13-.39.4-.57.39-8.75-.59-13.55,5-17.53,11.49a32.21,32.21,0,0,0-5,16.64c-.09,6.56,2.89,11.67,7.39,16.12,1.32,1.29,3,2.24,3.92,3.9a38.45,38.45,0,0,1-12.93-8.59c-6.13-6.24-8.13-13.54-5.93-22,1.78-6.83,4.8-13,10.26-17.66,5.72-4.92,10.9-5.4,17.55-1.81C103.15,125.59,104.09,126.08,105,126.58Z"/><path class="cls-14" d="M183.6,91.32,176.24,85l-.61-.62c.39-.54.8-.33,1.24,0,2.39,1.49,4.8,3,7.18,4.47L192.7,96c15,14.37,23.31,32.07,26.09,52.39,1.34,9.87,1.56,19.9-.71,29.71-2.55,11-8.23,20.51-15.73,28.91A72.4,72.4,0,0,1,191,217.43s-3.76,1.47-1.5,5.79c.69,2,3.48,9.47,4.63,14.4a2.56,2.56,0,0,1-.23,2.52A46.27,46.27,0,0,1,180.38,252c-1.32.74-2,.71-2.33-1-.44-2-1.21-3.88-1.84-5.82a45.88,45.88,0,0,0,8.69-8.53,3.62,3.62,0,0,0,.74-3.78c-1.11-3.22-2-6.5-3-9.76l-.95-2.45a29,29,0,0,0-1-2.93c-.89-1.86-.52-3.21,1.42-4.05l1-.85c13.15-10.11,22.59-22.81,26.6-39.07,2.11-8.56,1.73-17.33,1-26.05a87.47,87.47,0,0,0-6.22-25.8,84.1,84.1,0,0,0-15.46-25.06,6.37,6.37,0,0,1-.56-.8"/></g></g></svg>