<svg xmlns="http://www.w3.org/2000/svg" viewBox="0 0 281.87 327.14"><defs><style>.cls-1{fill:#ffc210;}.cls-2{fill:#fec210;}.cls-3{fill:#cc6f28;}.cls-4{fill:#ad5b27;}.cls-5{fill:#cc6f29;}.cls-6{fill:#ad5a27;}.cls-7{fill:#904f22;}.cls-8{fill:#fdeb64;}.cls-9{fill:#faea64;}.cls-10{fill:#cb7029;}.cls-11{fill:#e99b23;}.cls-12{fill:#ffc20f;}.cls-13{fill:#fceb65;}.cls-14{fill:#914f22;}.cls-15{fill:#915022;}.cls-16{fill:#ea9b23;}.cls-17{fill:#915a25;}</style></defs><g id="Layer_2" data-name="Layer 2"><g id="Layer_1-2" data-name="Layer 1"><path class="cls-1" d="M38.28,26.41c.75-1.73,2.64-1.94,3.93-2.95,1-.65,2-1.23,3-1.84A158.19,158.19,0,0,1,72.19,9.88a187.3,187.3,0,0,1,24-6.1A204.17,204.17,0,0,1,121.25.53c.55,0,1.18.09,1.53-.53h28.47a9.89,9.89,0,0,0,3.84.43c7.36,0,14.52,1.5,21.76,2.61a151.41,151.41,0,0,1,27.39,7.17,169.48,169.48,0,0,1,24.91,11.48c7,3.83,13,9.06,19,14.12,5.37,4.49,9.43,10.34,13,16.44a53.59,53.59,0,0,1,6.16,16.17,30.11,30.11,0,0,1,.68,10.2c-.53,4.06-.22,7.63,2.64,11.19a53.45,53.45,0,0,1,9.52,18.38,51.41,51.41,0,0,1,1.6,17.22A78.89,78.89,0,0,1,280.28,136c-1.95,3.84-3.15,8-5.31,11.77-4.34,7.58-10.2,13.85-16.48,19.81a127.23,127.23,0,0,1-17.28,12.27,139.76,139.76,0,0,1-13.93,7c-4.06,1.88-8.35,3.18-12.44,5a192.83,192.83,0,0,1-46.27,9.91c-8.11,1.08-16.26,1-24.42,1.08a185,185,0,0,1-18.54-1.08,173.93,173.93,0,0,1-24.32-3.89c-4.05-.89-8.1-1.82-12.05-3.09-5.36-1.9-10.85-3.4-16.11-5.65a153.49,153.49,0,0,1-22.71-11.75,47.93,47.93,0,0,1-4.82-3.32c-1.59-1.59-3.92-2.4-4.92-4.62.92-1.09,1.81-.34,2.56.16C54.56,177.24,67.06,182.3,80,186.45a203.4,203.4,0,0,0,30.32,6.35c9.73.92,19.46,1.92,29.24,1.6q10.36-.35,20.68-1.58A185.75,185.75,0,0,0,200.8,183a136.56,136.56,0,0,0,25.49-12.42,104.43,104.43,0,0,0,23.25-19.37,75.07,75.07,0,0,0,13.34-21,77,77,0,0,0,2.54-7.41c.21-.72.11-1.73,1.29-1.79,2.83,1,5.65.15,8.46-.14,1.22-.13,1.09-1.27,1.09-2.15A34.53,34.53,0,0,0,274.05,107a51.92,51.92,0,0,0-6.76-13.5c-.28-.38-.42-.92-1-.94-.71.53-.72,1.44-1.2,2.09-.64,3.65-3,6.53-4.39,9.85-4.11,7.35-10,13.19-16,19A132.67,132.67,0,0,1,213,143.18c-3.87,1.73-7.91,3.07-11.88,4.58a163.71,163.71,0,0,1-30.5,7.88c-5.07.77-10.12,1.73-15.26,2-11.13,1.51-22.32,1-33.49,1a68.42,68.42,0,0,1-10.47-1A176.54,176.54,0,0,1,77,151.17c-4.92-1.7-10-2.93-14.84-4.89a142.75,142.75,0,0,1-30.29-16.2,92.2,92.2,0,0,1-17.59-16.87A64.7,64.7,0,0,1,4.62,95.44c.67-2.2-.7-4.09-1-6.16a55.69,55.69,0,0,1,.93-22.44c2.84-10.63,9-19.28,16.31-27A64,64,0,0,1,35.38,28Z"/><path class="cls-1" d="M45.81,46.65C40.66,52,36.15,57.75,33.46,64.73,28.34,78,30.39,90.44,38.13,102s19.12,19.29,31.65,25.14a129.81,129.81,0,0,0,33.7,10.2,134.28,134.28,0,0,0,16.79,1.84c4.08.16,8.15.52,12.23.39,21.29-.65,41.88-4.35,61.18-13.85,9.94-4.89,18.91-11,26.19-19.4,6-6.94,10.23-14.73,11.32-24a6.4,6.4,0,0,1,.93-3c2.06-1,4.34-.7,6.49-.86,3.9-.31,7.8-.94,11.73-.66,3.37.24,6.68-.54,10-.54,1.54,0,2.06-.88,2.17-2.35A26,26,0,0,0,261.18,66a55.29,55.29,0,0,0-11.8-21.74C241.31,35,231.6,28.06,220.8,22.38a123.52,123.52,0,0,0-16-7.3c-9.3-3.27-18.74-6.19-28.57-7.67-5.31-.8-10.62-1.61-16-2.24-3.58-.43-3.93-.31-5.67,2.79s-3,6.51-5.6,9.11c.36.21.55.46.14.81-1.71.47-3.42,0-5.1-.11a156.09,156.09,0,0,0-28.1.46A142.43,142.43,0,0,0,71.75,29.57a101.46,101.46,0,0,0-15.34,8.65,9.24,9.24,0,0,1-3,1.62"/><path class="cls-2" d="M58.09,277.86A132.81,132.81,0,0,1,28.81,262a90.42,90.42,0,0,1-15.22-14,59,59,0,0,1-10.88-18.1c-.34-.93-.32-1.92-.61-2.84-.34-3.83-2.1-7.39-2-11.3.07-3.26-.34-6.6.22-9.77a51.66,51.66,0,0,1,4-13.9,59.79,59.79,0,0,1,7.2-12c1.07-1.3.46-3.53.08-5.26-1.41-6.27-.32-12.3,1-18.44a42.09,42.09,0,0,1,3.68-10.16c1.85.17,1.49,1.66,1.55,2.78.2,3.41-.09,6.82.31,10.25a61.75,61.75,0,0,0,7.55,22.57,79.75,79.75,0,0,0,18.13,21.92c4.14,4.24,9.07,7.45,14,10.6a124.65,124.65,0,0,0,18.56,9.82,168.25,168.25,0,0,0,17.44,6.37,172.56,172.56,0,0,0,31.26,6.4c16.1,2.08,32.21,1.56,48.32.11a189.56,189.56,0,0,0,41.07-9.9c4.71-1.41,9.05-3.67,13.45-5.79a114.78,114.78,0,0,0,35.28-25.86,99.24,99.24,0,0,0,6.42-8.3c.41-.61.93-1.67,1.85-1.05.71.48.09,1.36-.2,2a64.89,64.89,0,0,1-9.66,14.65,51.41,51.41,0,0,1-8,8.17c-9.79,9-21.25,15.25-33.19,20.76-3.39,1.56-7,2.67-10.52,3.93-15.56,5.78-31.71,8.86-48.19,10.37a198,198,0,0,1-41.52,0,236.8,236.8,0,0,1-26.83-4.47c-3.18-.78-6.29-1.79-9.47-2.52-6.32-2.15-12.67-4.16-18.83-6.8a153.73,153.73,0,0,1-24.93-13.89c-7.22-5.78-14.23-11.75-19.48-19.53a70.4,70.4,0,0,1-7.3-14A42.72,42.72,0,0,0,12.17,196a57.94,57.94,0,0,0,3.32,19.46c4.42,12.7,12.39,22.89,22.17,31.85C52.21,260,69,268.59,87.44,274.19a187.64,187.64,0,0,0,28.87,6.38,23.82,23.82,0,0,0,2.93.28c10.78,1.62,21.63,1.54,32.48,1.35,5.12-.1,10.23-.68,15.34-1.09a181.5,181.5,0,0,0,42.65-10.36c8.44-2.9,16.26-7.1,24-11.52a16.73,16.73,0,0,1,1.46-.89c.92-.4,2.12-1.73,2.76-.79.83,1.24-.78,2.07-1.69,2.74a136.41,136.41,0,0,1-31.46,17.15c-1.82.7-3.62,1.48-5.47,2.11-4.46,1.46-8.88,3.05-13.47,4.08a17,17,0,0,0-3.36,1,194.62,194.62,0,0,1-32,5.48c-13.69,1.52-27.39,1.05-41.08,0-12.15-1.6-24.23-3.55-36-7a36.83,36.83,0,0,1-5.51-1.77Z"/><path class="cls-3" d="M109,289.39c8.88.22,17.74,1.32,26.64.91,5-.24,10.08-.57,15.11-.86a3.64,3.64,0,0,1,1.25,2.82c.91,8.6,2.43,17.12,2.88,25.77a39.85,39.85,0,0,0,.65,4.36,3.09,3.09,0,0,1-1.34,3.39c-3.5,1-7.11.81-10.69,1a4.35,4.35,0,0,1-2.38.4H125a4.15,4.15,0,0,1-2.37-.43,90.47,90.47,0,0,1-17-1.46,4.55,4.55,0,0,0,1.68-4.08c-.36-9.44.71-18.86.5-28.3C107.78,291.6,107.64,290.2,109,289.39Z"/><path class="cls-4" d="M43.75,204.14c-3.65-2.25-6.38-5.52-9.14-8.67C26.31,186,20.47,175.26,18,162.82A62.35,62.35,0,0,1,17.19,149c0-1,.28-2.16-.89-2.83-4.23-6.37-8.07-12.93-10.3-20.31A59.14,59.14,0,0,1,4.62,95.44c.67-.18.75.25.93.75,4.71,13,13.29,22.94,24,31.33.83.66,1.64,1.35,2.45,2,1.14,2.38.23,4.83,0,7.18-.6,6.24-.49,12.53-1.32,18.73-.53,4,1.36,6.38,4.45,8.41a16.64,16.64,0,0,1,5.75,5.83l4.9,3.91c.83,3.92-.07,7.82-.36,11.69-.4,5.45,0,10.93-.84,16.35C44.41,202.51,44.48,203.45,43.75,204.14Z"/><path class="cls-5" d="M33.44,297.75c-2.16-1.8-4.56-3.29-6.45-5.4a5.46,5.46,0,0,1-.58-2.78,239.15,239.15,0,0,0,1.42-24.08c0-1.42-.25-3,1.17-4,4.47,2.9,8.88,5.88,13.56,8.46C48.1,273,54,275.26,59.72,277.87l8.07,2.92,5.43,1.7a5.72,5.72,0,0,0-.26,2.4c1.45,8.09,1.64,16.34,3.15,24.42.48,2.57.11,5.2.45,7.78a1.34,1.34,0,0,1-.88,1.57,141.11,141.11,0,0,1-28.19-11.89c-2.62-1.44-5.13-3.1-7.69-4.66"/><path class="cls-6" d="M75.68,318.66a32.74,32.74,0,0,0-.23-8.85c-.88-6.25-1.7-12.49-2.28-18.76A49.2,49.2,0,0,0,72,284.12c-.32-1.3.09-1.64,1.24-1.63,6.79,1.58,13.52,3.45,20.41,4.59,5.12.85,10.27,1.55,15.4,2.31a4.37,4.37,0,0,0-.48,2.36c.25,10.34-.88,20.66-.46,31,.07,1.94-.57,2.7-2.46,2.49A156.6,156.6,0,0,1,75.68,318.66Z"/><path class="cls-4" d="M29,261.47a13.44,13.44,0,0,0-.48,3.84A183.62,183.62,0,0,1,27,290c-.11.84,1,1.6,0,2.35C13.7,280.92,4.28,267.09,1.26,249.56A51,51,0,0,1,2.1,227c1.72,3.12,2.69,6.58,4.44,9.71,5,9,11.9,16.21,19.81,22.6C27.24,260,28.12,260.75,29,261.47Z"/><path class="cls-7" d="M47.65,44.06l5.88-4.83A115,115,0,0,1,75.79,27.08a146.42,146.42,0,0,1,39.55-9.53,166.62,166.62,0,0,1,30.54-.36c1.13.09,2.26.22,3.39.32,1.93-1.08,3.89-.15,5.75.11,16.94,2.34,33,7.27,47.82,16.06,9.32,5.55,17.42,12.48,23.27,21.73a41.5,41.5,0,0,1,6.77,21.24,3.89,3.89,0,0,1-.58,2.81c-1.23,15.3-9.33,26.66-20.87,35.93-14.19,11.4-30.73,17.66-48.33,21.43a154.26,154.26,0,0,1-38,3.34c-21-.74-41.31-4.85-60.14-14.61-11.53-6-21.8-13.61-28.59-25C26.45,83.9,28.28,65.64,41.05,51A89.49,89.49,0,0,1,47.65,44.06Z"/><path class="cls-8" d="M232.3,79.46c.07-18.81-10.2-31.61-24.63-41.83-14.12-10-30.14-15.39-47-18.46-3.77-.69-7.58-1.11-11.37-1.66,0-.35-.79-.25-.41-.9,2-3.42,3.93-6.87,5.85-10.33a3.3,3.3,0,0,1,3.91-1.94c4.64.73,9.42.71,14,1.67,5.3,1.11,10.65,2,15.93,3.37,5.13,1.28,10,3.31,15.14,4.54,3,.72,5.81,2.39,8.7,3.66a114.87,114.87,0,0,1,24.66,14.13,83.32,83.32,0,0,1,12.42,11.65,59.85,59.85,0,0,1,9.94,15.53,42.7,42.7,0,0,1,3.8,16.49c0,2-.82,2.55-2.62,2.62-7.08.28-14.17.56-21.24,1C237,79.19,234.67,79.49,232.3,79.46Z"/><path class="cls-6" d="M215.06,227.51a180.94,180.94,0,0,1-39.23,9.81,18.39,18.39,0,0,1-2,.11c-2,.73-2.82-.4-2.94-2.07-.28-3.92-1.47-7.72-1.63-11.61-.28-6.62-1.56-13.1-2.16-19.67-.13-1.47-.36-2.87,1.77-2.91A216.32,216.32,0,0,0,215,191.24c2.09-.68,2.17.86,2.23,2.14a59.62,59.62,0,0,1-.05,9.26,69.89,69.89,0,0,0-.34,10.22c.14,4.08-.59,8.1-.57,12.16A2.5,2.5,0,0,1,215.06,227.51Z"/><path class="cls-3" d="M160.64,193.3c-4.95.94-10,1-15,1.51-7.66.7-15.29.27-22.92-.16A78.62,78.62,0,0,1,110,193.3c.63-6.66,0-13.34.35-20,.26-5.43.3-10.87.7-16.29,10.15,1.19,20.35,1.09,30.54.9,4.71-.09,9.42-.59,14.12-.9-.84.83-.95,1.21-.78,2.92.92,9.33,2.28,18.6,3.12,27.93C158.19,190,158.45,192.12,160.64,193.3Z"/><path class="cls-3" d="M168.91,201.17c-1.06.47-1.29,1-1.15,2.36.68,6.6,2,13.12,2.23,19.78.16,4.1,1.14,8.16,1.67,12.25.19,1.38.8,2,2.21,1.87a15.59,15.59,0,0,1-5.23.82,267.52,267.52,0,0,1-32.53.47c-3.78-.15-7.65-.23-11.35-1.33-.84-.94-.74-2.1-.78-3.23-.34-10,.53-20,.52-30a5.22,5.22,0,0,1,.74-3,267.33,267.33,0,0,0,31.26.84C160.64,201.89,164.77,201.45,168.91,201.17Z"/><path class="cls-3" d="M249.91,151.57a94.72,94.72,0,0,1-19.17,16.85,143.93,143.93,0,0,1-28.47,14.75,7.66,7.66,0,0,1-.94.25c-.77-3.48-.33-7-.1-10.47s.3-6.68.34-10a77.91,77.91,0,0,1,.41-11,7.91,7.91,0,0,0-.66-4.78c4.49-2.07,9.19-3.59,13.69-5.67a131.33,131.33,0,0,0,19.11-10.69c3.55-2.43,6.92-5.11,10.37-7.68,1.27.55,1.39,1.79,1.54,2.87.95,6.86,2.44,13.64,3.15,20.53C249.36,148.2,250,149.84,249.91,151.57Z"/><path class="cls-3" d="M215.06,227.51a5,5,0,0,0,.47-1.61c-.21-4.38.75-8.71.54-13.1-.31-6.49.8-13,.49-19.44-.06-1.11.07-2.2-1.54-2.12,2.25-.92,4.49-1.87,6.75-2.76a130.29,130.29,0,0,0,28.44-15.26c2.73-1.94,5.15-4.26,8-6.05,2,1.34,1.89,3.56,2.14,5.48,1,7.7,2.53,15.32,3.32,23a93.24,93.24,0,0,1-17.48,15.59c-9.46,6.78-19.86,11.83-30.62,16.2A1.93,1.93,0,0,1,215.06,227.51Z"/><path class="cls-3" d="M43.75,204.14c.5-9.64,1-19.29,1.5-28.93a7.11,7.11,0,0,1,.5-1.61,163.75,163.75,0,0,0,16.1,9.67,147.54,147.54,0,0,0,21.59,9c1.85.59,3.66,1.28,5.49,1.92,1.23,8.45,2.72,16.86,3.18,25.41.17,3,.77,6,1.21,8.95a3.9,3.9,0,0,1,0,2.39,141.69,141.69,0,0,1-46-23.26C46,206.67,44.52,205.76,43.75,204.14Z"/><path class="cls-3" d="M40.85,169.69c-3.35-2.82-6.52-5.85-10.11-8.38-.86-.6-.76-1.56-.73-2.46.26-7.44.52-14.89,1.41-22.29.28-2.33.36-4.68.54-7,3.12,2,6.15,4.23,9.39,6.05,10.64,6,21.65,11.16,33.57,14.18a12.35,12.35,0,0,1,1.77.75,4.1,4.1,0,0,0-.8,3c.35,6.09,1.54,12.09,2.14,18.15.51,5.07,1.56,10.1,1.54,15.23a139.32,139.32,0,0,1-36.46-16.52C42.45,169.92,41.89,168.93,40.85,169.69Z"/><path class="cls-6" d="M201.32,147.13c1.2-.08,1.61.55,1.48,1.65-1,7.9,0,15.88-.9,23.8a78.7,78.7,0,0,0-.15,9.22,4,4,0,0,1-.42,1.62,164.26,164.26,0,0,1-40.69,9.88c-1.8.27-2.68-.55-2.88-2.32-.51-4.6-1-9.18-1.6-13.77-.5-4.1-.84-8.24-1.61-12.29-.41-2.21-.06-4.41-.45-6.56-.27-1.47,1.32-.58,1.56-1.35a198.88,198.88,0,0,0,43.1-9.08C199.61,147.64,200.47,147.39,201.32,147.13Z"/><path class="cls-4" d="M256,228.65a2.79,2.79,0,0,1-1.31-2.46q-.84-6.37-1.84-12.72a3.81,3.81,0,0,1,.56-3c7.49-7,14-14.69,17.92-24.26a117.85,117.85,0,0,1-7.64,9.49,1.59,1.59,0,0,1-.94-1.32c-1-7.12-2-14.24-3-21.35a22.44,22.44,0,0,0-1.53-5.85c3.58-3.86,7.49-7.4,10.75-11.59a63.44,63.44,0,0,0,9.91-18c.18-.53.17-1.15.94-1.21a69.49,69.49,0,0,1,2.06,13.78,60.28,60.28,0,0,1-6.43,28.34,6.34,6.34,0,0,0-.57,4.43c3.58,17,.27,32.69-9.2,47.16l-3.72,1Z"/><path class="cls-6" d="M79.57,186.87c-1.5-2.5-.94-5.38-1.37-8.07-.92-5.82-1.26-11.72-2.4-17.54-.59-3-.31-6.15-.71-9.19-.22-1.64.61-1.51,1.6-1.55A213.78,213.78,0,0,0,111,157c1.07,3.43.72,7,.36,10.42-.52,5-.18,9.94-.34,14.9-.1,2.86,0,5.72-.07,8.57,0,.83.4,2.06-1,2.4A151.73,151.73,0,0,1,79.57,186.87Z"/><path class="cls-6" d="M93.33,231a36.85,36.85,0,0,1-1.87-11.69c-.1-5.15-1.41-10.1-1.84-15.18a42.9,42.9,0,0,0-1.36-9.35c-.11-.36.36-.46.67-.53,6.72,1.56,13.37,3.38,20.17,4.6,5.36,1,10.75,1.61,16.14,2.36-.11,5.57,0,11.13-.39,16.71-.41,6.49-.09,13-.09,19.52a110.54,110.54,0,0,1-17.54-2.74C102.54,233.65,98,232.2,93.33,231Z"/><path class="cls-4" d="M264.7,94.25c.9-1.18,0-1.91,1.32-2a3.9,3.9,0,0,1,1.26,2.56,54.7,54.7,0,0,1,.49,23.48c-.2,1-.29,2.12-1.25,2.82a69.89,69.89,0,0,1-16.61,30.44c-1.36-1.33-1.28-3.18-1.39-4.79-.33-5-1.74-9.9-2.3-14.89a33,33,0,0,0-1.73-8.8c3.37-3.78,7.35-7,10.36-11.08,1.82-2.49,3.59-5,5.38-7.53Z"/><path class="cls-9" d="M266.52,121.13a60.46,60.46,0,0,0-.5-28.86c1-1.65,1.36.31,1.48.47a57.09,57.09,0,0,1,5.05,8.83A47.55,47.55,0,0,1,277,119.21c.1,2-.57,2.57-2.48,2.49s-4,.63-6.08.46C267.61,122.09,266.74,122.24,266.52,121.13Z"/><path class="cls-3" d="M253.37,210.46c0,4.65,1.24,9.15,1.78,13.73.17,1.46-.31,3.19,1.13,4.35a1.71,1.71,0,0,1,.58,1A40.71,40.71,0,0,0,258,237.8c.56,2.07-.28,3.64-1.67,5.08a87.1,87.1,0,0,1-10.81,9.59,5.32,5.32,0,0,0-2.29,5.85q1.91,11.6,3.76,23.21a6.86,6.86,0,0,1-.16,2.43,66.83,66.83,0,0,1-12.44,11.91,136.5,136.5,0,0,1-33.87,19,7.63,7.63,0,0,1-1.19.27c-1.38-.59-1.24-1.86-1.17-2.94.69-11.08.48-22.18,1.11-33.25a163,163,0,0,0,26-12.17,69.49,69.49,0,0,0,12.54-9.05c-9,5.08-17.93,10.09-27.69,13.49a3.46,3.46,0,0,1-.74-2.74c-.09-10.23.36-20.45.93-30.66a11.73,11.73,0,0,0-.18-2.9,152.39,152.39,0,0,0,31.2-15.33C245.62,216.87,249.34,213.47,253.37,210.46Z"/><path class="cls-6" d="M185.72,283.06,199.29,279a2.49,2.49,0,0,1,.86,2.19c-.81,9.09-.8,18.2-.83,27.31,0,2.23-1,4.46,0,6.69a157.57,157.57,0,0,1-45.13,10.62,5.06,5.06,0,0,0,.58-3.64c-.82-6.09-1.34-12.21-2.1-18.3-.6-4.8-.77-9.67-1.92-14.4a234.22,234.22,0,0,0,31.89-5.54"/><path class="cls-4" d="M260.39,228c1.23-.41,3.87,1.59,4.3,3.48.67,6.57.89,13.12-.5,19.64A67.57,67.57,0,0,1,246.85,284L244,267c-.61-3.58-1.17-7.17-1.85-10.75a2.49,2.49,0,0,1,1-2.56c2.33-2,4.56-4.18,7.05-6,2.28-1.64,3.91-3.88,6-5.67a3.83,3.83,0,0,0,1.11-4.4,31.41,31.41,0,0,1-1.06-9.13Z"/><path class="cls-6" d="M210.17,234.94c1.38-.16,1,.72,1,1.53q-1,17.37-1,34.77A168.75,168.75,0,0,1,172.8,281c-1.76.27-3.54.4-5.32.59-1.86.64-2.07-.64-2.18-1.92-.65-7.63-1.84-15.19-2.6-22.8-.3-3-.79-6-1-9-.07-.89-.3-1.8.42-2.55A209.86,209.86,0,0,0,210.17,234.94Z"/><path class="cls-3" d="M162.08,245.33c.94,7.64,2.08,15.26,2.74,22.93.32,3.73,1.35,7.37,1.17,11.14-.06,1.1-.12,2.22,1.49,2.17-2.15.9-4.48.63-6.71.84a200.47,200.47,0,0,1-27.62.46,79.22,79.22,0,0,1-14.31-1.4c-1.13-1.43-.86-3.15-.68-4.71.77-6.75.31-13.51.41-20.26,0-2.53.16-5.05.16-7.57a5.3,5.3,0,0,1,1.1-3.67c9.44.59,18.89,1.27,28.35.9C152.82,246,157.45,245.61,162.08,245.33Z"/><path class="cls-10" d="M87,274.6a122.82,122.82,0,0,1-24.87-10A115.54,115.54,0,0,1,41.2,251.08c-1.31-1.09-2.55-2.26-3.82-3.39.27-7.08,1-14.14,1.22-21.22.08-2.29.56-4.54.67-6.82a1.78,1.78,0,0,1,1-1.81c2.62.94,4.67,2.84,7,4.29a140.63,140.63,0,0,0,29.21,13.74l7.11,2.42c1.18,2.8.53,5.81,1,8.71,1.08,7.09,2.14,14.2,2.91,21.34.15,1.46.19,2.93.32,4.4C87.84,273.48,87.84,274.23,87,274.6Z"/><path class="cls-6" d="M87,274.6c.3-3.3-.48-6.52-.75-9.79-.71-8.75-3-17.33-3-26.16,0-.12.2-.24.3-.36,5.69,1.32,11.37,2.66,17.06,4,6.32,1.47,12.82,1.89,19.2,3-1,12.05,0,24.16-1,36.21a105.44,105.44,0,0,1-14.43-2.3A118.24,118.24,0,0,1,87,274.6Z"/><path class="cls-4" d="M40.28,217.84a57.87,57.87,0,0,0-.89,7.13c0,7-1.2,13.86-1.06,20.83,0,.77.24,1.71-.95,1.89C19.48,232.35,7.28,209.06,13,183.4c.56-.12.63.31.76.68,4.56,12.69,12.86,22.56,23.25,30.86C38.13,215.85,39.19,216.87,40.28,217.84Z"/><path class="cls-11" d="M181,39.83c-2.56-.32-4.72-1.75-7.13-2.53A109.57,109.57,0,0,0,150,32.46c-10.79-1-21.4.17-32,1.73S97.84,39.75,89.85,47a32.81,32.81,0,0,0-5.2,6.47c-2.23,4.09-2.33,4.15-6.87,3.22-2.47-.5-4.92-1.09-7.37-1.64a5.34,5.34,0,0,0-4.23.43c-4.44,2.8-8.53,5.94-10.09,11.32-1,1.06-2.65,2.12-2.12,3.52.46,1.25,2.43.81,3.75,1,.87.16,1.79,0,2.65.19.57.15,1.41.21,1,1.21a5.66,5.66,0,0,1-3.44,1c-2,.15-3.46.8-3.21,3.22a2.18,2.18,0,0,1-.51,1.58c-1.81.54-2.43,1.66-2.42,3.61,0,3.94,1.16,7.56,2.43,11.2A3.52,3.52,0,0,0,58.11,96c2-.08,4-.63,6.11-.51a10.5,10.5,0,0,1,3.16.29c1,.62.36,1-.22,1.38-1,.6-2.2.5-3.27,1,0,1.51,2,1.59,2,3.06-1.28,1.34-3.21,1-4.7,1.78-.3.76.34,1,.7,1.4a32.6,32.6,0,0,0,6.94,5,6.62,6.62,0,0,0,5,.67c3.33-.77,6.65-1.59,9.93-2.54,4.26-1.24,5.26-.93,8,2.78"/><path class="cls-11" d="M191.47,38.92a63.18,63.18,0,0,1,22.16,16.54,38.52,38.52,0,0,1,9.06,17.64c2.23,10.75-.6,20.38-7,29-9.13,12.29-21.81,19.65-35.83,24.92a139.56,139.56,0,0,1-43.72,8.47,142.2,142.2,0,0,1-52.27-7.23c-11.91-4.07-23-9.94-31.93-19-8.08-8.17-13.3-17.72-12.61-29.67.51-8.9,4.18-16.46,9.94-23.12C58.94,45.3,71.41,38.43,85.11,33.58A131.76,131.76,0,0,1,120,26.38c14.66-1,29.2-.53,43.58,2.62a111.81,111.81,0,0,1,19.63,5.94"/><path class="cls-11" d="M101.46,116c3.85.49,7.24,2.45,10.93,3.47A61.65,61.65,0,0,0,127.83,122c9.91.16,19.78-.18,29.49-2.4,12.1-2.76,23.45-7.19,33.2-15.08a40.39,40.39,0,0,0,8-8.58c.46-1.2,1.6-1.82,2.36-2.77,7.08-8.82,9.25-18.4,5-29.27-3.59-9.28-10.53-15.31-18.61-20.39-.68-.43-1.5-.69-1.87-1.51"/><path class="cls-12" d="M96.16,106.58a4.9,4.9,0,0,1-3.58-1.85,4.68,4.68,0,0,0-5.14-1.1c-3.5,1.06-7,2-10.61,2.83a6.61,6.61,0,0,1-5.37-.78c-1.31-.83-2.74-1.44-4-2.34-.78-.56-1.73-1-1.69-2.2a9.73,9.73,0,0,1-3.08-3.2c1.57-1.16,3.65-.57,5.14-1.71a1.29,1.29,0,0,1,.74-.6c6-1.74,12.13-3.26,16.91-4.3-7.22.77-15.87.74-24.5,1.06-3.57.14-3.88-.22-5.21-3.58A31.92,31.92,0,0,1,53.69,81a3,3,0,0,1,.37-2.57c0-4.86,0-4.85,4.79-5.39a26.38,26.38,0,0,0,2.62-.52c2.91-1.24,6.06-1.09,9.1-1.41,4.94-.51,9.87-1.36,14-1.21-2.82.52-6.43-.29-10.06-.58-5-.39-10-1.13-15.08-1.6-1.18-.12-2.49-.09-3.4-1.12a2.12,2.12,0,0,1,.25-2.7c3-4,6.3-7.84,11.15-9.65,2.16-.81,4.35.77,6.6.91a26,26,0,0,1,4,.94c4.09,1,4.09.94,5.95-2.66A48.93,48.93,0,0,1,103.78,40a86.47,86.47,0,0,1,21.67-4.89,96.13,96.13,0,0,1,21.25.61A99.54,99.54,0,0,1,163,39.12a87.84,87.84,0,0,1,21.51,9.35,35.92,35.92,0,0,1,16.38,22.27c2.08,7.85.7,15.35-.93,23-.24,1.08-1.51,1.55-1.43,2.75-2.78,3.62-6.49,6.18-10.26,8.6-11.78,7.58-24.91,11.17-38.68,12.9-4.15.52-8.31.62-12.44.78a67.11,67.11,0,0,1-33.81-7.38,11.52,11.52,0,0,1-1.36-1.25"/><path class="cls-13" d="M185.61,41.7c5.15,3.15,10.19,6.45,14.18,11C210,64.49,212.58,80,201.51,93.27c-.82,1-1.79,1.84-2.68,2.76-.07.22-.2.27-.4.16,1.78-6.33,3.5-12.71,2.82-19.34a38.43,38.43,0,0,0-4-14c-5.42-10.45-14.88-15.53-25.15-19.84A114.45,114.45,0,0,0,154,37.54c-4.17-1-8.53-1.15-12.79-1.75a71.65,71.65,0,0,0-20.94.61c-10,1.53-19.7,4.26-27.89,10.52-2.66,2-5.87,3.55-7.59,6.7-.18.33-.57.13-.79-.16,3.92-6.61,9.69-11,16.46-14.44,8.85-4.48,18.33-5.93,28.05-6.77a127.5,127.5,0,0,1,15.62-.81c12.23.43,24.14,2.36,35.4,7.4"/><path class="cls-14" d="M103.21,111c3.42,1.28,6.82,2.63,10.27,3.81,9.73,3.35,19.77,3.68,29.94,3,15.68-1.06,30.58-4.66,44.09-13a61.9,61.9,0,0,0,10.92-8.58,1.11,1.11,0,0,0,.39-.16c-.39,2.07-2.06,3.29-3.35,4.68-6.46,7-14.52,11.52-23.23,15-15.45,6.22-31.61,7.72-48.05,6.79-8-.46-15.55-3.39-23-6.34l-9.81-5.75c-1.07-1-2.15-2-3.2-3-.75-.72-1.49-.32-2.27-.11-3.22.86-6.57,1.38-9.63,2.62-4.43,1.81-7.9.15-11.28-2.31-1.58-1.14-3-2.53-4.51-3.74s-.66-1.56.49-1.84c1.58-.38,3.18-.65,4.78-1,2.12,2.11,4.84,3.27,7.4,4.68a4.74,4.74,0,0,0,3.57,0c3.79-1,7.6-1.85,11.33-3a4.06,4.06,0,0,1,4.6,1.11,10.23,10.23,0,0,0,3.64,2.42,9,9,0,0,1,3.31,2.31"/><path class="cls-15" d="M54.06,78.45A39.39,39.39,0,0,0,57,90a2.44,2.44,0,0,0,2.74,1.74c9.69-.39,19.37-.68,29.1-.83-7,1.94-13.89,3.94-21,5.33-3.44-.37-6.85.18-10.27.39-2.19.13-3.25-.69-4-2.68A38.05,38.05,0,0,1,51,81.32C51,78.94,51.7,78,54.06,78.45Z"/><path class="cls-15" d="M56,66.62,86,69.8c-8.15,1.13-16.25,2.53-24.48,2.74C59,71.8,56.5,72,54,71.63c-1.49-.2-1.76-.81-1-1.87S54,66.68,56,66.62Z"/><path class="cls-16" d="M161.06,57.37c-6.34,6.8-13.58,12.09-22.89,14.12-7.89,1.73-16.87-2.78-18.89-9.93-.91-3.21-.94-6.56,1-9.58,2.33-2,4.61-4.08,7.56-5.23a27.5,27.5,0,0,1,12.45-1.41A40.45,40.45,0,0,1,155,49.5a14.68,14.68,0,0,1,3.78,2.66A6.94,6.94,0,0,1,161.06,57.37Z"/><path class="cls-16" d="M121,95.26c-.7-.84-.29-2.75-.24-3.89a4.36,4.36,0,0,1,2.06-3.94l3.64-.83c.78-1,5.35-1.42,6.38-1.7l8.65,4a39.87,39.87,0,0,1,14.43,12.59,10.56,10.56,0,0,1,1.73,5c-9.62,5.55-19.16,4.69-28.31-.88-2.77-1.69-5.45-4.07-6.57-7.5Z"/><path class="cls-7" d="M161.06,57.37c-3.39-8.71-11.41-9.78-19-11.2a23.66,23.66,0,0,0-13.2.9,28.63,28.63,0,0,0-7.24,4.4c-.36.28-.55,1.18-1.3.51C126.74,41.8,136,39.73,146.89,41.62a29.9,29.9,0,0,1,11.89,4.3C164.29,49.64,164.7,51.83,161.06,57.37Z"/><path class="cls-17" d="M122.61,87.65c.91-.94,2.6-3.25,4.07-3.77s5.26-2.47,7-2.47a27,27,0,0,1,4.25.51,40.62,40.62,0,0,1,17.63,11.39,26.68,26.68,0,0,1,3.19,4.29c2,3.34,1.63,5.57-1.09,8.88-1.26-1.6-1.36-3.73-2.64-5.38A40.77,40.77,0,0,0,140.34,89a21.31,21.31,0,0,0-4.52-2.16,16,16,0,0,0-5.93-.52"/></g></g></svg>