<svg xmlns="http://www.w3.org/2000/svg" viewBox="0 0 55.31 25.25"><defs><style>.cls-1{fill:#f1f2f2;}.cls-2{fill:#f5b763;}.cls-3{fill:#a65d42;}.cls-4{fill:#f2b466;}.cls-5{fill:#e88b4d;}.cls-6{fill:#f2b566;}.cls-7{fill:#d37337;}.cls-8{fill:#9a9893;}.cls-9{fill:#e98c4c;}.cls-10{fill:#9d4d2f;}.cls-11{fill:#9a999a;}.cls-12{fill:#e6884b;}.cls-13{fill:#919290;}.cls-14{fill:#70442f;}.cls-15{fill:#8e5847;}.cls-16{fill:#a4a4a6;}.cls-17{fill:#9d9d9e;}.cls-18{fill:#f0b56a;}.cls-19{fill:#704f45;}.cls-20{fill:#864133;}.cls-21{fill:#874233;}.cls-22{fill:#f3b86f;}.cls-23{fill:#7e3e2e;}.cls-24{fill:#d57238;}.cls-25{fill:#9d9c9e;}.cls-26{fill:#999696;}.cls-27{fill:#78716c;}.cls-28{fill:#bcbcbb;}.cls-29{fill:#7d776f;}.cls-30{fill:#eb853e;}.cls-31{fill:#a25a40;}.cls-32{fill:#a45e4d;}.cls-33{fill:#b2624e;}.cls-34{fill:#c87567;}.cls-35{fill:#efb65b;}.cls-36{fill:#d1d3d4;}.cls-37{fill:#b4624c;}.cls-38{fill:#e5dfdd;}.cls-39{fill:#ac5a42;}.cls-40{fill:#b4634d;}.cls-41{fill:#a39390;}.cls-42{fill:#cfbcb5;}.cls-43{fill:#a45535;}.cls-44{fill:#9f5e44;}.cls-45{fill:#a15036;}.cls-46{fill:#bd7060;}.cls-47{fill:#e98e4f;}.cls-48{fill:#9c9894;}.cls-49{fill:#bd715f;}.cls-50{fill:#a9512a;}.cls-51{fill:#ec8d4d;}.cls-52{fill:#e07638;}.cls-53{fill:#d47239;}.cls-54{fill:#9e4f35;}.cls-55{fill:#e88b4f;}.cls-56{fill:#ab5f4b;}.cls-57{fill:#a54c30;}.cls-58{fill:#b2603a;}.cls-59{fill:#e98f51;}.cls-60{fill:#b06353;}.cls-61{fill:#d8cac4;}.cls-62{fill:#ebe8e8;}.cls-63{fill:#9b6a5b;}.cls-64{fill:#c17060;}.cls-65{fill:#c67466;}.cls-66{fill:#c1705f;}.cls-67{fill:#c77567;}.cls-68{fill:#b36a53;}.cls-69{fill:#bf7168;}.cls-70{fill:#c3736b;}.cls-71{fill:#97492e;}.cls-72{fill:#9d6043;}.cls-73{fill:#b6654e;}.cls-74{fill:#a76043;}.cls-75{fill:#a45841;}.cls-76{fill:#bf705e;}.cls-77{fill:#ac5941;}.cls-78{fill:#9d4f34;}.cls-79{fill:#c66635;}.cls-80{fill:#c36536;}.cls-81{fill:#a45237;}.cls-82{fill:#d16f3c;}.cls-83{fill:#9b4d2f;}.cls-84{fill:#9b4d30;}.cls-85{fill:#b65d37;}.cls-86{fill:#696c6f;}.cls-87{fill:#b26349;}.cls-88{fill:#ae5834;}.cls-89{fill:#9f4f34;}.cls-90{fill:#ad5835;}.cls-91{fill:#ca6b39;}.cls-92{fill:#9f4f3a;}.cls-93{fill:#9b4a31;}.cls-94{fill:#9c4a32;}.cls-95{fill:#b45a35;}.cls-96{fill:#a34f32;}.cls-97{fill:#d26e3e;}.cls-98{fill:#c77568;}.cls-99{fill:#c67567;}.cls-100{fill:#bd6a5b;}.cls-101{fill:#a25e43;}.cls-102{fill:#b3624d;}.cls-103{fill:#ba6b59;}.cls-104{fill:#e98e4e;}.cls-105{fill:#d3713c;}.cls-106{fill:#b3634c;}.cls-107{fill:#ea8b4f;}.cls-108{fill:#ba6956;}.cls-109{fill:#9e4d37;}.cls-110{fill:#c37262;}.cls-111{fill:#cd7660;}.cls-112{fill:#846156;}.cls-113{fill:#de7b3c;}.cls-114{fill:#a95535;}.cls-115{fill:#cf735d;}.cls-116{fill:#d08275;}.cls-117{fill:#d4857a;}.cls-118{fill:#b46554;}.cls-119{fill:#b96856;}.cls-120{fill:#c47363;}.cls-121{fill:#b36951;}.cls-122{fill:#c9746c;}.cls-123{fill:#825342;}.cls-124{fill:#b06a56;}.cls-125{fill:#ca756a;}.cls-126{fill:#c87568;}</style></defs><g id="Layer_2" data-name="Layer 2"><g id="Layer_1-2" data-name="Layer 1"><path class="cls-1" d="M54.81,17.09a25.27,25.27,0,0,1-5.76,1.22,15.21,15.21,0,0,1-2.24.09c-.68.07-.88-.32-.71-.86.45-1.47.63-3,1.16-4.45a1,1,0,0,1,.85-.38,61.9,61.9,0,0,1,6.53.09.8.8,0,0,1,.46.46C54.88,14.53,55.29,15.84,54.81,17.09Z"/><path class="cls-1" d="M49.53,7A21.7,21.7,0,0,1,54.82,8.2,13,13,0,0,1,55,12a.87.87,0,0,1-.19.4,18.25,18.25,0,0,1-6,.11c-.51,0-1.13.14-1.58-.33-.49-1.42-.6-2.95-1.14-4.37-.22-.58,0-.91.69-.87A20.76,20.76,0,0,1,49.53,7Z"/><path class="cls-2" d="M11,20.43c-3-.31-6.1-.65-9.15-.94C0,19.32,0,19.35,0,17.59,0,14.05,0,10.5,0,7c0-.79.26-1,1-1.09,3.33-.3,6.65-.65,10-1a.75.75,0,0,1,.12,1,4.75,4.75,0,0,1-2.52.55c-2,.07-3.95.52-5.94.56-.84,0-1.21.41-1.26,1.34-.16,3,.06,6-.06,9a.87.87,0,0,0,.72,1c2.63.22,5.24.58,7.86.82a2.15,2.15,0,0,1,1.13.3A.73.73,0,0,1,11,20.43Z"/><path class="cls-1" d="M28.94,4.18l.1.59c-.31.5.29.73.35,1.12s.22.55.35.83c.53,1.81,1.18,3.61.77,5.55-1.39.64-1.92.38-2.09-1.07-.22-1.85-.56-3.61-2.12-4.9a3.53,3.53,0,0,1-.92-2c-.35-.86-.55-1.77-.82-2.66-.07-.31-.18-.63.12-.89,1,.84,1.57,2,2.59,2.79A9.25,9.25,0,0,0,28.94,4.18Z"/><path class="cls-1" d="M27.06,21.89l-2.39,2.67c-.28-.26-.17-.57-.1-.88.27-.88.46-1.78.82-2.64a3.78,3.78,0,0,1,1-2,6.62,6.62,0,0,0,2-4.82A1.45,1.45,0,0,1,30,12.6a.73.73,0,0,1,.54.2,3.92,3.92,0,0,1,0,2.53,17.7,17.7,0,0,1-1,4c-.24.41-.54.78-.81,1.18a5.69,5.69,0,0,1-1.19,1.16C27.36,21.76,27.18,21.78,27.06,21.89Z"/><path class="cls-1" d="M12.62,20.44l-.95,1c-.72-.51-.12-1.12-.12-1.68a12.78,12.78,0,0,0,.82-2.79,15.49,15.49,0,0,0,1.46-3.46c.15-.66.73-.76,1.27-.89a1,1,0,0,1,.75.15,1.69,1.69,0,0,1,.08,1.5c0,.3,0,.6-.07.91a6.18,6.18,0,0,1-.43,1.69c0,.16-.11.32-.17.47a3.11,3.11,0,0,1-.63,1.12,2.35,2.35,0,0,1-.19.25,12.12,12.12,0,0,0-1.06,1.2A1.32,1.32,0,0,1,12.62,20.44Z"/><path class="cls-1" d="M11.27,4.41c0-.18-.49-.49.15-.49s.68.61,1.07.84a1.32,1.32,0,0,1,.85.66,4.05,4.05,0,0,0,.69.8,4.54,4.54,0,0,1,.79,1c.16.29.31.58.44.87a4.94,4.94,0,0,1,.19.49A12.17,12.17,0,0,1,16,11.4a1.18,1.18,0,0,1-.14.93c-1.58.49-2.19.21-2.35-1.36-.13-1.31-1.3-2.19-1.25-3.51-.09-.68-.51-1.24-.65-1.89C11.65,5.14,11.36,4.8,11.27,4.41Z"/><path class="cls-1" d="M43.55,14l-.28,1.79c-.15.24,0,.56-.18.79-.74,2-2.36,3.24-3.64,4.79-.55-.19-.17-.58-.18-.89a11.9,11.9,0,0,0,.82-3.76,6.78,6.78,0,0,0,1.44-3.16c.1-.84.86-.9,1.55-1a.72.72,0,0,1,.37.13A.92.92,0,0,1,43.55,14Z"/><path class="cls-1" d="M43.12,9l.44,2.35a1,1,0,0,1,.11.95,1.65,1.65,0,0,1-1.33.35c-.63,0-1-.15-.93-1,.17-1.27-.73-2.22-1.16-3.3s-.57-2.09-.81-3.14a4.17,4.17,0,0,1-.14-.86A.68.68,0,0,1,39.41,4C40.9,5.47,42.52,6.83,43.12,9Z"/><path class="cls-3" d="M11.27,4.41c.38.22.73.46.56,1l-.21.17a3.68,3.68,0,0,0,.1,2.08,2.28,2.28,0,0,1,.41,1.26c0,.72-.41,1.48.26,2.12a2.27,2.27,0,0,1,.78,1.42c0,.11,0,.23,0,.34a2.59,2.59,0,0,1-.68,1.42,1.65,1.65,0,0,0-.64.2l-.36.24a.61.61,0,0,1-.44.11A5.46,5.46,0,0,1,10,14a2,2,0,0,1-.16-2.4c.4-.4.93-.73.84-1.42s0-1.56,0-2.33V7A1.68,1.68,0,0,1,11,5.8V4.88Z"/><path class="cls-4" d="M38.91,21.5a16,16,0,0,1-.08-3.17c0-.69-.2-.8-.82-.52a20.49,20.49,0,0,1-4.54,1.62c-.61-.4-.33-.78,0-1.16a22.26,22.26,0,0,0,3.9-1.45,6.65,6.65,0,0,1,1.16-.41,1.13,1.13,0,0,1,.36.06.51.51,0,0,1,.28.26,2.75,2.75,0,0,1,.15,1C39.24,19,39.59,20.3,38.91,21.5Z"/><path class="cls-5" d="M20.18,4.21c.89.79,1.83.14,2.74.08a3,3,0,0,1,.39-.13,1,1,0,0,1,1,.28.64.64,0,0,1-.11.78,6.68,6.68,0,0,1-2.81.25,29.37,29.37,0,0,0-3,.1L18,5.63l-.37,0H15.82a1.44,1.44,0,0,1-1.06-.28.59.59,0,0,1,.08-.72h.24a12.84,12.84,0,0,0,2.7.07,2.72,2.72,0,0,1-1.59-.14c.78-.32,1.63-.07,2.43-.26A1.82,1.82,0,0,1,20.18,4.21Z"/><path class="cls-6" d="M33.48,5.89A19.15,19.15,0,0,1,38,7.52c.64.29.83.17.82-.52,0-1,0-2,.07-2.94.65.55.38,1.3.42,2a7.08,7.08,0,0,1-.06,1.78c-.52,1.25-.62,1.28-1.82.74a23.12,23.12,0,0,0-3.33-1.28,2.3,2.3,0,0,1-.66-.34C33.12,6.57,32.91,6.22,33.48,5.89Z"/><path class="cls-7" d="M18.58,21a.38.38,0,0,1-.15-.09c-.27-.34-.5-.68-.07-1.07a2.73,2.73,0,0,1,1.74-.08,28.48,28.48,0,0,0,3.92.11c.61.38.42.88.22,1.39a.81.81,0,0,1-.27.25c-.52.22-.73-.25-1-.48l-2.6,0A1.84,1.84,0,0,1,18.58,21Z"/><path class="cls-8" d="M43.34,12.82h-.27c-.78,0-1.55.46-2.33,0a.28.28,0,0,1-.05-.38,18.7,18.7,0,0,1,2.7-.07,3.3,3.3,0,0,1,1.4-.13c.45.17.69-.64,1.19-.27.85.62,1.83.25,2.74.32a31.54,31.54,0,0,0,6,0L54.8,12a.34.34,0,0,1,.46,0v1.23a.18.18,0,0,1-.25.08L54.71,13a55,55,0,0,0-8.22,0,.67.67,0,0,0-.51.26c-.28.32-.5-.09-.75-.06C44.67,12.75,43.89,13.3,43.34,12.82Z"/><path class="cls-9" d="M33.48,5.89a.64.64,0,0,0,0,.86c-.65.49-1.2-.09-1.8-.16-.82-.34-1.78-.18-2.53-.74l-1-1.09H29C30.48,5.32,32.06,5.28,33.48,5.89Z"/><path class="cls-5" d="M18.18,20a1.4,1.4,0,0,1,.25.91l-3.58-.23a.64.64,0,0,1-.21-.61.62.62,0,0,1,.25-.4.73.73,0,0,1,.3-.07c.19,0,.38.1.57.12l.28,0h1.65a.94.94,0,0,1,.4.13Z"/><path class="cls-10" d="M39,8l-.09-3.9c-.1-.31-.37-.77.12-.84s.07.62.41.8a.13.13,0,0,1,.06.16c-.14,1,.2,1.94.09,2.92s.71,2.18.24,3.33c-.33.21-.45,1.33-1.06.23A6,6,0,0,1,39,8Z"/><path class="cls-11" d="M18.58,21l1.75.05c0,.14-.17.3-.14.43.29,1-.2,1.29-1.12,1.18-1.11-.12-.45-.82-.46-1.31Z"/><path class="cls-12" d="M33.54,18.32c-.07.37-.37.71-.07,1.11a14.3,14.3,0,0,1-3.09.72c-.29-.36-.15-.67.12-1a1.91,1.91,0,0,1,.93-.41l.47-.07a3.17,3.17,0,0,0,.44-.12c.34-.09.58-.4,1-.42A.36.36,0,0,1,33.54,18.32Z"/><path class="cls-13" d="M28.94,4.18a1.21,1.21,0,0,1-1.67-.67c-.14-1,.58-.78,1.15-.81s.64.29.49.78A1.85,1.85,0,0,0,28.94,4.18Z"/><path class="cls-14" d="M24.86,23.8l-.19.76c0,.26.12.66-.25.69s-.28-.37-.28-.63c0-.67,0-1.34,0-2-.29-.37-.57-.74-.18-1.2l0,0c.24-.12.44-.48.78-.15a1.07,1.07,0,0,1,.14.35C25.06,22.32,24.7,23.05,24.86,23.8Z"/><path class="cls-15" d="M11.74,19.72c0,.56-.05,1.12-.07,1.68,0,.33.08.72-.37.9-.5-.41-.21-.93-.2-1.41.26-1.06-.44-2.1,0-3.15a.46.46,0,0,1,.28-.25c.31,0,.4.28.49.52C11.79,18.58,12,19.16,11.74,19.72Z"/><path class="cls-16" d="M27.06,21.89l.2-.29c.54-.2,1-.72,1.67-.23-.16.4.65,1.05-.24,1.22C28.06,22.71,27.28,22.87,27.06,21.89Z"/><path class="cls-17" d="M18.66,3.7a.6.6,0,0,1-.07-.93,1.52,1.52,0,0,1,1.45,0c.52.22,0,.75.07,1.14C19.57,4.27,19.11,4,18.66,3.7Z"/><path class="cls-18" d="M14.84,4.66l0,.72a.87.87,0,0,1-.38.33,1.51,1.51,0,0,1-.32.11,1.09,1.09,0,0,1-.95-.22l-.72-.84Z"/><path class="cls-19" d="M24.68.72l.18.84c-.21.69.31,1.41-.12,2.08-.3.23-.49,0-.68-.17a.78.78,0,0,1,0-.77c0-.68,0-1.35.05-2,0-.25-.17-.66.22-.68S24.62.45,24.68.72Z"/><path class="cls-20" d="M55.26,12H54.8c0-1.28,0-2.56,0-3.84.63-.1.47.38.47.68C55.3,9.93,55.27,11,55.26,12Z"/><path class="cls-21" d="M55,13.35l.25-.08c0,1.05,0,2.11,0,3.17,0,.31.14.78-.48.65C54.89,15.84,54.57,14.58,55,13.35Z"/><path class="cls-22" d="M14.83,19.93c0,.24,0,.48,0,.72a5.43,5.43,0,0,1-2.23-.21c.19-.24.38-.48.58-.71a1.25,1.25,0,0,1,1-.27,2,2,0,0,1,.33.09A.76.76,0,0,1,14.83,19.93Z"/><path class="cls-23" d="M38.91,21.5,39,17.58a.35.35,0,0,1,.45-.08,11.14,11.14,0,0,1,0,3.21c.06.24-.29.46,0,.7,0,.31.1.78-.27.81S38.82,21.82,38.91,21.5Z"/><path class="cls-24" d="M30.63,19.25a1.5,1.5,0,0,0-.25.9l-1.23.31a.54.54,0,0,1-.73,0l.75-1C29.63,19.16,30.08,18.81,30.63,19.25Z"/><path class="cls-3" d="M11.25,17.57a16.07,16.07,0,0,1-.15,3.32L11,20.43c0-.31,0-.62,0-.93-.51-.86-.18-1.8-.28-2.7,0-.14,0-.28,0-.42a3.61,3.61,0,0,1,.19-1.26c.15-.17.29-.35.52-.09A2.87,2.87,0,0,1,11.25,17.57Z"/><path class="cls-25" d="M23.94,21.41l.18,1.2c-1.43.23-1.15-.81-1.19-1.61Z"/><path class="cls-26" d="M24.09,2.7l.09.76a.42.42,0,0,1,.08.44c-.29.33-.79.1-1.09.4h-.25C22.91,3.46,22.9,2.65,24.09,2.7Z"/><path class="cls-27" d="M28.42,20.42l.73,0c-.08.31-.15.61-.22.91l-1.67.23Z"/><path class="cls-28" d="M43.09,16.62c0-.28-.07-.57.18-.79.08.85.91.88,1.4,1.27.33.26.7.47,1.06.7C44.65,17.84,44,16.91,43.09,16.62Z"/><path class="cls-29" d="M18.66,3.7l1.45.22.07.29a2.39,2.39,0,0,1-1.56.13C18.63,4.13,18.65,3.91,18.66,3.7Z"/><path class="cls-30" d="M16.19,4.6l1.75.1a5.06,5.06,0,0,1-2.86,0Z"/><path class="cls-31" d="M46,13.28c-.1-.24-.19-.5.2-.5,2.79,0,5.59,0,8.38.08,0,0,.1.11.15.16l-6.37,0c-.34,0-.71-.07-1,.21A2.51,2.51,0,0,0,46,13.28Z"/><path class="cls-32" d="M54.71,12.3c-.13.26-.38.24-.61.24H46.5c-.3,0-.84.14-.52-.53l1.38,0A56.38,56.38,0,0,0,54.71,12.3Z"/><path class="cls-33" d="M11,5.8,11,7c-.9.59-2,.21-2.94.54-.28.09-.61.1-.91.18-1.34.08-2.67.34-4,.35-1.18.11-.5,1-.67,1.55,0,.19,0,.37,0,.56s0,.39,0,.59c0,1.22,0,2.45,0,3.68,0,.19,0,.39,0,.59s0,.38,0,.58,0,.62,0,.93,0,.75,0,1.12a1.65,1.65,0,0,1,0,.38c-.07.24-.15.49-.49.48-.66,0-1.16-.2-1-.94A12.65,12.65,0,0,0,1,14.5c0-1.51.05-3.05,0-4.56-.06-.89.36-1.76,0-2.66-.16-.38.26-.47.6-.51,2.36-.25,4.71-.59,7.08-.7C9.43,6,10.21,5.89,11,5.8Z"/><path class="cls-34" d="M1.92,18.57l.25-.52c2.73-.3,5.48,0,7.82-.13-2,0-4.3,0-6.66,0a1.94,1.94,0,0,1-1.16-.12V16.61c.06-.05.12-.13.19-.14a30,30,0,0,1,7.45,0A8,8,0,0,0,11,16.6L11,19.5C7.93,19.33,4.92,19,1.92,18.57Z"/><path class="cls-35" d="M.45,7.36V18.2H.33V7.31Z"/><path class="cls-36" d="M25.65,4.17a6.12,6.12,0,0,0,1.91,3,5.39,5.39,0,0,1,1.11,3.66c0,1.23.45,1.71,1.66,1.47a.2.2,0,0,1,0,.35,10,10,0,0,1-4.15,0c-.62-.63-.21-1.5-.51-2.2a19.7,19.7,0,0,0-1-5,1.91,1.91,0,0,1,0-.89C24.88,4.17,25.31,4.27,25.65,4.17Z"/><path class="cls-37" d="M30.38,12.48a.41.41,0,0,0-.05-.19,19.16,19.16,0,0,0-.89-5.73c.5-.53,1,.13,1.54,0a1,1,0,0,1,.79.48,4,4,0,0,1,.12,1.46c0,.46.37.41.68.44s1-.06,1.29.38c.19,1.16.53,2.32-.2,3.42A4.21,4.21,0,0,1,30.38,12.48Z"/><path class="cls-38" d="M25.65,4.17c-.07.78-.51.12-.76.2-.32-.12-.46-.31-.27-.64.24-.71-.26-1.49.24-2.16Z"/><path class="cls-39" d="M30.87,6.8a2.93,2.93,0,0,1-1.43-.24c-.25-.18-.24-.45-.25-.71a6.62,6.62,0,0,1,2.63.5C31.75,7,31.09,6.45,30.87,6.8Z"/><path class="cls-36" d="M24.65,21.39v-.24c-.25-.3-.1-.63-.05-.94a28.47,28.47,0,0,0,1-5.57c.29-.62-.11-1.44.55-2a16.23,16.23,0,0,1,3.75.14c-1.46,0-1.34,1.28-1.35,2.1A6,6,0,0,1,26.77,19a4.53,4.53,0,0,0-1.12,2.13C25.24,20.9,25.06,21.67,24.65,21.39Z"/><path class="cls-40" d="M30.63,19.25l-1.46.2a21.1,21.1,0,0,0,1.2-6.63,11.12,11.12,0,0,1,3.05-.13c.78.91.22,2,.46,3a1,1,0,0,1-.05.37c-.36.42-.87.32-1.33.34s-.65.06-.62.52c0,.69.21,1.42-.28,2.05Z"/><path class="cls-41" d="M33.51,12.83H29.92l-3.82,0a.25.25,0,0,1,0-.31h4.29l3.34,0a3.39,3.39,0,0,1,.39-.18,7.49,7.49,0,0,1,3.16.16.32.32,0,0,1,.08.38c-1,.54-2,.22-3.07.28a1.93,1.93,0,0,1-.41-.06A1.31,1.31,0,0,1,33.51,12.83Z"/><path class="cls-42" d="M24.65,21.39c.38.14.42-1.25,1-.23-.26.88-.53,1.76-.79,2.64C24.27,23,24.79,22.19,24.65,21.39Z"/><path class="cls-43" d="M44.79,12.29c-.36.43-.81.15-1.22.18-.09,0-.13-.06-.11-.1s0-.07.08-.07l0-1Z"/><path class="cls-44" d="M43.34,12.82,45,12.77c.37,0,.37.19.22.45-.76-.12-1.21.36-1.67.82C43.42,13.65,43.64,13.19,43.34,12.82Z"/><path class="cls-36" d="M11.69,18c-.19-.1-.2-.27-.21-.45-.24-.34-.05-.66,0-1a4.16,4.16,0,0,0,.16-.5c.26-.59.05-1.33.56-1.84A3.66,3.66,0,0,0,13,12.78a1.88,1.88,0,0,1,2.13,0A1.31,1.31,0,0,0,14,14.05c-.1,1.17-1,2-1.3,3.08C12.19,17.27,12.3,18,11.69,18Z"/><path class="cls-45" d="M15.15,16.88l.45-1.72a3,3,0,0,1,1.06-.28c.61,0,1.2,0,1.45.7A1.11,1.11,0,0,1,17.68,17,3.27,3.27,0,0,1,15.15,16.88Z"/><path class="cls-46" d="M11.69,18c.32-.3.4-.85,1-.88-.48.8,0,1.93-.92,2.59A2.12,2.12,0,0,1,11.69,18Z"/><path class="cls-47" d="M15.15,16.88l2.56-.08c.85,0,.76.33.37.83a15.69,15.69,0,0,1-2.74-.07.71.71,0,0,1-.32-.22Z"/><path class="cls-48" d="M15.08,12.82l-2.13,0v-.24c.89-.6,1.84.13,2.74-.12a3.38,3.38,0,0,1,.62-.18,5.83,5.83,0,0,1,2.78.21.29.29,0,0,1,0,.39,5.19,5.19,0,0,1-2.76.24,1.29,1.29,0,0,1-.59-.25Z"/><path class="cls-49" d="M14.35,19.72H13.2l1.14-1.26A.86.86,0,0,1,14.35,19.72Z"/><path class="cls-50" d="M14.83,19.93l-.27-.17c-.09-.49.23-1-.15-1.48l.61-.94.08,0a2.24,2.24,0,0,1,0,2.4Z"/><path class="cls-51" d="M15.78,12.83l.53,0a1.19,1.19,0,0,1,.05,1.4.55.55,0,0,1-.77,0A3.09,3.09,0,0,0,15.78,12.83Z"/><path class="cls-52" d="M15.59,14.21l.69,0a.69.69,0,0,1,0,.95.59.59,0,0,1-.68,0C15.59,14.84,15.59,14.53,15.59,14.21Z"/><path class="cls-53" d="M14.41,18.28c.79.41.36,1,.15,1.48l-.21,0c0-.42,0-.84,0-1.25A.44.44,0,0,1,14.41,18.28Z"/><path class="cls-36" d="M15.8,12.47,13,12.54a3.5,3.5,0,0,0-.72-1.44A3.16,3.16,0,0,1,11.92,9a2.22,2.22,0,0,0-.46-1.24c-.19-.42,0-.59.4-.67a.59.59,0,0,1,.52.18c.24,1.4,1.49,2.39,1.46,3.93,0,1.29,1,1.14,1.9,1.1.07,0,.1.06.09.1S15.82,12.47,15.8,12.47Z"/><path class="cls-54" d="M15.75,11.34c-.35-.93-.14-2-.63-2.89a3.71,3.71,0,0,1,2.64-.18c.73,1,.61,1.6-.46,2a1.57,1.57,0,0,0-1.1.82A.57.57,0,0,1,15.75,11.34Z"/><path class="cls-55" d="M17.94,8.52l-2.82-.07L15,8a.57.57,0,0,0,.11-.11c.5-.23,1.05-.07,1.57-.2L17,7.58a2,2,0,0,1,.49,0,1,1,0,0,1,.33.06.88.88,0,0,1,.29.18C18.29,8.08,18.57,8.41,17.94,8.52Z"/><path class="cls-56" d="M12.38,7.26l-.43,0c-1-.39-.48-1.19-.45-1.85l.33,0C12,6,12.48,6.56,12.38,7.26Z"/><path class="cls-57" d="M15,8l-.4-.71c.09-.58-.49-1.16,0-1.74.92-.06.64.74.87,1.18a1.57,1.57,0,0,1,0,.91c-.06.18-.24.26-.37.38Z"/><path class="cls-58" d="M14.62,5.63c0,.54.5,1.08,0,1.63l-.74-.93c0-.34.28-.51.45-.74h0C14.46,5.51,14.55,5.52,14.62,5.63Z"/><path class="cls-59" d="M15.75,11.34l.26-.27c.78.32.59.84.28,1.38l-.49,0a.3.3,0,0,0-.06-.18Z"/><path class="cls-60" d="M14.34,5.59a.71.71,0,0,1-.45.74,1.51,1.51,0,0,1-.68-.73Z"/><path class="cls-36" d="M40.75,12.78l2.32,0c-1.1.15-1.47.82-1.45,1.86s-1,1.48-1.39,2.26c.15.45-.13.52-.47.54-.69-.38-.25-1.05-.39-1.57a6,6,0,0,0,.41-1.3C40,13.94,40.1,13.22,40.75,12.78Z"/><path class="cls-61" d="M39.68,17.39c.24-.09.49-.15.55-.45.3,1.37-.36,2.54-.74,3.77a7.77,7.77,0,0,1,0-3.15A.24.24,0,0,1,39.68,17.39Z"/><path class="cls-36" d="M43.54,12.3a.47.47,0,0,1,0,.17l-2.82.07a2.65,2.65,0,0,1-1-2.15,11.79,11.79,0,0,0-.47-3.12.34.34,0,0,1,.32,0c.45.21.61.66.88,1,.77,1.22,1.63,2.42,1.24,4.06Z"/><path class="cls-62" d="M40.45,8.24c-.53-.12-.67-.65-1-1,0-.8-.36-1.63.24-2.37Z"/><path class="cls-63" d="M39.67,4.91c-.45.75-.14,1.58-.24,2.37h-.18c.09-1-.26-2.09.23-3.09Z"/><path class="cls-64" d="M2.16,10.63v-.48c.65-.62,1.6,0,2.35-.58-.87-.63-1.59.22-2.35.1,0-.42,0-.84,0-1.27s.26-.67.72-.63a.74.74,0,0,0,.77.61c1.9,0,3.81.06,5.71-.05a.28.28,0,0,0,.26-.25c-.72-.54-1.74.1-2.43-.56A9.22,9.22,0,0,1,11,7l0,.72c-.07,0-.14.1-.15.18-.22,1.43-.22,1.42-1.68,1.45a12.45,12.45,0,0,0-3.22.26,20.2,20.2,0,0,0,3.47.19c.58,0,1.22-.12,1.59.54.14.77-.44.95-.95,1.2-.93-1-2.14-.52-3.23-.62S4.55,11,3.41,11A1.7,1.7,0,0,1,2.16,10.63Z"/><path class="cls-65" d="M6.93,10.63c.74,0,1.48,0,2.22,0s1,.28.9,1a2.07,2.07,0,0,0,.24,2.4c.33.62,0,.91-.56,1a3.71,3.71,0,0,1-2-.12,1,1,0,0,1-.36-1.17,14.9,14.9,0,0,0,.21-2.26c0,.12-.26.32-.11.26s.07,0,0,.11c-.15.5.3,1.11-.3,1.52-.66-.67-.27-1.54-.43-2.3A.66.66,0,0,1,6.93,10.63Z"/><path class="cls-66" d="M7.66,14.69c.62,0,1.24,0,1.85,0s.83-.15.78-.72a1.69,1.69,0,0,1,.92.74q.09.06.06.12c0,.05,0,.07,0,.07l-.22.26c-.58.49-1.29.27-1.95.33a9.28,9.28,0,0,0-3.29.31,12.44,12.44,0,0,0,4.23.12c.45-.07.87-.21,1,.43l0,.24a.92.92,0,0,0-.5.62c0,.12-.2.29-.3.29-.3,0-.2-.22-.21-.41,0-.74-.61-.48-1-.48-2.29,0-4.58,0-6.87,0v-1c.77.12,1.51.62,2.45.19-.76-.72-1.79,0-2.45-.66v-.49a1.39,1.39,0,0,1,1.13-.27,1.78,1.78,0,0,1,.39.07,15.65,15.65,0,0,0,3.62.07A.63.63,0,0,1,7.66,14.69Z"/><path class="cls-67" d="M11,10.38c-1.6-.49-3.24-.13-4.85-.22-.29,0-.79.36-.71-.34,0-.4,0-1,.71-.82,1.34.4,2.7-.24,4,.16.41.12.51-.13.43-.57,0-.26-.61-1,.37-.83C11,8.63,11,9.51,11,10.38Z"/><path class="cls-68" d="M12,12.6c0,.36-.07.62-.5.65s-.74-.1-.77-.54.21-.65.66-.65S12,12.18,12,12.6Z"/><path class="cls-69" d="M12.23,14.23a7.54,7.54,0,0,1-.32,2.11c-.77-.65-.42-1.39-.17-2.12C11.9,14.17,12.07,14,12.23,14.23Z"/><path class="cls-70" d="M11.92,9c.1.7.21,1.41.31,2.11C11.62,10.76,11.53,10.19,11.92,9Z"/><path class="cls-71" d="M11.22,14.91a1.21,1.21,0,0,0,0-.19l.27-.26c.31.7-.06,1.49.26,2.19a1.56,1.56,0,0,0-.26.91h-.23Z"/><path class="cls-72" d="M11.5,5.37c.07.64-.29,1.38.45,1.85-.27.08-.47.21-.49.53a4.48,4.48,0,0,1-.16-2.38.15.15,0,0,1,.09,0S11.46,5.36,11.5,5.37Z"/><path class="cls-73" d="M11.74,16.65c-.52-.68-.12-1.47-.26-2.19l.26-.24c.07.7-.23,1.44.17,2.12Z"/><path class="cls-74" d="M39.72,10.39c.28.75.92,1.32,1,2.15a.49.49,0,0,0,0,.24c-.25.62-.5,1.25-.76,1.87-.4-.25-.29.3-.51.33-.59.44.16,1.3-.53,1.71l-.19-.12a1.72,1.72,0,0,1-.32-1.26,1.56,1.56,0,0,0-.56-1.24,1.14,1.14,0,0,1-.46-1.25c.08-.3-.16-.57-.09-.87a.92.92,0,0,1,.11-.33,3,3,0,0,1,1.25-.85.39.39,0,0,1,.31.1C39.43,11,39.24,10.18,39.72,10.39Z"/><path class="cls-67" d="M38.76,15.17v1.4h-.24c-1.46,0-2.93.39-4.36-.21a.78.78,0,0,1-.28-.29c-.06-.34-.2-.69.12-1C35.59,14.88,37.19,14.51,38.76,15.17Z"/><path class="cls-67" d="M37.57,17.05c-.93.39-1.86.8-2.8,1.16-.38.14-.79.37-1.23.11l0-.06a1.15,1.15,0,0,1-.23-1.14,1,1,0,0,1,.9-.65,25.21,25.21,0,0,0,2.75,0C37.28,16.53,37.78,16.38,37.57,17.05Z"/><path class="cls-75" d="M39,16.69V14.25l.52.68c.33.34.18.69,0,1,.53.41,0,1,.19,1.42l-.19.17-.46,0Z"/><path class="cls-76" d="M37.57,17.05a2.11,2.11,0,0,0-2.73-.19c-.7.48-.36-.46-.64-.26a.33.33,0,0,1,0-.47,9.33,9.33,0,0,0,3.72.15c.32,0,.54-.1.59.29Z"/><path class="cls-77" d="M18,5.36c1.38-.44,2.81-.13,4.21-.22.66,0,1.33,0,2,0a.94.94,0,0,1,.06,1.27,2.48,2.48,0,0,1-1.62.3c-1.47,0-2.94.07-4.41.05C17.55,6.37,17.6,5.89,18,5.36Z"/><path class="cls-78" d="M24.16,6.33V5.11c0-.25,0-.49,0-.73a.41.41,0,0,1,0-.48l.06-.44.44.27.27.64c0,.32,0,.65,0,1,.15,1.52.07,3.05.07,4.57a1.77,1.77,0,0,1-.3,1.24.52.52,0,0,1-.73-.32A8.6,8.6,0,0,1,24.16,6.33Z"/><path class="cls-79" d="M16.27,5.38h.49a2.4,2.4,0,0,1,.11,2.28c-.13.23-.33.21-.55.18C15.64,7,16.25,6.2,16.27,5.38Z"/><path class="cls-80" d="M14.62,5.63l-.27,0,.5-.21h1.2a1.13,1.13,0,0,1,.12,1.07.35.35,0,0,1-.25.19c-.29-.29-.46-.09-.61.16C14.81,6.57,15.43,5.68,14.62,5.63Z"/><path class="cls-81" d="M16,6.58c0-.4,0-.8.05-1.2h.22c.55.79-.19,1.58,0,2.37C15.49,7.53,15.76,7.05,16,6.58Z"/><path class="cls-82" d="M18,5.36c.05.41-.16.86.23,1.2A.91.91,0,0,1,18,7.78l-.26,0a2.2,2.2,0,0,1,0-2.4Z"/><path class="cls-83" d="M16.78,7.72c0-.78,0-1.56,0-2.34a.6.6,0,0,1,.23,0,1.63,1.63,0,0,1,.32,1.19A1.67,1.67,0,0,1,17,7.76h0C16.9,7.85,16.83,7.84,16.78,7.72Z"/><path class="cls-84" d="M17.72,5.35l0,2.4h-.22c-.31-.36-.22-.79-.24-1.2s-.07-.84.24-1.2Z"/><path class="cls-85" d="M17.47,5.36v1.2a.32.32,0,0,1-.47,0V5.37Z"/><path class="cls-86" d="M24.12,3.9v.48l-.95-.08C23.18,3.43,23.76,3.94,24.12,3.9Z"/><path class="cls-87" d="M39,10.87h-.21C38.3,8.92,36.47,8.76,35,8.1c-.38-.18-.87-.13-1.12-.58A.48.48,0,0,1,34,7a10.69,10.69,0,0,1,3.74,1.39c.76.42,1,.26,1.24-.43C39,8.93,39,9.9,39,10.87Z"/><path class="cls-88" d="M34,7v.71c0,.4,0,.9-.57.81s-.24-.57-.27-.87c-.13.28.18.87-.34.88-.7,0-.22-.66-.39-.9s-.14-.1-.13-.09a1.72,1.72,0,0,1,.09,1.12.28.28,0,0,1-.33.1c-.47-.48,0-1.22-.47-1.72-.17-.28-.46-.23-.72-.24.2-.39.73-.09.95-.45l1.7.4Z"/><path class="cls-37" d="M16.28,15.18v-.95l0-1.42,2.85,0a2.79,2.79,0,0,1,2.17-.24,9.4,9.4,0,0,0,1.45.55c.71.4,1.45.76,1.68,1.65.09,1.38,0,2.77,0,4.15A1.22,1.22,0,0,1,24.14,20a9.08,9.08,0,0,1-3.74.14c-.74-.07-1.48-.14-2.22-.15h0A1.82,1.82,0,0,1,18,17.56c.4-.41.22-.63-.25-.76C18.19,15.38,18,15.18,16.28,15.18Z"/><path class="cls-89" d="M24.14,20l0-5.53a.4.4,0,0,1,.59.07,13.08,13.08,0,0,1,.18,4.41c0,.5-.25,1-.07,1.5-.08.24-.16.48-.23.72l-.65.23A2.78,2.78,0,0,0,24.14,20Z"/><path class="cls-53" d="M18,17.56A7.53,7.53,0,0,0,18.17,20l-.47,0c-.47-.53-.21-1.21-.35-1.8-.09-.12-.17-.12-.25,0-.13.59.11,1.24-.33,1.77h-.51c-.27-.67,0-1.32-.06-1.84-.16.49.06,1.18-.13,1.83h-.31c-.28-.32-.18-.71-.2-1.07,0,.3.07.66-.26.88h-.23l0-2.4C16.05,17.45,17,17.07,18,17.56Z"/><path class="cls-90" d="M15.3,19.73v-2h.38a7.5,7.5,0,0,1,.08,2.22A.42.42,0,0,1,15.3,19.73Z"/><path class="cls-91" d="M17,17.58h.51a5.42,5.42,0,0,1,0,2.37H17A5.69,5.69,0,0,1,17,17.58Z"/><path class="cls-92" d="M16.07,19.93v-2.2c.45.72.13,1.48.19,2.21A.59.59,0,0,1,16.07,19.93Z"/><path class="cls-93" d="M17,17.58c0,.79,0,1.58,0,2.36h-.21C16.83,19.15,16.52,18.33,17,17.58Z"/><path class="cls-94" d="M17.47,20c0-.79,0-1.58,0-2.37.45.75.13,1.58.22,2.37l-.11,0Z"/><path class="cls-95" d="M33.48,17.08l0,1.18c-.45.06-.67.66-1.2.52a3.28,3.28,0,0,1,.11-2.12C33,16.26,33.26,16.61,33.48,17.08Z"/><path class="cls-96" d="M32.53,16.66a4.38,4.38,0,0,1-.22,2.12l-.22.19c-.65-.72-.35-1.57-.31-2.38A.5.5,0,0,1,32.53,16.66Z"/><path class="cls-97" d="M31.86,16.65A4.69,4.69,0,0,0,32.09,19l-.49,0c0-.79,0-1.58,0-2.37A.19.19,0,0,1,31.86,16.65Z"/><path class="cls-98" d="M11,16.36c-.16-.1-.37-.33-.47-.28-1.42.6-2.88.23-4.32.13-.28,0-.77.17-.7-.48,0-.49.33-.56.73-.56H11C11,15.57,11,16,11,16.36Z"/><path class="cls-67" d="M7.18,7.52H9.55a.63.63,0,0,1,.71.63c0,.5-.32.55-.71.55H3.15c-.27,0-.59.07-.7-.29s.3-.42.42-.65C4.32,7.83,5.73,7.37,7.18,7.52Z"/><path class="cls-99" d="M3.36,14.69H2.16V10.63H3.35A5,5,0,0,1,3.36,14.69Z"/><path class="cls-67" d="M2.16,15.18H4.3c.4,0,.7.08.72.57s-.34.67-.78.62c-.74-.08-1.58.08-2.08-.71Z"/><path class="cls-67" d="M2.16,9.67A2.72,2.72,0,0,1,4.3,9a.62.62,0,0,1,.7.64c0,.5-.34.54-.72.54H2.16Z"/><path class="cls-100" d="M2.17,17.79h8.07v.26H2.17Z"/><path class="cls-101" d="M24.65,14.45h-.48l-1.44-1.19c.22-.31.58-.32.9-.42.12,0,.23,0,.34,0s.55.13.55-.18-.33-.23-.55-.21c-.43.17-.76.78-1.34.3-.16-1.25.25-1.75,1.53-1.89a.52.52,0,0,0,.48.24c.53-.06,1.08-.08,1.23-.75.4.68.13,1.42.22,2.13,0,.1,0,.21,0,.31-.11.64.16,1.33-.22,1.94C25.71,13.62,25.05,14.6,24.65,14.45Z"/><path class="cls-102" d="M25.87,10.36l-.06,1.27c-.5,0-.69-.6-1.17-.52.09-1.93-.2-3.86.27-5.77A13.91,13.91,0,0,1,25.87,10.36Z"/><path class="cls-103" d="M37.57,11.82v1a.12.12,0,0,1-.21,0v-.29a7,7,0,0,0-3.36,0h-.26c0-1.07,0-2.14,0-3.21a.2.2,0,0,1,.32,0,2.24,2.24,0,0,1,.23,1.25,4.35,4.35,0,0,0,0,.51.59.59,0,0,0,.21.42C35.52,11.72,36.63,11.16,37.57,11.82Z"/><path class="cls-104" d="M34,9.23h-.11l-.12,0-1.88-.06c-.32,0-.58-.11-.29-.5a.43.43,0,0,1,.52,0h.19a5.22,5.22,0,0,1,1.58-.1C34.14,8.75,34.46,8.92,34,9.23Z"/><path class="cls-105" d="M32.09,8.68h-.52c0-.55,0-1.1,0-1.65C32.33,7.42,31.93,8.13,32.09,8.68Z"/><path class="cls-106" d="M24.65,14.45l1.15-.8c0,.42.06.75.08,1.09a21.19,21.19,0,0,1-1,5.69c-.47-1.14-.13-2.33-.21-3.49C24.6,16.12,24.65,15.28,24.65,14.45Z"/><path class="cls-107" d="M31.86,16.65l-.28,0c-.31-.38-.07-.49.26-.5.63,0,1.27,0,1.9-.06a.14.14,0,0,1,.23,0l.24,0c0,.16,0,.32,0,.47l-.72.48c-.32-.13-.52-.54-.95-.42Z"/><path class="cls-108" d="M34,16.1h-.12l-.11,0a1.28,1.28,0,0,0,0-.19,9.75,9.75,0,0,1,0-3.05H34a1.19,1.19,0,0,1,.32.88,5.14,5.14,0,0,1,0,1,1.16,1.16,0,0,1-.27.5Z"/><path class="cls-109" d="M33.72,12.83c0,1,0,2,0,3.05-.5-1-.11-2-.22-3.05A.3.3,0,0,1,33.72,12.83Z"/><path class="cls-110" d="M34,13.74c0-.3,0-.61,0-.91l3.38-.05h.21A1.24,1.24,0,0,0,38.25,14a1,1,0,0,1,.51,1.16H34v-.48c.84-.62,1.85-.1,2.86-.44C35.86,13.78,34.8,14.39,34,13.74Z"/><path class="cls-111" d="M34,12.46a3.38,3.38,0,0,1,3.36,0Z"/><path class="cls-37" d="M24.16,10.87c-.79.39-1.56.8-1.42,1.89a.69.69,0,0,1-.83.17c-.83-.72-1.83-.31-2.76-.43l-2.86-.05c-.09-.46.2-1-.28-1.38.09-.43-.21-1.06.7-1s1.41-.56,1.23-1.54c.37-.24.12-.5,0-.74.08-.41.16-.81.23-1.22,2-.49,4-.13,6-.23Z"/><path class="cls-112" d="M19.15,12.5a2.07,2.07,0,0,1,2.64.28.17.17,0,0,1-.27,0l-2.36,0A2.53,2.53,0,0,0,19.15,12.5Z"/><path class="cls-113" d="M16.78,7.72l.21,0c-.57.46-1.25.14-1.87.23l.19-.24c.42-.29.07-.9.5-1.17H16c.12.39-.16.86.28,1.17Z"/><path class="cls-82" d="M17,6.56h.47c0,.4,0,.8,0,1.2H17Z"/><path class="cls-114" d="M15.81,6.58c-.16.39.31,1-.5,1.17v-1c.06-.35-.13-.75.21-1.1C15.94,5.9,15.73,6.29,15.81,6.58Z"/><path class="cls-115" d="M39.49,16c0-.35,0-.69,0-1s0-.64.33-.79l.19.51C39.89,15.12,40.05,15.68,39.49,16Z"/><path class="cls-116" d="M3.36,14.69c0-1.35,0-2.71,0-4.06H6.93a2,2,0,0,1,0,.23c-.09.26-.73.26-.28.79a1.5,1.5,0,0,1,.09,1.79c-.41.63,0,.73.39.93a.26.26,0,0,1,0,.33,13,13,0,0,1-3.58,0Z"/><path class="cls-117" d="M7.16,14.46c-.37-.06-.85.17-1.08-.23s.29-.6.46-.89c.47-.83.08-1.54-.61-2.12.33-.31.7-.27,1-.36.47.76.12,1.61.24,2.4A.88.88,0,0,1,7.16,14.46Z"/><path class="cls-118" d="M7.16,14.46l0-1.2c.52-.64,0-1.45.47-2.44v3.87H7.42a.37.37,0,0,1-.21-.25Z"/><path class="cls-119" d="M7.21,14.45l.21.25a6.54,6.54,0,0,1-3.82,0C4.8,14.54,6,14.89,7.21,14.45Z"/><path class="cls-120" d="M34,9.23c.24-.18.06-.36,0-.53a1.27,1.27,0,0,1,0-1.17h0c1.54.09,2.74,1.09,4.17,1.51,1,.3.45,1.21.62,1.83a2.65,2.65,0,0,1-1.21.73,12.77,12.77,0,0,1-3.6,0V11.1a11.76,11.76,0,0,1,2.18-.25c-.63-.16-1.47.49-2.18-.22Z"/><path class="cls-121" d="M39.15,13.37c-.34-.06-.61-.19-.61-.59s.24-.83.66-.82a.75.75,0,0,1,.7.78C39.88,13.17,39.49,13.26,39.15,13.37Z"/><path class="cls-122" d="M34,11.59h3.6a1.62,1.62,0,0,1,0,.22C36.38,11.69,35.15,12.11,34,11.59Z"/><path class="cls-105" d="M34,7.53V8.7l-1.7,0c0-.47,0-.94.07-1.46.37.35,0,.84.39,1.13.54-.2.07-.8.41-1.07.28.31-.09.8.31,1.08C33.91,8.25,33.59,7.66,34,7.53Z"/><path class="cls-123" d="M21.52,12.81l.27,0,.95,0c.7.29.63-.75,1.2-.7a.86.86,0,0,1-.21,1l-1,.23C22.27,13.26,21.79,13.32,21.52,12.81Z"/><path class="cls-124" d="M23.73,13a1.2,1.2,0,0,1,.21-1c.45.1,1.2-.08,1,.72S24.21,13.27,23.73,13Z"/><path class="cls-125" d="M34,10.63c.66.34,1.32,0,2,0,.48,0,1-.14,1.4.46H34Z"/><path class="cls-126" d="M34,13.74c.79,0,1.58,0,2.36,0s1,.2,1,1H34Z"/></g></g></svg>