<svg xmlns="http://www.w3.org/2000/svg" viewBox="0 0 55.98 46.11"><defs><style>.cls-1{fill:#8a412f;}.cls-2{fill:#f1f2f2;}.cls-3{fill:#9f4f35;}.cls-4{fill:#713322;}.cls-5{fill:#f4b564;}.cls-6{fill:#d1d3d4;}.cls-7{fill:#86332f;}.cls-8{fill:#9c4e35;}.cls-9{fill:#b4634d;}.cls-10{fill:#894230;}.cls-11{fill:#642f25;}.cls-12{fill:#472a24;}.cls-13{fill:#ee8139;}.cls-14{fill:#8e5244;}.cls-15{fill:#8b4230;}.cls-16{fill:#f4b663;}.cls-17{fill:#bd2226;}.cls-18{fill:#9d5037;}.cls-19{fill:#f3ba33;}.cls-20{fill:#784031;}.cls-21{fill:#b46a54;}.cls-22{fill:#b16954;}.cls-23{fill:#a65f45;}.cls-24{fill:#a7a29f;}.cls-25{fill:#9b9594;}.cls-26{fill:#a3a3a3;}.cls-27{fill:#7a3b26;}.cls-28{fill:#9f5a56;}.cls-29{fill:#a4a4a4;}.cls-30{fill:#a6a5a6;}.cls-31{fill:#d9cbc5;}.cls-32{fill:#a5a3a1;}.cls-33{fill:#e39059;}.cls-34{fill:#a16048;}.cls-35{fill:#82452c;}.cls-36{fill:#a76132;}.cls-37{fill:#f2b354;}.cls-38{fill:#f1e2cf;}.cls-39{fill:#9e9d9d;}.cls-40{fill:#5d473f;}.cls-41{fill:#a1583f;}.cls-42{fill:#a6a6a6;}.cls-43{fill:#a2a2a2;}.cls-44{fill:#9e634c;}.cls-45{fill:#b46f5a;}.cls-46{fill:#9e9fa0;}.cls-47{fill:#9f5c4e;}.cls-48{fill:#a46244;}.cls-49{fill:#8d4836;}.cls-50{fill:#a15f36;}.cls-51{fill:#f2b251;}.cls-52{fill:#a29d9c;}.cls-53{fill:#9e4e35;}.cls-54{fill:#b5634d;}.cls-55{fill:#bd7943;}.cls-56{fill:#c47538;}.cls-57{fill:#b06048;}.cls-58{fill:#b4644b;}.cls-59{fill:#c67638;}.cls-60{fill:#c16e36;}.cls-61{fill:#bb8a4d;}.cls-62{fill:#522a20;}.cls-63{fill:#391a18;}.cls-64{fill:#3a1e17;}.cls-65{fill:#f3e8e2;}.cls-66{fill:#f4b96c;}.cls-67{fill:#f5eae4;}.cls-68{fill:#f2decf;}.cls-69{fill:#f3e8e0;}.cls-70{fill:#f4e4d9;}.cls-71{fill:#b06643;}.cls-72{fill:#e48647;}.cls-73{fill:#e48446;}.cls-74{fill:#ecc7ae;}.cls-75{fill:#e8813c;}.cls-76{fill:#ec8847;}.cls-77{fill:#ed8849;}.cls-78{fill:#e8d2c0;}.cls-79{fill:#eaded1;}.cls-80{fill:#e3d0bc;}.cls-81{fill:#9f4e32;}.cls-82{fill:#f6eee5;}.cls-83{fill:#f5e7db;}.cls-84{fill:#f7f2ee;}.cls-85{fill:#f7ebde;}.cls-86{fill:#f9ece3;}.cls-87{fill:#a45d3f;}.cls-88{fill:#fbf8f3;}.cls-89{fill:#faf3ed;}.cls-90{fill:#f9f4ef;}.cls-91{fill:#f0dece;}.cls-92{fill:#c46d36;}.cls-93{fill:#eab032;}.cls-94{fill:#e7884c;}.cls-95{fill:#e68c4b;}.cls-96{fill:#ea8b4d;}.cls-97{fill:#e6874e;}.cls-98{fill:#c17248;}.cls-99{fill:#e28a50;}.cls-100{fill:#e28950;}.cls-101{fill:#833a1f;}.cls-102{fill:#e7945c;}.cls-103{fill:#e99661;}.cls-104{fill:#e58b51;}.cls-105{fill:#f6eadf;}.cls-106{fill:#c47038;}.cls-107{fill:#f0ebe6;}.cls-108{fill:#e8d7c8;}.cls-109{fill:#7f3e24;}.cls-110{fill:#904b33;}.cls-111{fill:#824124;}.cls-112{fill:#914832;}.cls-113{fill:#a35732;}.cls-114{fill:#c76f2f;}.cls-115{fill:#cb6f2e;}.cls-116{fill:#92472b;}.cls-117{fill:#8b432a;}.cls-118{fill:#452116;}.cls-119{fill:#a04f37;}.cls-120{fill:#cd722d;}.cls-121{fill:#b86447;}.cls-122{fill:#df7b30;}.cls-123{fill:#be824c;}.cls-124{fill:#76c4ca;}.cls-125{fill:#78c2c7;}.cls-126{fill:#6bc3ce;}.cls-127{fill:#6fceec;}.cls-128{fill:#76b4ad;}.cls-129{fill:#d87029;}.cls-130{fill:#6bbbc5;}.cls-131{fill:#934b36;}.cls-132{fill:#c17339;}.cls-133{fill:#65c0cb;}.cls-134{fill:#bc8652;}.cls-135{fill:#89b5ac;}.cls-136{fill:#9e9d7d;}.cls-137{fill:#82afa8;}.cls-138{fill:#84b9b6;}.cls-139{fill:#6ac4c1;}.cls-140{fill:#71c5d3;}.cls-141{fill:#bf733a;}.cls-142{fill:#8db6ae;}.cls-143{fill:#6cada7;}.cls-144{fill:#f2672a;}.cls-145{fill:#3f3b39;}.cls-146{fill:#5f5152;}.cls-147{fill:#9a9396;}.cls-148{fill:#381f1d;}.cls-149{fill:#472a21;}.cls-150{fill:#474342;}.cls-151{fill:#442a26;}.cls-152{fill:#91522e;}.cls-153{fill:#9a9597;}.cls-154{fill:#4a4745;}.cls-155{fill:#949698;}</style></defs><g id="Layer_2" data-name="Layer 2"><g id="Layer_1-2" data-name="Layer 1"><path class="cls-1" d="M40.79,39.22c-3.26,4-7.6,5.64-12.65,5.72a3,3,0,0,0-1.29-.1H11.9a3.36,3.36,0,0,1-1.3-.08l-.4-.7c-.16-.2-.42-.31-.51-.58a1.45,1.45,0,0,1,0-1.36,2.43,2.43,0,0,1,1.83-.37c5.06,0,10.12,0,15.17,0,3.95,0,7.59-.77,10.69-3.36a1.41,1.41,0,0,1,.42-.22c.15,0,.35-.07.43.09a1.61,1.61,0,0,0,2.18.79A.39.39,0,0,1,40.79,39.22Z"/><path class="cls-2" d="M6.62,16.48h.11a54.22,54.22,0,0,1,8.92,0c.58,1,1.39,1.87,1.46,3.1a.34.34,0,0,0-.05.11c.5,2.17-1,3.07-2.5,4A11.46,11.46,0,0,1,9,25.09H7.13C9.27,21.45,9.07,18.24,6.62,16.48Z"/><path class="cls-3" d="M5.62,35.4c-.42-.46-1-.31-1.46-.26-.89.09-1.37-.2-1.43-1.11a8.86,8.86,0,0,0,.17-2.62c-.75-1.62-.75-1.68.4-2.64a.65.65,0,0,1,.52.13.89.89,0,0,1,.27.69,4.62,4.62,0,0,0-.27,1.61c0,2.5-.25,2.19,2.21,2.18.67,0,.66-.52.74-1s-.08-1,.55-1.13c.38.34.3.8.32,1.23s0,.83.58.87,1.22-.08,1.83,0,1,0,1.48,0a7.29,7.29,0,0,0,1.4,0h.77a7.89,7.89,0,0,1,2.65.17c.56.83,1.55,1.52.87,2.74a17.06,17.06,0,0,1-3.91.16c-1.55,0-3.11,0-4.66,0-.37,0-.75,0-1.13,0-.59-.06-.64-.81-1.19-.92C6.09,35.53,5.86,35.44,5.62,35.4Z"/><path class="cls-4" d="M9.75,44.05c-.45,1.59-1.08,2.09-2.58,2.06a2.76,2.76,0,0,1-3-2.22C4,43,3.72,42.05,3.5,41.13c-.47-1.94,0-2.59,2-2.62l.59,0c.47-.61,1-1.1,1.42,0,.15.46.33.92-.14,1.32a1.23,1.23,0,0,1-.6.14h.58c.82,0,.91.83,1.38,1.22a2.45,2.45,0,0,1,.66,1.63c-.1.57-.35,1-1,1.09a2.74,2.74,0,0,0-1-.11,5.11,5.11,0,0,1,.55,0C8.52,44.23,9.21,43.6,9.75,44.05Z"/><path class="cls-5" d="M12.22,25.41c.28.68.89.47,1.34.41,1.2-.17,1.77.35,2.17,1.45.72,2,1.58,3.88,2.38,5.81a4.18,4.18,0,0,0,.76,1.33,1,1,0,0,1-.74.38.6.6,0,0,1-.32-.07c-.45-.5-.64-1.16-1.06-1.68a3.06,3.06,0,0,1-.32-.77,6.54,6.54,0,0,0-.53-1.73A6.15,6.15,0,0,0,15.09,29c-.12-.25-.19-.51-.29-.77s-.15-.83-.53-1.13c-.35.21-.14.67-.41.91-.6.17-.5-.74-1-.66A.88.88,0,0,0,12,27l-.61.06c-.58.05-.41.67-.71.92a.44.44,0,0,1-.32,0,1.28,1.28,0,0,1-.17-.3c-.11-.29.06-.79-.49-.76s-.42.39-.5.68a1,1,0,0,1-.15.31c-.37.22-.44-.1-.54-.33s-.11-.53-.45-.58a6.12,6.12,0,0,0-1.6,0,5.51,5.51,0,0,1-.71.06H4.27c-.25,0-.51,0-.76,0A5.33,5.33,0,0,1,2,27c-.25-.3-.65.06-.91-.21a4.41,4.41,0,0,1-.81-.13A.48.48,0,0,1,0,26.32c-.06-.23.13-.38.33-.41a5,5,0,0,1,.94-.07l9.65,0A2.44,2.44,0,0,1,12.22,25.41Z"/><path class="cls-6" d="M9,25.09a6,6,0,0,1,2.18-.43,10.71,10.71,0,0,0,5.37-2.84,1.23,1.23,0,0,0,.35-.95c0-.42-.15-.88.2-1.26A5,5,0,0,1,17.18,22c-.46,2.49-1.26,3.17-3.76,3.16l-1.07,0a1.28,1.28,0,0,1-1.45,0Z"/><path class="cls-7" d="M10.6,44.75l16.66,0c.31,0,.64-.06.88.22L19.4,45c-.44,0-.87,0-1.3.06-2.14,0-4.28,0-6.42-.07C11.32,45,10.87,45.2,10.6,44.75Z"/><path class="cls-8" d="M3.27,28.93c-.65.72-1,1.44,0,2.17a2,2,0,0,1-1.66,0A10.71,10.71,0,0,1,.65,28.7a5.88,5.88,0,0,1,1.86-.25C2.82,28.42,3.27,28.38,3.27,28.93Z"/><path class="cls-9" d="M1.59,31.09H3.25c-.14,1,.43,2.09-.52,2.93A14.79,14.79,0,0,1,1.59,31.09Z"/><path class="cls-10" d="M3.27,28.93c-.82-.65-1.78.27-2.62-.23-.32-.41-.14-.56.31-.55a2.25,2.25,0,0,1,1.14-.26c.46,0,.91,0,1.37,0s.65,0,1,0a11.42,11.42,0,0,1,1.17,0c.33,0,.66.07.81.43-.7,1.08-1.72.7-2.69.59Z"/><path class="cls-11" d="M7.34,38.51c-.4-1-.84,0-1.26,0,.51-.63.21-1.25,0-1.87-.15-.4-.28-.81-.42-1.21.21-.38.46-.17.71,0a5.13,5.13,0,0,1,1.31,3.06A.2.2,0,0,1,7.34,38.51Z"/><path class="cls-12" d="M9.75,44.05C9.18,44,8.6,44.5,8,44a.31.31,0,0,1,.26-.27,1.36,1.36,0,0,0,.89-.94c.33.17.48.53.79.73l.22.51Z"/><path class="cls-13" d="M2,28.15H1c.26-.43.11-.91.16-1.37.25.08.5-.25.74,0A1.25,1.25,0,0,1,2,28.15Z"/><path class="cls-14" d="M10.9,25.16l1.45,0-.13.27c-.24.74-.83.35-1.29.39Z"/><path class="cls-2" d="M18.06,16.29c-.46-.41-.72-1-1.26-1.5,2.1,0,4.21,0,6.31,0,.38,0,1.15.26.71-.67a.87.87,0,0,1,1.31.05c-.09.57.24.65.71.64a26.87,26.87,0,0,0,3,0,2.36,2.36,0,0,1,2.57,1.31,9.32,9.32,0,0,1,1.76,5.69,5.59,5.59,0,0,1-2.59,3,17,17,0,0,1-10,3.55,1,1,0,0,0-.58.1H17a10.85,10.85,0,0,0,2.47-4.76,10,10,0,0,0-1.44-7.38,24.33,24.33,0,0,1,4.39-.11A25.3,25.3,0,0,0,18.06,16.29Z"/><path class="cls-2" d="M36.53,27.24h-1.8a6.38,6.38,0,0,0,.34-8.1c0-.29.16-.35.39-.37,2.44,0,4.89.05,7.33,0,.32-.05.52.16.72.34a4.67,4.67,0,0,1,1.36,3.14,3.42,3.42,0,0,1-2,3.08A13.19,13.19,0,0,1,36.53,27.24Z"/><path class="cls-15" d="M16.66,32.36,17,33c.38.62.48,1.39,1,1.92a1.3,1.3,0,0,1,.32.34,1,1,0,0,0,1,.52h4.55a8,8,0,0,0,1.61-.14,3.41,3.41,0,0,1,.9.11c.42,0,.84,0,1.26,0H30a3.56,3.56,0,0,0,1.17-.11,3,3,0,0,0,2.06-2A3.79,3.79,0,0,1,34,32.21a2,2,0,0,1,.58-.32c.25-.1.5-.18.75-.29.54-.24,1.1-.42,1.64-.67.3-.11.62-.14.91-.27s.54-.32.84-.45.73-.13,1.08-.25.51-.15.75-.25.76-.38,1.16-.52l.76-.26c.52-.15,1-.44,1.49-.64a1.51,1.51,0,0,1,.67-.08c.76.13.73.6.49,1.16-.63,1.32-.62,2.83-1.19,4.17a6.24,6.24,0,0,1-1,2.21c-1.42.43-1.8.12-1.54-1.27a.7.7,0,0,0-.15-.55A1.75,1.75,0,0,1,41,33.5a.52.52,0,0,1,0-.3c.19-.18.46-.24.63-.44.38-.66-.25-.94-.51-1.36s-.39-.46-.83-.28c-1,.39-2,.67-3,1.1a4.61,4.61,0,0,0-3.4,2.8c-.74,1.73-2.47,2.09-4.21,2.12-2.3,0-4.6,0-6.9,0a9.59,9.59,0,0,1-2.83,0c-.6,0-1.2,0-1.79-.09s-.91-.35-.83-1l-1-2.42c-.94-.61-.89-1.77-1.45-2.58-.94-2.05-.93-2-3.29-1.91-.65,0-1.5.31-1.76-.72.27-.41.8-.17,1.13-.44a2.67,2.67,0,0,1,1.4-.15l.55,0c.32,0,.61.25.94.1a1.16,1.16,0,0,1,1.16.2l.19.72c.28.55.5,1.12.76,1.68A13.33,13.33,0,0,1,16.66,32.36Z"/><path class="cls-2" d="M22.41,14.09l-1.34.06c1.59-2.23,1.82-4.37.14-6.5,0-.58.56-.29.82-.47a22.57,22.57,0,0,1,5.63.09c.38,0,.39.35.51.6A4.15,4.15,0,0,1,29.08,11,8.19,8.19,0,0,1,23,14,.88.88,0,0,0,22.41,14.09Z"/><path class="cls-2" d="M43,13.86v.48a3.42,3.42,0,0,1-3.42,3.13c-.4,0-.82.26-1.28,0,.17.16.54.09.39.45H36.5a4.65,4.65,0,0,0,1-3A3.32,3.32,0,0,0,36,12.18h2.15c.63.27,1.17-.21,1.76-.22a5.24,5.24,0,0,1,1.53-.06,1.3,1.3,0,0,1,1,.79h0A1.66,1.66,0,0,1,43,13.86Z"/><path class="cls-6" d="M20,28.43c.75-.44,1.6-.22,2.41-.42,3.5-.88,6.81-2.1,9.4-4.75.47-.47.88-1,1.32-1.5A9.08,9.08,0,0,1,30.91,28a1.37,1.37,0,0,1-1.23.51c-1.47,0-2.93,0-4.4,0a2.21,2.21,0,0,1-.34.18,1.29,1.29,0,0,1-1.11-.19Z"/><path class="cls-16" d="M34.09,32.34l-.66,1.35a3.88,3.88,0,0,1-2.65,1.7,3.82,3.82,0,0,1-.68.07,1.56,1.56,0,0,0-1.51.62l-.09,0-.09,0c-.28-.2-.38-.64-.84-.6a1.37,1.37,0,0,0-1.35.6l-.7-.2a1.9,1.9,0,0,0-1.65-.41c-.42,0-.49.44-.76.62l-.08,0-.09,0a.7.7,0,0,1-.29-.74c.05-.39.33-.56.64-.7a.39.39,0,0,0,0-.24l.54-.19a1,1,0,0,1,1.42,0l.48.2a10.44,10.44,0,0,0,3.86,0,3.51,3.51,0,0,0,3.77-3.35c.07-.57.48-.68.88-.84l4.4-1.8a1.06,1.06,0,0,1,1.08-.75,3.6,3.6,0,0,0,1.58-.58,18.62,18.62,0,0,1,2.91-1c.37.13.9-.29,1.13.27.15.37-.33.46-.48.7a1.69,1.69,0,0,1-.81.53c-.49.18-1,.4-1.47.57a3.85,3.85,0,0,0-.81.41,4.83,4.83,0,0,0-1.6.55,4.11,4.11,0,0,1-.73.29,4.79,4.79,0,0,0-.74.21,8.52,8.52,0,0,0-1,.47,5.16,5.16,0,0,1-.73.31,13.18,13.18,0,0,0-1.6.67,2.56,2.56,0,0,0-.72.25C34.35,31.56,34.3,32,34.09,32.34Z"/><path class="cls-17" d="M19.76.94C19.63,0,20.3.1,20.82.17a8.21,8.21,0,0,1,1.45.48A1.59,1.59,0,0,0,24,.53c.25-.22.35-.74.82-.44s.29.68.21,1.08c-.68.32-.4.64,0,1l0,.74a1.22,1.22,0,0,0-.62,1.27,1.85,1.85,0,0,1-.13.7,1,1,0,0,1-1.35.44c-.89-.44-1.7-1.1-2.83-.8-.41.1-.44,0-.31-1.14A4.39,4.39,0,0,0,19.76.94Z"/><path class="cls-6" d="M44.22,26.06a7.53,7.53,0,0,1-2.87,1.25,6.24,6.24,0,0,1-1.48.28,1.92,1.92,0,0,1-1.26-.28l-2.08-.07A24.06,24.06,0,0,0,40.79,26a10.94,10.94,0,0,0,3.42-2.2c.44-.51.28-1.14.66-1.6A6.24,6.24,0,0,1,44.22,26.06Z"/><path class="cls-18" d="M45.13,29.37c-.28-.26.23-.93-.51-.94,0-.39.26-.35.51-.34,2.68-.73,5.18-1.92,7.8-2.8a6,6,0,0,1,2-.64.35.35,0,0,1,0,.49l-.28.38A49.31,49.31,0,0,1,49.3,28a15.57,15.57,0,0,1-2.65,1Z"/><path class="cls-19" d="M41.32,33.69c.32.19.71.49.44.82-1.19,1.45.14,1.05.8,1.16l.34.08c.14.27,0,.47-.2.64s-.86-.15-1.06.39a1.84,1.84,0,0,0,.11,1.09c.53.52.66-.31,1-.3.65.18.88.4.24,1a1.52,1.52,0,0,1-1.84.21c-1.39.64-1.7.58-2.62-.47-.05-.65.23-.9.87-.71.28.1.42.57.75.43s.14-.61.16-.93c-.11-.78-1.11-.2-1.31-.85s.38-.67.79-.76a.69.69,0,0,0,.65-.65A6.06,6.06,0,0,1,41.32,33.69Z"/><path class="cls-6" d="M22.41,14.09c1.36-.44,2.73-.8,4.05-1.36,1-.43,1.57-1.44,2.62-1.73a4.7,4.7,0,0,1-.08.92c-.44,1.78-1,2.22-2.81,2.22l-1.06,0-1.31-.05Z"/><path class="cls-6" d="M38.67,17.94c.34-.19-1.26-.28,0-.54a16.39,16.39,0,0,0,2.56-.77A2.92,2.92,0,0,0,43,14.34a3.26,3.26,0,0,1-.11,2.22c-.44,1.67-1.8,1.33-3,1.37a.89.89,0,0,1-1.21,0Z"/><path class="cls-2" d="M47.87,28.94a19.42,19.42,0,0,0,6.58-3.11.49.49,0,0,1-.09.65,7.85,7.85,0,0,1-5.61,2.74C48.39,29.25,48.18,29,47.87,28.94Z"/><path class="cls-20" d="M38.67,17.94h1.21c-.1.58.32.52.67.53.67,0,1.35,0,2,0,.51,0,.84.12.94.65L43,18.89a52.79,52.79,0,0,1-7.65,0l-.26.25-.65-.42,0-.26c1.14,0,2.29,0,3.44,0C38.23,18.45,38.76,18.63,38.67,17.94Z"/><path class="cls-21" d="M39.93,12.18a1.71,1.71,0,0,1-1.76,0c.14-.12.71,0,.31-.41-.24-.22-.82-.1-.77-.65s.76-.25,1-.63a1.44,1.44,0,0,1,.73-.36c.56-.05.77.55,1.24.66a.88.88,0,0,1,.25.22C41.13,11.86,40.3,11.82,39.93,12.18Z"/><path class="cls-22" d="M22.9,5.29l1.18-.52a.67.67,0,0,1,.93,0,.5.5,0,0,0,.56.48c.31,0,.56.15.57.48s-.26.55-.62.56a1.79,1.79,0,0,1-1.95,0C22.89,6.26,22.92,5.76,22.9,5.29Z"/><path class="cls-23" d="M25.26,34.21H23.84l0-.26c.48-1.1,0-2.28.29-3.4.18-.29.4-.38.7-.15.1,1.14,0,2.28.05,3.41a25.8,25.8,0,0,0-.1-3.62,1.67,1.67,0,0,1,.23-1.68.31.31,0,0,1,.23,0C25.27,30.41,25.27,32.31,25.26,34.21Z"/><path class="cls-24" d="M23.57,6.27h1.95c.57.66,1.5.41,2.16.84-.3.3-.68.18-1,.15a35.1,35.1,0,0,0-4.7,0,.4.4,0,0,1-.37-.17,1,1,0,0,0,.1-.18C22.35,6.78,23.08,6.85,23.57,6.27Z"/><path class="cls-25" d="M39.38,10.32c-.18.24-.43.2-.68.17,0-1.54,0-1.54-2.4-1.69,0-.21,0-.34.25-.22.79-.21,1.83.52,2.34-.65a.86.86,0,0,0,.81.2l.37,1.18A8.58,8.58,0,0,1,39.38,10.32Z"/><path class="cls-26" d="M47,18.46a3.45,3.45,0,0,0-.26-.28c-.61-.73-1.23-1.45-1.85-2.17a.35.35,0,0,1,.21-.23l5.36,5.46a.2.2,0,0,1-.33,0Z"/><path class="cls-27" d="M38.67,38.25a2.22,2.22,0,0,0,2.51.49l-.39.48c-.8.13-1.58.52-2.39-.12-.38-.29-.4-.5-.21-.84-.13-.18-.14-.4.08-.45S38.52,38.12,38.67,38.25Z"/><path class="cls-28" d="M22,7.19c1.9-.46,3.81,0,5.71-.07l.23.06a.14.14,0,0,1,0,.24l-5.95-.07c-.06-.06-.08-.1,0-.13A.11.11,0,0,1,22,7.19Z"/><path class="cls-29" d="M27.88,7.42l0-.24L32.13,8a6.7,6.7,0,0,1-2.89-.19c-.36,0-.73-.37-1.07,0C27.91,7.83,27.93,7.6,27.88,7.42Z"/><path class="cls-30" d="M36.55,8.58l-.25.22-3.47-.29,0-.37A28.64,28.64,0,0,1,36.55,8.58Z"/><path class="cls-31" d="M39.38,10.32c.08-.44-.12-1.07.69-1l.29.22c0,.46.86.79.24,1.37C39.9,11.32,39.92,10.24,39.38,10.32Z"/><path class="cls-32" d="M40.6,10.9c.48-.55-.55-.85-.24-1.37a14.33,14.33,0,0,1,2.12,3.16c-.31-.17-.49-.56-.91-.53-.4-.3-.48-.78-.71-1.17Z"/><path class="cls-33" d="M45.13,28.09l-.51.34-.65,0c-.4-.36-.27-.76-.09-1.16l1-.27C44.93,27.39,44.78,27.8,45.13,28.09Z"/><path class="cls-34" d="M24.09,4C24,3.37,24,2.72,25,2.88c0,.39,0,.78,0,1.18A.62.62,0,0,1,24.09,4Z"/><path class="cls-35" d="M41.33,36.59c.33-.92.91-.18,1.37-.2-.1.32-.49.51-.44.91a.32.32,0,0,1-.27.13C41.53,37.34,41.55,36.87,41.33,36.59Z"/><path class="cls-36" d="M25,2.14c-.44,0-.95.09-.86-.61s.43-.59.87-.36Z"/><path class="cls-20" d="M38.61,27.31h1.3a.5.5,0,0,1,0,.66,1.59,1.59,0,0,0-1.26.46C38.63,28.05,38.62,27.68,38.61,27.31Z"/><path class="cls-37" d="M29.6,34.41a5.94,5.94,0,0,1-3.86,0Z"/><path class="cls-38" d="M42.09,37.34l.17,0a.57.57,0,0,0,.52.27c-.36.3-.26,1.56-1.23.58A.78.78,0,0,1,42.09,37.34Z"/><path class="cls-39" d="M43,13.86a2.71,2.71,0,0,1-.49-1.17,6.38,6.38,0,0,1,1.57,1.86.2.2,0,0,1-.32,0C43.48,14.34,43.36,14,43,13.86Z"/><path class="cls-40" d="M24.09,4l.9,0,0,.7h-.93Z"/><path class="cls-41" d="M55,25.14l0-.49c.22-.4.58-.34.93-.29a.32.32,0,0,1,.11.27C55.77,25,55.36,25.08,55,25.14Z"/><path class="cls-42" d="M50.17,21.28l.33,0L52,22.32C51.1,22.36,50.72,21.69,50.17,21.28Z"/><path class="cls-43" d="M43.73,14.58l.32,0,1.09,1.23-.21.23Z"/><path class="cls-44" d="M39.7,8.13c-.09.2-.16.44-.46.41s-.3-.37-.35-.61C39.26,7.6,39.54,7.65,39.7,8.13Z"/><path class="cls-17" d="M19.76.94a2.6,2.6,0,0,1,0,2.41A9.26,9.26,0,0,1,19.76.94Z"/><path class="cls-2" d="M11,15.78H8.16a5.09,5.09,0,0,0,.35-6.45C9,8.86,9.55,9,10.09,9c1.42-.11,2.87.23,4.27-.23a.71.71,0,0,1,.62.05c.45.87,1.16,1.61,1.17,2.67.15,1.57-.85,2.36-2,3s-2.62,1.38-4.2.87c.44.16.93-.15,1.3.28C11.18,15.79,11.1,15.84,11,15.78Z"/><path class="cls-6" d="M11.17,15.73c-.41-.42-1,0-1.38-.28,2.64-.46,5.37-.8,6.36-4A4,4,0,0,1,16.22,13c-.21,2-1,2.73-3,2.74-.36,0-.71,0-1.07.05C11.81,16,11.47,16.09,11.17,15.73Z"/><path class="cls-45" d="M11.87,3.85c.47.72.14,1.53.23,2.28.06.48-.17,1,.67,1.08.48,0,.52.51.26.92A2.62,2.62,0,0,1,10.27,8c-.38-.68-.37-.7.84-.9.64-.27.38-.86.45-1.32C11.65,5.13,11.38,4.43,11.87,3.85Z"/><path class="cls-46" d="M10.27,8A8.27,8.27,0,0,0,13,8.13c.67,0,1.34,0,2,0s1.33-.11,2.18-.19c-.58.62-1.16.37-1.65.47-.26.06-.72-.18-.58.42l-.48.09a1.19,1.19,0,0,1-.35.15,12.92,12.92,0,0,1-1.76,0c-.48-.18-1.06,0-1.46-.44C10.86,8.23,10.23,8.47,10.27,8Z"/><path class="cls-47" d="M11.17,15.73l1,.07c0,.66.51.43.87.48.87.13,1.79-.27,2.63.23l-8.92,0c1.11-.42,2.26-.1,3.39-.2.35,0,.87.19.84-.5A.65.65,0,0,1,11.17,15.73Z"/><path class="cls-48" d="M11.87,3.85c0,.87,0,1.73,0,2.59,0,.49,0,1-.76.65,0-.9,0-1.8,0-2.7C11.14,3.88,11.25,3.5,11.87,3.85Z"/><path class="cls-49" d="M25.05,28.51l0,1.63a.63.63,0,0,1-.23.23.5.5,0,0,0-.48.24c-.26.15-.33-.06-.43-.22l-.06-1.89Z"/><path class="cls-2" d="M14.24,8.9h.26c-.13.58-.6.41-1,.41-1.67,0-3.35,0-5,0-.32-.06-.7-.08-.29-.53a.53.53,0,0,1,.41,0C10.5,8.78,12.37,9,14.24,8.9Z"/><path class="cls-50" d="M23.89,30.39l.43.22c0,.81,0,1.62,0,2.43,0,.36.13.81-.44.91Z"/><path class="cls-51" d="M23.3,34.4l.54.27a16.2,16.2,0,0,1-4.76.33,1.17,1.17,0,0,1-1-.34c.18-.28.5-.19.76-.25Z"/><path class="cls-52" d="M22,7.19a.42.42,0,0,0,0,.16c-.26.05-.58,0-.72.3l-2,.18a4.49,4.49,0,0,1,2.4-.72Z"/><path class="cls-45" d="M8.57,9,8.23,8.8c.88-.33,1.81,0,2.7-.19.5.08,1.05-.14,1.5.24A27.61,27.61,0,0,1,8.57,9Z"/><path class="cls-53" d="M38.67,38.25c-.16.21-.32-.79-.48,0a16.78,16.78,0,0,1-6.34,3.32,14.82,14.82,0,0,1-3.62.49c-5.73,0-11.46,0-17.2,0-.45,0-1-.18-1.34.27-.69-.44-.8-1.25-1.15-1.9a7.06,7.06,0,0,1-.21-.91,1.07,1.07,0,0,1,.05-.4c.63-.69,1.5-.42,2.24-.46a33,33,0,0,1,5.71.06,3.8,3.8,0,0,1,1.27.34c.5.38,0,1.28.54,1.44a6.18,6.18,0,0,0,2.35.21c.44,0,.87.06,1.3,0h.33a3.13,3.13,0,0,0,2-.22c.69,0,1.11-.28,1.12-1a.73.73,0,0,1,.3-.6.94.94,0,0,1,1,.27c.47.38-.16,1.2.47,1.41a3.41,3.41,0,0,0,2.39-.15c.55-.36.25-1.06.61-1.49a3.88,3.88,0,0,1,1.75-.7A6.92,6.92,0,0,0,37,32.9a3.4,3.4,0,0,1,.47-1.09c1-.5,2.14-.58,3.12-1.17.71-.43.47.44.72.67-.18.34-.8.24-.79.77a.89.89,0,0,0,.35.78.67.67,0,0,1,.2.42.91.91,0,0,0,0,.17c-.14.43-.44.78-.62,1.19-.66,0-.25.7-.57.93-.08.41-.81-.06-.75.54-.25.58.34.78.54,1.15s0,.41-.27.51C38.89,37.53,38.61,37.64,38.67,38.25Z"/><path class="cls-54" d="M17.61,39.21A1.94,1.94,0,0,1,16.43,39a.71.71,0,0,1-.22-.27c-.51-1.55-.51-1.55-2.13-1.55-1.15,0-2.3.07-3.44,0A2.27,2.27,0,0,0,8.2,38.31c-.43,0-.54-.31-.61-.65a2.1,2.1,0,0,1,.7-1.54h9.09a1.55,1.55,0,0,0,.73.72,2.65,2.65,0,0,0,1.9,0c.81.37,1.62,0,2.43,0,2.38,0,4.76,0,7.14,0,2.58,0,3.69-.7,4.62-3a1.68,1.68,0,0,1,1.17-1.17c.72-.21,1.41-.52,2.11-.79-.24,3.52-2.39,5.9-6.26,6.9-.39.1-.77.18-1.16.26a.73.73,0,0,1-.2-.26c-.15-.45,0-1.08-.67-1.25a4.15,4.15,0,0,0-2.54.21c-.46.18-.08.7,0,1.07a.5.5,0,0,1-.17.46l-.9-.2c-.4-.31-.3-.75-.31-1.16a2.15,2.15,0,0,0-2.71-.06c-.13.54,0,1.2-.64,1.5-.26,0-.54.09-.78-.1-.36-.36.09-1.13-.64-1.3a13.34,13.34,0,0,0-2,0c-.44.15-.28.83-.8.9-.13,0-.13-.19-.24-.24,0,.16.1.25.2.35A.26.26,0,0,1,17.61,39.21Z"/><path class="cls-55" d="M6.14,33.69c-2.66.06-2.65.06-2.65-2.64A2.24,2.24,0,0,1,4,29.42a1.41,1.41,0,0,1,2.29.7,3.21,3.21,0,0,1,.17,1.15C6.33,32.07,6.56,32.92,6.14,33.69Z"/><path class="cls-54" d="M15.23,31.06l1.18,2.64H13.55a.55.55,0,0,1-.14-.48c.05-.29.14-.57.21-.86.17-.46,0-1,.46-1.4A1.13,1.13,0,0,1,15.23,31.06Z"/><path class="cls-8" d="M6.16,31.33c-.1-1.8-.67-2.3-2.16-1.91a.51.51,0,0,1-.26-.49c.85-.4,1.86,0,2.69-.49a.43.43,0,0,1,.29-.07,2,2,0,0,1,.9.26,1.72,1.72,0,0,1,.31.72.81.81,0,0,1,0,.31,6.93,6.93,0,0,1-.2.75,2.44,2.44,0,0,1-.34.71A2.18,2.18,0,0,1,6.16,31.33Z"/><path class="cls-56" d="M7.56,30.35c0-.26,0-.54.25-.7s.42,0,.56.22c0,.47.63.76.36,1.31-.35.2-.71.4-.56.92.44.62,1,.35,1.47.12a.75.75,0,0,1,.33,0c1,.38.39,1,.22,1.52H8.28c-.59-.06-.92-.31-.83-1A13.33,13.33,0,0,1,7.56,30.35Z"/><path class="cls-57" d="M10.19,33.7c-.28-.47.4-1.1-.26-1.49a2.3,2.3,0,0,1-.36-1.37.59.59,0,0,1,.17-.32,1.88,1.88,0,0,1,1.87.56,3.07,3.07,0,0,1-.21,2.39C11.05,33.81,10.57,33.49,10.19,33.7Z"/><path class="cls-58" d="M6.16,31.33a1,1,0,0,1,1.17-.23q.09.07.06.15s0,.07-.06.07c-.41.42-.21,1-.22,1.43,0,.67-.25,1-1,.94C6.14,32.9,6.15,32.12,6.16,31.33Z"/><path class="cls-59" d="M11.4,33.47V30.86a.64.64,0,0,1,.1-1,.46.46,0,0,1,.32-.07,2.09,2.09,0,0,0,1.06,1,.35.35,0,0,1,0,.3c-.18.21-.61.2-.63.48s.39.15.57.29a.63.63,0,0,1,.34.36.4.4,0,0,1-.24.41,1.21,1.21,0,0,1-.32.11c-.14.08-.42,0-.36.3s.65.17.62.6C12.36,33.64,11.83,33.91,11.4,33.47Z"/><path class="cls-60" d="M7.33,31.32a1.61,1.61,0,0,0,0-.22c0-.26,0-.55.23-.75,0,.7.06,1.4,0,2.09a1.1,1.1,0,0,0,.72,1.25c-.69.12-1-.13-.95-.87C7.37,32.32,7.34,31.82,7.33,31.32Z"/><path class="cls-54" d="M7.81,37.56a2.71,2.71,0,0,1-.46-1.22,1.42,1.42,0,0,1,.94-.22C8.43,36.7,7.81,37,7.81,37.56Z"/><path class="cls-61" d="M12.84,33.68c-.23-.37-.73-.06-1-.38.15-.36.52-.5.75-.77l.25,0a3.51,3.51,0,0,1,.72.72l0,.43Z"/><path class="cls-62" d="M7.52,38.5c.37.36.11,1.24,1,1.17a.8.8,0,0,1,.27.7c-1,.15,0,.69-.19,1-.7-.09-.4-1.25-1.25-1.17a.33.33,0,0,1,0-.49c.28-.4-.08-.8,0-1.19Z"/><path class="cls-63" d="M8.3,43.75,8,44l-1.32.09C7.15,43.27,7.71,43.45,8.3,43.75Z"/><path class="cls-64" d="M7.33,39.7c0,.16,0,.32,0,.49a3.88,3.88,0,0,1-1.76-.25A3.69,3.69,0,0,1,7.33,39.7Z"/><path class="cls-65" d="M7.57,28.71c-.3-.17-.75.15-1-.3a1.27,1.27,0,0,1,0-1.63,2.6,2.6,0,0,1,1.63,0,1.31,1.31,0,0,1-.3,1.9A.35.35,0,0,1,7.57,28.71Z"/><path class="cls-66" d="M18.11,34.66h5.73c-.2.4-.76.09-1,.49a1.88,1.88,0,0,1-1.34.32c-.26,0-.52,0-.78,0a6.4,6.4,0,0,1-1.45-.11c-.42-.34-.8.27-1.21.05l-.2-.29c-.19-.17-.22-.33,0-.46Z"/><path class="cls-67" d="M2,28.15a3.25,3.25,0,0,1-.15-1.35,4.12,4.12,0,0,1,1.64,0,.9.9,0,0,1,0,1.31Z"/><path class="cls-68" d="M8.93,28c.16-.59-.26-1.61,1.05-1.31.91.21.31.92.52,1.35a.26.26,0,0,1-.14.32c-.44,0-.89.32-1.33,0A.38.38,0,0,1,8.93,28Z"/><path class="cls-69" d="M5.77,28.15H4.38a.87.87,0,0,1-.15-1.37H5.86A.87.87,0,0,1,5.77,28.15Z"/><path class="cls-70" d="M15.09,28.22l-1.33-.08c-.06,0-.1-.07-.1-.12s0-.08,0-.08c0-.2,0-.39.05-.59s-.13-.64.39-.68.53.24.63.55S15,27.88,15.09,28.22Z"/><path class="cls-71" d="M10.42,28.19a.7.7,0,0,1,.08-.2.55.55,0,0,0,.18,0c.44-.29.37-.86.69-1.21h.8a1.5,1.5,0,0,1,.18,1.43,2.17,2.17,0,0,0-1.21,0A.59.59,0,0,1,10.42,28.19Z"/><path class="cls-72" d="M5.77,28.15l.09-1.37h.75v1.63a.57.57,0,0,1-.18,0C6.29,28.15,6,28.22,5.77,28.15Z"/><path class="cls-73" d="M4.23,26.78a3.53,3.53,0,0,0,.15,1.37l-.89,0V26.79Z"/><path class="cls-74" d="M12.35,28.19a2.42,2.42,0,0,1-.18-1.43c.58-.34.71,0,.75.5a.68.68,0,0,1-.05.88Z"/><path class="cls-75" d="M8.93,28a.26.26,0,0,1,0,.19c-.07.3-.35.37-.55.54s-.38.21-.54-.05a3,3,0,0,0,.36-1.82C9.24,26.73,8.47,27.71,8.93,28Z"/><path class="cls-76" d="M12.87,28.14c0-.29,0-.59.05-.88s.24-.36.38-.38.24.23.24.42,0,.45.16.64a.27.27,0,0,1,.07.2Z"/><path class="cls-77" d="M11.37,26.77c-.09.48.34,1.26-.69,1.21C10.75,27.49,10.38,26.74,11.37,26.77Z"/><path class="cls-78" d="M17.94,34.67c0,.15,0,.31,0,.46A3.92,3.92,0,0,1,17,33C17.58,33.41,17.63,34.12,17.94,34.67Z"/><path class="cls-79" d="M16.66,32.36a5.32,5.32,0,0,1-.74-1.71c-.12-.25,0-.29.21-.26C16.33,31,16.86,31.6,16.66,32.36Z"/><path class="cls-80" d="M16.13,30.39l-.21.26a3.44,3.44,0,0,1-.64-1.71C15.86,29.25,15.9,29.88,16.13,30.39Z"/><path class="cls-2" d="M18.06,16.29c.8-.56,1.7-.2,2.55-.26a9,9,0,0,1,3,.26Z"/><path class="cls-2" d="M35.33,18.89H43c-.39.41-.9.22-1.35.23-1.73,0-3.46,0-5.19,0C36.06,19.12,35.64,19.25,35.33,18.89Z"/><path class="cls-81" d="M11.65,29.89a1.53,1.53,0,0,0-.25,1c-.63.49-1.05-.43-1.64-.25-.28-.15-.34-.44-.43-.71a.72.72,0,0,1,.07-.48c.7-.29-.35-.57,0-.85.16-.23.34-.29.57-.11.37.7,1,.42,1.58.47a2.79,2.79,0,0,0,.7-.08c1.78-.37,2.11-.2,2.73,1.43.1.26.17.52.26.78l-1.17,0c-.31-.19-.31-.59-.56-.83a1.58,1.58,0,0,1-.15-.24l-.16-.25C12.63,29.28,12.15,29.75,11.65,29.89Z"/><path class="cls-82" d="M30.84,35.17a9.78,9.78,0,0,0,2.59-1.48c-.19,1.34-1.15,1.9-2.28,2.31C30.6,35.89,30.47,35.62,30.84,35.17Z"/><path class="cls-83" d="M40.08,28.93c.5-.36,1-.8,1.67-.45a.58.58,0,0,1,0,.91L40.45,30C39.72,29.85,39.84,29.42,40.08,28.93Z"/><path class="cls-84" d="M43.88,27.3,44,28.46a2.58,2.58,0,0,1-1.46.68A.86.86,0,0,1,42.45,28Z"/><path class="cls-85" d="M35.36,30.85A3,3,0,0,1,37,30.14a.77.77,0,0,1,0,1,3.3,3.3,0,0,1-1.66.59A.6.6,0,0,1,35.36,30.85Z"/><path class="cls-86" d="M19.1,35.19l1.56,0a.54.54,0,0,1,0,.9H19.11A.54.54,0,0,1,19.1,35.19Z"/><path class="cls-87" d="M23.87,35.17c.6.1,1.45-.37,1.65.7a2.72,2.72,0,0,1-1.71.21A.64.64,0,0,1,23.87,35.17Z"/><path class="cls-88" d="M26.22,36.07c-.16-1.32.8-.85,1.43-.91a.62.62,0,0,1,0,.92Z"/><path class="cls-89" d="M21.48,35.17h1.4l.06.92H21.48A.58.58,0,0,1,21.48,35.17Z"/><path class="cls-90" d="M28.59,36.08c-.16-1.34.83-.84,1.46-.92a.62.62,0,0,1,0,.92Z"/><path class="cls-91" d="M37.7,29.89a1.15,1.15,0,0,1,.94-.44c.57.27.51.57.06.9a.82.82,0,0,1-.79.55C37.34,30.66,37.49,30.28,37.7,29.89Z"/><path class="cls-92" d="M40.38,32.08c-.19-.67-.15-.71.94-.77.6.44,1.22.89.48,1.71a.72.72,0,0,1-.21-.25C41.48,32,40.84,32.19,40.38,32.08Z"/><path class="cls-93" d="M40.29,34.65a1,1,0,0,1,.78-1.2l.25.24c.13.65-.41.89-.74,1.26C40.37,35,40.28,34.86,40.29,34.65Z"/><path class="cls-94" d="M42.45,28l.06,1.16-.74.25c0-.3,0-.61,0-.91S42.07,27.94,42.45,28Z"/><path class="cls-95" d="M40.08,28.93c.14.36-.16.86.37,1.07l-.57.14c-.94.07-.73-.44-.49-1Z"/><path class="cls-96" d="M35.36,30.85c0,.31,0,.61,0,.92-.17.26-.44.27-.71.29a.64.64,0,0,1,0-.94C34.77,30.81,35.07,30.85,35.36,30.85Z"/><path class="cls-97" d="M37.7,29.89c.11.33-.06.71.21,1-.25.26-.61.17-.9.28l0-1Z"/><path class="cls-98" d="M39.39,29.17c0,.38-.16.9.49,1-.34.38-.78.18-1.18.22.11-.31.28-.63-.06-.91A.79.79,0,0,1,39.39,29.17Z"/><path class="cls-99" d="M30,36.08v-.92h.79c0,.31,0,.64.31.83C30.79,36.2,30.41,36.07,30,36.08Z"/><path class="cls-100" d="M19.1,35.19c0,.3,0,.6,0,.89-.57.14-.87-.14-1-.66C18.43,35.35,18.66,34.83,19.1,35.19Z"/><path class="cls-101" d="M10,28.46a.46.46,0,0,0-.47.25c-.49.28-.85.07-1.18-.3.13-.31.45-.15.66-.27l1.45.05.72,0C10.8,28.61,10.35,28.39,10,28.46Z"/><path class="cls-102" d="M23.87,35.17l-.06.91h-.7C23.1,35.56,23.1,35.05,23.87,35.17Z"/><path class="cls-103" d="M27.65,36.08v-.92c.75-.11.77.39.75.91Z"/><path class="cls-104" d="M21.48,35.17v.91h-.79l0-.9Z"/><path class="cls-105" d="M34.59,31.12l0,.94-.55.28C34.09,31.87,33.82,31.27,34.59,31.12Z"/><path class="cls-106" d="M41.74,32.66l.06.36c-.17.28-.47.2-.72.26L40.8,33c-.18-.26-.2-.54.08-.7S41.48,32.47,41.74,32.66Z"/><path class="cls-54" d="M20,36.84c-.64.69-1.27.28-1.9,0Z"/><path class="cls-107" d="M40.86,11a1.25,1.25,0,0,1,.71,1.17l-1.64,0c0-.24-.09-.46.26-.47A.61.61,0,0,0,40.86,11Z"/><path class="cls-108" d="M39.91,28V27.3h1.44A2.36,2.36,0,0,1,39.91,28Z"/><path class="cls-17" d="M23.17,1.72c-.64.44.07,1.62-.91,1.5A1.34,1.34,0,0,1,20.94,2c0-.48.19-.78.7-.74S22.44,2,23.17,1.72Z"/><path class="cls-109" d="M39.62,37.32c-.9-.42-1-.72-.49-1.21.29.4.72.23,1.07.22.77,0,.37.42.36.73A.79.79,0,0,1,39.62,37.32Z"/><path class="cls-110" d="M39.62,37.32a1.56,1.56,0,0,1,.94-.26c0,.45.56.94-.16,1.32s-.71-.34-1-.61Z"/><path class="cls-111" d="M40.29,34.65l.29.3c.54,1.07-.24.67-.7.62,0-.31-.28-.55-.13-.91S40.11,34.47,40.29,34.65Z"/><path class="cls-112" d="M42.09,37.34a1.6,1.6,0,0,1-.54.81c-.41-.47-.2-1-.22-1.56Z"/><path class="cls-113" d="M24.8,30.37l.23-.23v3.53H24.8Z"/><path class="cls-2" d="M8.57,9l3.86-.1,1.81.05A21.11,21.11,0,0,1,8.57,9Z"/><path class="cls-54" d="M8.52,39.46l-.44-1.2c.15-1.3.95-1.53,2.11-1.46a35.85,35.85,0,0,0,4.75,0c1.09-.07,1.62.19,1.48,1.35a4.59,4.59,0,0,0,0,.83c-1.48,0-2.95.07-4.42,0-1.1-.07-2.16.36-3.26.12C8.7,39.08,8.6,39.33,8.52,39.46Z"/><path class="cls-114" d="M25.53,37.54c0,.49,0,1,0,1.46,0,1.77-.19,1.94-1.48,1.67-1.87.37-2.14.11-1.82-1.72a11,11,0,0,1,.11-1.41A4.73,4.73,0,0,1,25.53,37.54Z"/><path class="cls-115" d="M30.06,38.75V39c-.1.59.27,1.31-.49,1.71a1,1,0,0,1-.46.09c-2.65.11-3.05-.4-2.49-3.19a3.87,3.87,0,0,1,1.58-.27C29.71,37.26,29.81,37.35,30.06,38.75Z"/><path class="cls-116" d="M17.63,38.76c.43-.3,0-.94.48-1.22.56.75.19,1.64.36,2.44.86.71,1.76.35,2.66.15.55,0,.64.4.79.77-1.34.46-2.7-.11-4.06,0-.27,0-.23-.26-.23-.44,0-.43,0-.86,0-1.29a1.77,1.77,0,0,0,0-.23q-.09-.07-.06-.15S17.61,38.76,17.63,38.76Z"/><path class="cls-116" d="M22.39,37.56c0,.47,0,.93,0,1.4,0,1.68,0,1.68,1.67,1.71a1.49,1.49,0,0,1-1.91.22,1.78,1.78,0,0,1-.47-1.67c.75-.38.38-1.09.48-1.66C22.24,37.46,22.31,37.46,22.39,37.56Z"/><path class="cls-117" d="M26.72,37.55v.24c0,2.84,0,2.84,2.85,2.89-.54.4-1.2.25-1.81.34-1.47.2-1.35-.86-1.31-1.82,0-.15,0-.31,0-.46C26.41,38.31,25.93,37.8,26.72,37.55Z"/><path class="cls-118" d="M41.74,32.66c-.13.05-.37.15-.38.12-.53-1-.45-.11-.56.18-.53-.11-.68-.4-.42-.88C41.15,31.53,41.67,31.58,41.74,32.66Z"/><path class="cls-119" d="M21.69,39.22l.47,1.67h-.24c-.52,0-.39-.53-.68-.72a.62.62,0,0,1,0-1C21.38,39.19,21.54,39,21.69,39.22Z"/><path class="cls-120" d="M21.23,39.22c0,.32,0,.64,0,1-1,.92-2,.5-3.12.22a1,1,0,0,1,.33-.39,1.39,1.39,0,0,1,.33-.1c1.62-.08,1.62-.08,1.66-1.72a1.37,1.37,0,0,1,.08-.35,1.94,1.94,0,0,1,.21-.29C21.63,37.89,21,38.67,21.23,39.22Z"/><path class="cls-121" d="M26.72,37.55c-.42.32-.17.79-.25,1.19-.63-1-.47-1.39.63-1.47.42,0,.84-.18,1.27-.19,1.53,0,1.69.14,1.69,1.67-.13-1.09-.78-1.38-1.79-1.22A10,10,0,0,1,26.72,37.55Z"/><path class="cls-121" d="M22.39,37.56h-.22c.8-.7,2.88-.71,3.36,0Z"/><path class="cls-122" d="M18.35,40.17l-.23.23c0-.95,0-1.9,0-2.86h2.62v.24A2.32,2.32,0,0,0,18.35,40.17Z"/><path class="cls-54" d="M17.63,38.76a1.55,1.55,0,0,1,0,.22c-.8-.26-.4-.81-.38-1.41C17.78,37.94,17.56,38.4,17.63,38.76Z"/><path class="cls-123" d="M4.68,31.1h.24c.39.29.27.89.71,1.15a1,1,0,0,1-1,1,10.52,10.52,0,0,0-.86-.63V32C4.29,31.92,4.43,31.45,4.68,31.1Z"/><path class="cls-124" d="M4.68,31.1c-.14.47.38,1.6-.91.91C3.73,31.36,3.83,30.85,4.68,31.1Z"/><path class="cls-125" d="M3.77,32.57c.51-.09,1.05-.23.86.63C3.67,33.91,3.82,33.1,3.77,32.57Z"/><path class="cls-126" d="M5.63,32.24c-1,.11-.59-.7-.71-1.15C6.08,30.9,5.62,31.71,5.63,32.24Z"/><path class="cls-127" d="M4.22,30.8c-.22,0-.4-.1-.35-.36a.71.71,0,0,1,.52-.59c.33-.08.27.18.28.36A.5.5,0,0,1,4.22,30.8Z"/><path class="cls-128" d="M5,29.79c.51.05.72.33.65.79a.3.3,0,0,1-.45.23C4.73,30.57,4.9,30.18,5,29.79Z"/><path class="cls-129" d="M13.6,30.16c.66.05.35.59.46.92-.1.49.17,1-.25,1.46a.54.54,0,0,1-.39-.28A4.24,4.24,0,0,1,13.2,31,2.37,2.37,0,0,1,13.6,30.16Z"/><path class="cls-130" d="M13.58,32.27l.23.27c-.08.24-.16.49-.23.73-.52,0-.85-.12-.72-.72l.18-.26A.41.41,0,0,1,13.58,32.27Z"/><path class="cls-131" d="M8.31,28.41l1.18.3.45.66-.45,0a2.14,2.14,0,0,1-1.65,0c-.3-.16-.26-.45-.27-.72l.31-.08A.34.34,0,0,0,8.31,28.41Z"/><path class="cls-132" d="M7.84,29.43c.55,0,1.1-.45,1.65,0,0,.15,0,.3,0,.46a.39.39,0,0,1-.27.13c-.35,0-.7-.07-1.06-.11l-.36-.24Z"/><path class="cls-133" d="M9.68,30.87c.41.38.28.87.25,1.34a.65.65,0,0,0-.21.06c-.68.38-1,.09-1-.59a1.19,1.19,0,0,1,.16-.48.7.7,0,0,1,.19-.26A.62.62,0,0,1,9.68,30.87Z"/><path class="cls-134" d="M9,31.61c-.37.91.42.52.74.66-.64.86-1.27.74-1.89,0C8.23,32.07,8.25,31.21,9,31.61Z"/><path class="cls-135" d="M9,31.61c-.53-.05-.45,1-1.15.64-.11-.72-.23-1.45.93-1.17a.18.18,0,0,1,.27.05Z"/><path class="cls-136" d="M9,31.13l-.27-.05c-.16-.41-1-.51-.59-1.19a.8.8,0,0,1,1.11,0,1.63,1.63,0,0,1-.22,1.25Z"/><path class="cls-137" d="M9.06,31.11c0-.43-.33-.92.22-1.25a.54.54,0,0,0,.22,0c.26.18.2.49.26.74l-.08.26Z"/><path class="cls-138" d="M12.83,30.84c-.64,0-1.38.15-.86-.91.36-.53.76-.41,1.18-.08a.78.78,0,0,1,.08.68A.49.49,0,0,1,12.83,30.84Z"/><path class="cls-139" d="M12.83,30.84l.28-.28c.19,0,.33.1.23.33.38.41.16.92.24,1.38l-.54,0-.22-.22a.79.79,0,0,1,0-1A.81.81,0,0,0,12.83,30.84Z"/><path class="cls-140" d="M12.83,31.06c0,.34,0,.67,0,1-.33-.18-1,.44-1-.49S12.43,31.13,12.83,31.06Z"/><path class="cls-141" d="M13.09,29.9c-.38,0-.76-.22-1.12,0l-.32,0c.55-.74,1.16-1,1.9-.24-.1.1-.13.24-.24.32A.17.17,0,0,1,13.09,29.9Z"/><path class="cls-142" d="M12.61,32.53c.11.6-.19.81-.75.77C11.47,32.41,12,32.39,12.61,32.53Z"/><path class="cls-143" d="M13.09,29.9l.24,0,.15.05.12.25c.1.31.19.62-.26.73l-.23-.33C13.1,30.34,13.09,30.12,13.09,29.9Z"/><path class="cls-144" d="M13.48,29.91a.2.2,0,0,1-.15-.05l.22-.21Z"/><path class="cls-145" d="M24.57,39.75l-.48.21a.29.29,0,0,1-.35,0c-.86-.9-.78-1.25.39-1.77C25.05,38.49,25.17,39,24.57,39.75Z"/><path class="cls-146" d="M24.57,39.75a1,1,0,0,0-.46-1.49.68.68,0,0,1-.81,0c.57-.41,1.28-.53,1.67,0A.9.9,0,0,1,24.57,39.75Z"/><path class="cls-147" d="M23.3,38.26h.81c-.7.43-.9,1-.32,1.64-.84-.09-.84-.09-.7-1.4Z"/><path class="cls-148" d="M23.09,38.5c.07.55-.25,1.29.7,1.4l.3.06a.73.73,0,0,1-1,.13A1.37,1.37,0,0,1,23.09,38.5Z"/><path class="cls-149" d="M28.29,38.21c.34-.27.83-.42,1.07-.1a2.28,2.28,0,0,1,.13,1.73c-.07.51-.55.33-.87.34-1.46,0-1.61-.13-1.42-1.63.09-.65.15-.67,1-.37.18.44-.51.7-.23,1.16s.51.33.75.07.05-.68-.26-.93A.77.77,0,0,1,28.29,38.21Z"/><path class="cls-150" d="M27.66,39.44c-.36-.65.21-.91.54-1.26l.09,0,.4.11c.25.4.56.82.11,1.27S28,39.73,27.66,39.44Z"/><path class="cls-151" d="M20.71,38c0,2.61.39,2.12-2.12,2.12a.9.9,0,0,1,0-.95c.38-.16.52.29.83.31,1.21-.23.21-1,.35-1.47A.81.81,0,0,1,20.71,38Z"/><path class="cls-152" d="M20.71,38c-.31,0-.64-.1-.9.16a1,1,0,0,1-.07.15c-.48.11-.58.69-1,.84a1.62,1.62,0,0,0-.12,1h-.24c0-2.63-.36-2.39,2.38-2.38Z"/><path class="cls-153" d="M27.66,39.44c1.21.35,1.33.22,1-1.12.77.32.76.89.27,1.37S28,40.23,27.66,39.44Z"/><path class="cls-154" d="M19.81,38.2c.22.33.82.44.56,1a1.14,1.14,0,0,1-1.12.66c-.53-.78-.41-1.35.53-1.65Z"/><path class="cls-155" d="M19.78,38.25a1.14,1.14,0,0,0-.53,1.65.87.87,0,0,1-.54-.71C18.75,38.52,18.94,38,19.78,38.25Z"/></g></g></svg>