<svg xmlns="http://www.w3.org/2000/svg" viewBox="0 0 22.85 51.3"><defs><style>.cls-1{fill:#f1f2f2;}.cls-2{fill:#b4634d;}.cls-3{fill:#d1d3d4;}.cls-4{fill:#e6e7e8;}.cls-5{fill:#9e4f35;}.cls-6{fill:#b4634e;}.cls-7{fill:#b77361;}.cls-8{fill:#9f4f36;}.cls-9{fill:#f1b064;}.cls-10{fill:#8a4232;}.cls-11{fill:#8a4332;}.cls-12{fill:#f2b366;}.cls-13{fill:#5d261b;}.cls-14{fill:#9f5032;}.cls-15{fill:#af6f5a;}.cls-16{fill:#dd936e;}.cls-17{fill:#755440;}.cls-18{fill:#dd824b;}.cls-19{fill:#e5e5e4;}.cls-20{fill:#a7a9a8;}.cls-21{fill:#a85937;}.cls-22{fill:#f7f0e8;}.cls-23{fill:#a85735;}.cls-24{fill:#b5776c;}.cls-25{fill:#5a5b5c;}.cls-26{fill:#b4674e;}.cls-27{fill:#f4ba72;}.cls-28{fill:#f3b260;}.cls-29{fill:#8e5045;}.cls-30{fill:#99655a;}.cls-31{fill:#9c6149;}.cls-32{fill:#ba6a55;}.cls-33{fill:#bb6a55;}.cls-34{fill:#d2aba0;}.cls-35{fill:#d9d7d6;}.cls-36{fill:#f7f6f4;}.cls-37{fill:#c7a7a3;}.cls-38{fill:#9e4e35;}.cls-39{fill:#733422;}.cls-40{fill:#f0b533;}.cls-41{fill:#9a4f37;}.cls-42{fill:#9e5035;}.cls-43{fill:#c76e32;}.cls-44{fill:#e6ded8;}.cls-45{fill:#9a5643;}.cls-46{fill:#b2997b;}.cls-47{fill:#edc19b;}.cls-48{fill:#b5634d;}.cls-49{fill:#efb434;}.cls-50{fill:#9c5135;}.cls-51{fill:#c76f31;}.cls-52{fill:#f0dac9;}.cls-53{fill:#e1dccc;}.cls-54{fill:#f2f0e9;}.cls-55{fill:#b66457;}.cls-56{fill:#92523a;}.cls-57{fill:#d8bcaf;}.cls-58{fill:#954936;}.cls-59{fill:#9c5234;}.cls-60{fill:#934834;}.cls-61{fill:#934635;}.cls-62{fill:#b16645;}.cls-63{fill:#b97a61;}.cls-64{fill:#b07268;}.cls-65{fill:#f1efec;}.cls-66{fill:#d8d6cf;}.cls-67{fill:#dad4ce;}.cls-68{fill:#9e5d41;}.cls-69{fill:#b3684e;}.cls-70{fill:#ea8f57;}.cls-71{fill:#96472c;}.cls-72{fill:#a25039;}.cls-73{fill:#8f553d;}.cls-74{fill:#b36b53;}.cls-75{fill:#e89157;}.cls-76{fill:#e4a36a;}.cls-77{fill:#c4794c;}.cls-78{fill:#9f6765;}.cls-79{fill:#ce9b8c;}.cls-80{fill:#d9d0d9;}.cls-81{fill:#df9a6e;}.cls-82{fill:#8c412c;}.cls-83{fill:#3a1d1b;}.cls-84{fill:#462319;}.cls-85{fill:#bd2226;}</style></defs><g id="Layer_2" data-name="Layer 2"><g id="Layer_1-2" data-name="Layer 1"><path class="cls-1" d="M5.44,15.61a1.87,1.87,0,0,1-.07-.22A4.08,4.08,0,0,1,6,14.13,14.7,14.7,0,0,0,6.2,9.69c0-.46-.21-.93.15-1.35a1.42,1.42,0,0,1,.78-.23c1.24,0,2.48-.07,3.72.05.74.34,1.46-.09,2.19-.05h2.82a1.65,1.65,0,0,1,.79.19c.48.37.23.84.2,1.3-.09,1.56-.38,3.12.21,4.64.17.31.31.61.08.94v.39c-.09.95-.7.77-1.26.53a3.61,3.61,0,0,1-1.54-1.66c-.12.85-.29,1.57-1.29,1.59-.84-.32-1.5-.79-1.48-1.68-1,1.69-1.57,2-2.72,1.38-.19-.35-.09-.76-.21-1.19A6.88,6.88,0,0,1,7.35,16,1.33,1.33,0,0,1,5.44,15.61Z"/><path class="cls-1" d="M16.88,14.42a.91.91,0,0,1-.47-1c.11-1.56-.29-3.14.34-4.66,0-.08-.06-.22-.1-.33-1-.53-2-.2-3-.23-2.16-.07-1.65.1-2.12-1.71C11,8.19,11,8.15,9.25,8.21c-1,0-2-.28-2.9.23a19.92,19.92,0,0,1,.15,5.23c0,.36-.07.59-.38.75-2.15,0-2.16,0-1.41-2.09a3.4,3.4,0,0,0,.2-1.51,2.63,2.63,0,0,1,.22-1.27.33.33,0,0,1,.13.3c.07-.06,0-.14,0-.21.23-.64-.09-1.33.16-2,0-.08,0-.44-.32-.35L4.39,4.38c.57-.31,1.15,0,1.72,0s1,.16,1.55.14A22.92,22.92,0,0,1,11,4.74a12.27,12.27,0,0,0,2.84-.12,6.62,6.62,0,0,1,1.33-.1c.57.05,1.12-.16,1.68-.16a3.9,3.9,0,0,1,1.7,0,13.56,13.56,0,0,0-.46,6.51c-.27.81.3,1.41.52,2.1.51,1.57.41,1.71-1.23,1.5A1.24,1.24,0,0,0,16.88,14.42Z"/><path class="cls-2" d="M2.32,40.45a.75.75,0,0,0-.23-.87c-.51-.44.17-.51.2-.77a2.81,2.81,0,0,1,1-1.54A2.72,2.72,0,0,1,3.72,37a3.66,3.66,0,0,1,1.17-.58,4.91,4.91,0,0,0,1.5-.62c.8-.29,1.56-.7,2.36-1s1.43-.76,2.29-.5a1.69,1.69,0,0,1,.33,1.67c.18,2.13-1.09,3-2.92,3.44a1.22,1.22,0,0,1-.8,0c-.4-.31-.21-.66-.07-1a3.07,3.07,0,0,1,.17-.31c.23-.41.33-.81-.08-1.17A.43.43,0,0,0,7,37a1,1,0,0,0-.16,1.19,5.72,5.72,0,0,1,.39.73,2.37,2.37,0,0,1,0,1.06.48.48,0,0,1-.38.33c-.22.06-.07-.54-.64-.18A9.1,9.1,0,0,1,3,41.93H2.88l-.09,0C2,41.64,1.8,41.16,2.32,40.45Z"/><path class="cls-3" d="M4.83,30.64c-1.55,0-3,.63-4.83.83a16.71,16.71,0,0,0,3.46-10c-.06-.15-.12-.3,0-.45s.28-.08.38.05a1.42,1.42,0,0,1,.22.92c0,1.47.25,2.93.21,4.4a2.2,2.2,0,0,1,0,.37c-.14.56-.45,1.07-.62,1.67A7.92,7.92,0,0,0,5.49,28c.48-.08,1-.16,1.21.4a.83.83,0,0,1,0,.49c-.28.46-.2,1.07-.62,1.47S5.24,30.45,4.83,30.64Z"/><path class="cls-3" d="M19.51,22.79c-.05,3.26,1.64,5.87,3.34,8.62-1.68-.05-3.14-.77-4.7-.76-.46-.23-.95,0-1.42-.1-.38-.45-.09-1-.31-1.51a1.46,1.46,0,0,1,0-.36c0-.54.29-.81.85-.67a17.07,17.07,0,0,1,2.38.52,11,11,0,0,1-1-1.72,2.8,2.8,0,0,1-.12-.76A7.84,7.84,0,0,1,19,23.3C19.06,23.05,19.14,22.76,19.51,22.79Z"/><path class="cls-2" d="M20.22,41.83l-.44.6a7,7,0,0,0-3.84-2.26.69.69,0,0,1-.4-.29,2.41,2.41,0,0,1-.24-.63.73.73,0,0,1,.08-.48A1.62,1.62,0,0,0,16.15,37a1.65,1.65,0,0,1,.14-1c.24-.27.52-.13.79-.08a7.17,7.17,0,0,1,1,.45,1.43,1.43,0,0,1,.27.15,8.21,8.21,0,0,0,.8.63c.17.1.34.19.5.3a4.2,4.2,0,0,1,.55.48c.09.11.14.25.22.37l.27.76c.14.08.15.16,0,.26l-.25,1.12A1.13,1.13,0,0,1,20.22,41.83Z"/><path class="cls-4" d="M4,26.62c-.08-1.74-.14-3.47-.26-5.21,0-.59-.17-.16-.25,0a20.74,20.74,0,0,0-1.07-4.58,2.29,2.29,0,0,1,1.37,0c.56.4,1.29,0,1.86.39.21.41-.19.65-.24,1a3.85,3.85,0,0,0,.16,1.88,10.22,10.22,0,0,1-.63,5.47C4.76,26,4.63,26.57,4,26.62Z"/><path class="cls-4" d="M19.51,22.79a9.35,9.35,0,0,0-.71,3.35c-.54.09-.67-.34-.81-.69a7.83,7.83,0,0,1-.6-4.5,8.46,8.46,0,0,1,.53-2.77c.27-.45-.44-.52-.35-.9a2,2,0,0,1,1-.44c.62.22,1.34-.58,1.9.19A17.35,17.35,0,0,0,19.51,22.79Z"/><path class="cls-2" d="M8.23,47a12.6,12.6,0,0,1-3.58-2.41,2.07,2.07,0,0,1,1.21-1.06c.54.25.89.79,1.49.95.79.94.79.94,2,.41-.43-.08-.78-.1-.86-.47s.26-.77.18-1.19a1.77,1.77,0,0,1,.61-.84A2.14,2.14,0,0,1,9.86,42c1-.36,1.2-.24,1.35.76a6.1,6.1,0,0,0,.18.93,2.86,2.86,0,0,1-.31,2.3A9,9,0,0,1,8.23,47Z"/><path class="cls-5" d="M5.81,43.61a2,2,0,0,1-1.16,1A5.92,5.92,0,0,1,3,41.93a23.56,23.56,0,0,1,3.33-2c.6-.33.54,0,.6.36a.64.64,0,0,1,.19.13c.53.53-.3,1.16,0,1.44a1.53,1.53,0,0,1,.38,1.5c-.18.91-.42,1-1.18.43A.74.74,0,0,0,5.81,43.61Z"/><path class="cls-6" d="M17.13,45.48c-.85.4-1.46,1.2-2.37,1.49-1.13-.22-2.32-.33-3.1-1.36a9,9,0,0,1,0-3.23c.44-.91,1.08-.42,1.68-.24a1,1,0,0,1,.61.67,3.26,3.26,0,0,1-.33,1.33A.71.71,0,0,0,14,45.2c.51.23.7-.13.87-.51.46-.93,1.33-.28,2-.51a.81.81,0,0,1,.34.08C17.59,44.68,17.48,45.08,17.13,45.48Z"/><path class="cls-7" d="M4.81,16.79l.28-.21a15,15,0,0,1,3.66-.44A3.27,3.27,0,0,0,11.07,16a.92.92,0,0,1,.67-.05,1.59,1.59,0,0,1,.61.51.66.66,0,0,1,.09.28c0,.15-.18.33.07.45,1.54.09,3.07,0,4.61,0,.46.4.9.8-.08,1.1-.74.07-1.49,0-2.24,0a28.91,28.91,0,0,1-6.51-.1c-.45-.31-1.31.15-1.45-.75.55-.35,1.15-.13,1.72-.2H9.67c-.3,0-.75,0-1.21,0a14.43,14.43,0,0,1-3.15-.11C5.08,17.1,4.85,17.09,4.81,16.79Z"/><path class="cls-8" d="M15.92,40c1.3-.13,3.52,1.26,3.86,2.43a2.72,2.72,0,0,1-.72,1.22c-.17-.3-.5-.51-.63-.8s-.37-.27-.54-.18.08.24.09.38c.08.75-.4.72-.9.68s-.84.88-1.34.18a1.43,1.43,0,0,1,.08-2c.12-.12.34-.13,0-.37C15.25,41.07,15.6,40.52,15.92,40Z"/><path class="cls-9" d="M19.47,37.58l-.42-.27c-.21-.47.14-1.11-.48-1.43-.36.13-.17.65-.55.76l-.81-.48c-.59-.38-.35-1.06-.64-1.49-.07.2.21.63-.35.83-.42-.77-.86-1.58-1.89-1.68a3.6,3.6,0,0,1-.63-.29,4.38,4.38,0,0,0-.81-.31c-.58-.28-1.44-.34-1.09-1.37.42-.32.82-.13,1.23,0,1.09.53,2.25.89,3.32,1.44.33.19.69.34,1,.5a1.26,1.26,0,0,1,.24.22l1.58,1.21c1,.78,1.83,1.63,1.24,3.06l-.18-.2C19.88,38.1,20.22,37,19.47,37.58Z"/><path class="cls-4" d="M11.86,16.14h-.74a7.72,7.72,0,0,1-2.35.21c-1.23-.09-2.42.63-3.68.22a1.79,1.79,0,0,0,.35-1c.62.13,1.19.65,1.87.24A1.59,1.59,0,0,1,9,15.61c1.16.4,1.59.1,2.49-1.86a3.42,3.42,0,0,0,1.58,2.1.23.23,0,0,1-.06.34A1.07,1.07,0,0,1,11.86,16.14Z"/><path class="cls-3" d="M4.91,10.82c.57.84.1,1.57-.25,2.31-.16.33-.59.64-.26,1s.65,0,.95-.1.7-.2.77.34c-.2.36-.31.8-.75,1-1-.18-1.84.35-2.95.42A16.21,16.21,0,0,0,4.91,10.82Z"/><path class="cls-3" d="M16.88,14.42c.07-.65.46-.31.78-.27s.6.39.88.09,0-.66-.09-1c-.12-.66-.62-1.19-.6-1.9a.63.63,0,0,1,.21-.52A16.93,16.93,0,0,0,20.61,16a19.81,19.81,0,0,0-3.47-.78Z"/><path class="cls-10" d="M8.23,47a5.67,5.67,0,0,1,2.66-1,.78.78,0,0,1,.5.58,8.28,8.28,0,0,1,0,2c0,.29,0,.68-.52.59A17.87,17.87,0,0,0,8.23,47Z"/><path class="cls-11" d="M11.88,45.73c.89.57,2,.54,2.88,1.24a20.23,20.23,0,0,0-2.64,2.14c-.67-.1-.54-.65-.59-1.08a6.74,6.74,0,0,1,0-1.27A1.26,1.26,0,0,1,11.88,45.73Z"/><path class="cls-4" d="M13.06,16.11v-.26c1.22-.18.89-1.19,1-2.06.69.45.82,1.25,1.37,1.65s1.07,1.16,1.72.13c.51.16.5.81,1,1a.39.39,0,0,1,0,.49.42.42,0,0,1-.33,0c-.46-.1-.93,0-1.38-.11a4.43,4.43,0,0,0-2.33-.25A1.93,1.93,0,0,1,13.06,16.11Z"/><path class="cls-12" d="M4.21,35l.94-.73c.18-.14.3-.34.48-.47a15.75,15.75,0,0,1,2.71-1.23,4.27,4.27,0,0,0,1.41-.83,1.94,1.94,0,0,1,1.46-.1c.46,1.1-.38,1.3-1.09,1.59-.22.07-.46.11-.69.16a3,3,0,0,0-.9.35,5.88,5.88,0,0,0-2,1.08,1.33,1.33,0,0,1-.41.25,1.06,1.06,0,0,1-.31,0,1.29,1.29,0,0,0-.83.2.77.77,0,0,1-.3,0A.78.78,0,0,1,4.21,35Z"/><path class="cls-13" d="M11.86,46.71c.12.79-.26,1.64.26,2.4a5,5,0,0,0-.25,1.72c0,.27-.08.46-.38.47s-.42-.2-.38-.46a9.81,9.81,0,0,0-.26-1.71c.46-.85.18-1.78.29-2.66C11.5,46.18,11.68,46.45,11.86,46.71Z"/><path class="cls-14" d="M17.05,43.39c.22,0,.47.26.66,0s0-.47-.24-.64-.47-.42-.23-.68.34.14.5.25c.52.36.25-.73.82-.3-.29.6.65.91.5,1.58a2.16,2.16,0,0,1-.73.91,1.13,1.13,0,0,1-1.2-.24h-.22C16.58,44,16.85,43.68,17.05,43.39Z"/><path class="cls-15" d="M13.73,4.91a6.17,6.17,0,0,1-2.6.08.56.56,0,0,1-.19-.38,1.36,1.36,0,0,1,0-.29,1.43,1.43,0,0,1,.16-.24c-.08-.33-.6-.43-.47-.88a.5.5,0,0,1,.62-.39c.29.39.21-.23.4-.15-.12.48,1.05.61.35,1.29,0,0,.54,0,.79.18a.2.2,0,0,1,.07.18c0,.06,0,.1,0,.09l-.17.18C13.05,4.65,13.5,4.46,13.73,4.91Z"/><path class="cls-16" d="M15.92,31.39l1.46.18c.48.78.22,1.64.24,2.47l-.19,0c-.56-.27-.41-1.09-1-1.3s-1.07-.05-1.11-.78C15.32,31.52,15.73,31.58,15.92,31.39Z"/><path class="cls-17" d="M11.37,3c-.14-.48-.61-.55-1-.77C10.59,1.68,10,1.47,10,1l1-.39c.22-.44.13-.51.75-.62V2.66C11.57,2.76,11.71,3.11,11.37,3Z"/><path class="cls-18" d="M5.4,31.57c.5.05,1.12-.43,1.48.3a.35.35,0,0,1,0,.33,4.93,4.93,0,0,0-1.25,1.86l-.5.2C5.31,33.37,4.89,32.43,5.4,31.57Z"/><path class="cls-19" d="M8.75,17.08a.23.23,0,0,1,0,.39l-1.92.09a.82.82,0,0,1-1.13-.17c-.64-.22-1.41,0-1.94-.57l1,0"/><path class="cls-20" d="M2.32,40.45c0,.53-.15,1.13.47,1.47-.31,0-.61,0-.92,0-.49,0-.53-.3-.56-.69C1.26,40.39,1.83,40.49,2.32,40.45Z"/><path class="cls-21" d="M12.82,4.36V4.13a28.59,28.59,0,0,1,5.7.19l-1.6.24c-1-.1-1.92.13-2.88,0C13.62,4.57,13.17,4.71,12.82,4.36Z"/><path class="cls-3" d="M5.13,7.31l.06-.48c.6.92.6.92,0,3.68l-.11-1Z"/><path class="cls-22" d="M3.51,37.39c-.39.49-1,.8-1.22,1.42a.81.81,0,0,1,0-1c.39-.42.19-1.14.77-1.47C3.61,36.54,3.57,37,3.51,37.39Z"/><path class="cls-23" d="M11.13,4.08V4.4c-1,.55-2,0-3,.2a6.25,6.25,0,0,1-1.67-.13.2.2,0,0,1-.14-.31Z"/><path class="cls-24" d="M18.09,17c0-.14,0-.29,0-.43.76,0,1.51,0,2.26,0,.32,0,.44.16.14.42-.62-.5-1.23.31-1.85,0C18.46,17.15,18.26,17.21,18.09,17Z"/><path class="cls-25" d="M20.22,41.83c.09-.46.18-.92.26-1.38,0,0,.09,0,.11,0,.21.38.93.5.78,1S20.61,41.69,20.22,41.83Z"/><path class="cls-26" d="M17.13,44.32a1.87,1.87,0,0,1,1.2.24,2,2,0,0,1-1.2.92A2.18,2.18,0,0,0,17.13,44.32Z"/><path class="cls-27" d="M3.06,36.49c-.4.36,0,1.19-.76,1.34,0-.72,0-1.42.72-1.85a.49.49,0,0,1,.14.24A.38.38,0,0,1,3.06,36.49Z"/><path class="cls-28" d="M3,36.17A1.21,1.21,0,0,0,3,36a3.45,3.45,0,0,1,1.19-1,.49.49,0,0,1,.47.21c-.09.52-.55.67-.9.94S3.28,36.43,3,36.17Z"/><path class="cls-29" d="M20.73,39.33l0-.26c.59-.28.85-1,1.81-1.29C21.83,38.51,21.52,39.19,20.73,39.33Z"/><path class="cls-30" d="M6.35,4.16a1,1,0,0,1,0,.17.35.35,0,0,1-.22.24,7.28,7.28,0,0,0-1.75-.19c-.09,0-.54-.11-.1-.2A9.44,9.44,0,0,1,6.35,4.16Z"/><path class="cls-31" d="M6.35,8.44C6.2,7.87,6.66,8,6.91,8a11.61,11.61,0,0,1,2.5,0c1.28.21,1.64-.46,1.77-1.5,0-.24,0-.53.35-.52s.28.25.29.46c0,1.28.68,1.68,1.95,1.57a5,5,0,0,1,2.92.24s0,.07,0,.1,0,.07-.07.1l-.75,0a9.58,9.58,0,0,0-3.07,0c-.57-.33-1.11.8-1.7,0a14,14,0,0,0-4-.06Z"/><path class="cls-4" d="M9,15.61a4.37,4.37,0,0,1-1.68.24,14.66,14.66,0,0,0,1.46-2.29A5.58,5.58,0,0,1,9,15.61Z"/><path class="cls-32" d="M7.1,8.4a7.09,7.09,0,0,1,4,.06Z"/><path class="cls-33" d="M12.83,8.42a4.62,4.62,0,0,1,3.07,0Z"/><path class="cls-34" d="M12.82,4.36c1.36.2,2.76-.28,4.1.2-.58,0-1.12.36-1.72.23-1.1-.22-2.23.11-3.33-.18C12.12,4.28,12.52,4.48,12.82,4.36Z"/><path class="cls-35" d="M11.15,4.61c0,.13,0,.26,0,.38l-3.56-.2c0-.47.41-.24.65-.3A14.38,14.38,0,0,1,11.15,4.61Z"/><path class="cls-36" d="M11.87,4.61c1.11.13,2.24-.21,3.33.18l-1.47.12C13.14,4.62,12.39,5.33,11.87,4.61Z"/><path class="cls-37" d="M8.05,4.56l-.48.23L6.14,4.57l.22-.24L8,4.4Z"/><path class="cls-38" d="M11.12,43.61a.73.73,0,0,1-.14-.18c-.29-1.53-.29-1.53-1.74-.77-.29-.14-.42-.43-.63-.65s-.49-.34-.63-.62c.49-.68-.3-.77-.52-1.13a.93.93,0,0,1-.12-.33.66.66,0,0,1,.24-.64c.92-.16,1.69-.74,2.63-.92a1,1,0,0,0,.72-1.2,1.45,1.45,0,0,1,.19-1.24A1.25,1.25,0,0,1,11.49,37c0,1.85,0,3.69,0,5.54A1.25,1.25,0,0,1,11.12,43.61Z"/><path class="cls-39" d="M11.12,43.61V35.93a3.07,3.07,0,0,0-.21-1.67.64.64,0,0,1-.11-.73c.67-.75.28-1.77.65-2.85.6,1,.14,2,.51,2.75,0,.35.17.67.2,1,.1,1.24.06,2.47.05,3.71s.31,2.72-.33,4v3.56c0,.33,0,.65,0,1l-.72-.24c-.08-.17-.17-.33-.25-.5C11.32,45.22,11.06,44.4,11.12,43.61Z"/><path class="cls-40" d="M7.54,40.05a.83.83,0,0,0,.06.21c.53.24.2.81.45,1.17.36,0,.69,0,.7.49a.48.48,0,0,1-.29.34c-.62.19-.61.68-.45,1.11.07.19.46-.36.73,0s-.06.66-.19,1c-.31.81-.79.4-1.25.18-.85.3-1.1-.4-1.49-.88.6-.66.7.32,1.12.36a2.64,2.64,0,0,0,.26-1.6c-.05-.73-1,.19-1-.55s1-.08.94-.77a5.54,5.54,0,0,0-.21-.8L7.1,40A.25.25,0,0,1,7.54,40.05Z"/><path class="cls-41" d="M6.34,34.76c.47-.83,1.37-.94,2.15-1.27.7.11.34.69.47,1a.64.64,0,0,1-.21.45,7.68,7.68,0,0,1-2.39,1,1.87,1.87,0,0,1-.16-.77A.77.77,0,0,1,6.34,34.76Z"/><path class="cls-42" d="M8.75,35V34.5c.34-.39.07-1,.51-1.37L9.89,33a1.66,1.66,0,0,1,.93-.09c.53.09.37.36.09.62v.69Z"/><path class="cls-43" d="M7.06,38.79a1,1,0,0,1-.53-.6A1.24,1.24,0,0,1,7,36.63a.7.7,0,0,1,1.11.21,1,1,0,0,1-.26,1.52l-.13-.12c-.1-.15-.1-.35-.19-.51-.12.13,0,.27,0,.41C7.48,38.45,7.4,38.71,7.06,38.79Z"/><path class="cls-44" d="M3.71,35.93l1-.73.21.09a.93.93,0,0,1,.24,1.05,1.1,1.1,0,0,1-.22.31c-.47,0-.75.42-1.18.52A1,1,0,0,1,3.71,35.93Z"/><path class="cls-45" d="M4.91,36.65a1.55,1.55,0,0,0,0-.21,2.49,2.49,0,0,0,.24-1c0-.4.21-.67.69-.49V35c.15.08.37,0,.48.2.38.25,0,.49,0,.74C6,36.51,5.44,36.51,4.91,36.65Z"/><path class="cls-46" d="M7.06,38.79l.23-.6c.29-.34.36,0,.51.15v0c-.08.31-.15.62-.22.93s0,.5,0,.75H7.1C7.08,39.61,7.07,39.2,7.06,38.79Z"/><path class="cls-47" d="M3.71,35.93l0,1.24-.22.22-.45-.9c0-.11,0-.21-.05-.32C3.29,36.24,3.49,36.05,3.71,35.93Z"/><path class="cls-1" d="M8.29,18a55.35,55.35,0,0,0,6.44,0,4.88,4.88,0,0,0,2.4,0c.75-.27,0-.41-.05-.6.15-.27.34-.24.53,0s.7.06.87.17c-.76,2.2-1.25,4.36-.54,6.62.21.68.11,1.53.86,2v.71c-.55,1-1,1.14-1.87.64A4.25,4.25,0,0,1,15,25c.1,1.61-.17,2.37-1,2.55-1,.25-1.91-.45-2.52-2-.69,1.55-1.67,2.31-2.68,2-1.21-.4-.78-1.45-.88-2.39a5.8,5.8,0,0,1-1.47,2.17,1.81,1.81,0,0,1-2.39.13c-.2-.16-.33-.35-.14-.6a1.85,1.85,0,0,0,0-.23,9,9,0,0,0,.93-7.75c-.17-.5.09-.61.26-.87C6.2,17.42,7.25,18,8.29,18Z"/><path class="cls-4" d="M4,26.85c1.29,1.59,2.41.41,3.32-1a3.87,3.87,0,0,1,1-1.24v1.47c0,.43-.09.95.44,1.13A1.66,1.66,0,0,0,10.17,27c.83-.5.84-1.46,1.35-2.28.57,1.23.72,2.75,2.47,2.57.59-.06.59-.12.81-2.88.68.56.79,1.45,1.35,2.05,1.06,1.14,1.54,1.22,2.66.37a3.72,3.72,0,0,1,1,1.95c-.88-.17-1.68-.31-2.48-.49-.42-.09-.8-.22-.72.45-.55.14-1-.24-1.54-.26a9.19,9.19,0,0,0-3.33-.45,4.62,4.62,0,0,1-.73.07c-.9.05-1.81,0-2.71.08-.39.1-.81,0-1.19.18a.9.9,0,0,1-.55.15c-.41-.52-.91-.24-1.38-.15a5,5,0,0,1-2.15.32Z"/><path class="cls-4" d="M7.56,30.17c-.48,0-1,.38-1.44,0,.27-.35-.21-1,.48-1.17.15-.1.29,0,.42.05s.6.18.82.42S7.76,30,7.56,30.17Z"/><path class="cls-4" d="M6.6,28.53a.54.54,0,0,1,.49-.26c.41-.16.84-.18.8.39s-.45.85-1,.58"/><path class="cls-4" d="M16.65,30.4,13,30c.67-.63,1.75-.1,2.37-.87A1.05,1.05,0,0,1,16.65,29,1.2,1.2,0,0,1,16.65,30.4Z"/><path class="cls-3" d="M16.65,29l-1.2.25a.57.57,0,0,1-.24-.95,1.77,1.77,0,0,1,1.44.46Z"/><path class="cls-48" d="M11.89,38.07V34.28c.74-.4,1.37.25,2.07.22a2.78,2.78,0,0,1,1.18.75c.22.31.63.5.68.94s-.41.57-.67.8-.35.67.07,1a1.22,1.22,0,0,1,.34.55.41.41,0,0,1-.09.3v.44C14,39.65,13,38.77,11.89,38.07Z"/><path class="cls-38" d="M11.89,38.07c1.23.25,2.27,1.11,3.56,1.18a.52.52,0,0,1,.24.53c-.6.66-.3,1.81-1.26,2.26-.31.32-.74.27-1.12.35s-.89-.58-1.43-.22C11.88,40.81,11.89,39.44,11.89,38.07Z"/><path class="cls-49" d="M14.22,41.93c.41-.51,1-.9.81-1.74-.1-.4.33-.44.66-.41l.23.22c.17.54-.68,1.56.75,1.54.24,0,.16.38-.08.53-1.07.66-1.07.65-.51,2,.28-.29.48-.72,1-.63.19.35-.25.59-.14.92a.94.94,0,0,1-1.09.17c-.49-.28-.59.18-.85.35a.52.52,0,0,1-.47-.17c-.37-.41-1-.77-.27-1.39.21-.13.58.1.66-.3a.49.49,0,0,0-.35-.63C14.35,42.27,14.19,42.18,14.22,41.93Z"/><path class="cls-50" d="M15,35.45l-1-.7a.85.85,0,0,1,.23-1.16c1.5.15,1.82.41,2,1.6.33-.15,0-.57.28-.72a1.6,1.6,0,0,1,.72,1.69L16.4,36C15.77,36.22,15.44,35.64,15,35.45Z"/><path class="cls-51" d="M15.46,38.81l0-.28c-.12-.14-.08-.28,0-.44s.19-.26,0-.35-.13.26-.26.35c-1-.1-.77-.67-.38-1.18a4.34,4.34,0,0,1,.92-.71c.3-.25.48-.16.5.2a1,1,0,0,0,.21.72C16.59,38,16.4,38.6,15.46,38.81Z"/><path class="cls-52" d="M18.57,35.46c.88.43,1,1,.48,1.85l-.77-.63C18.82,36.38,18.1,35.78,18.57,35.46Z"/><path class="cls-53" d="M18.57,35.46a1.83,1.83,0,0,0,.13.68c.44.66-.13.48-.42.54l-.26,0c0-.35,0-.7.08-1S18.33,35.24,18.57,35.46Z"/><path class="cls-54" d="M19.47,37.58c.1-.29-.2-.81.31-.85s.43.46.46.8c0,.19,0,.38,0,.58C19.82,38.19,19.81,37.64,19.47,37.58Z"/><path class="cls-55" d="M16.41,37.12c-.65,0-.08-.91-.71-.92-.17-.32-.63-.35-.73-.75L16.4,36C16.41,36.35,16.41,36.74,16.41,37.12Z"/><path class="cls-56" d="M8.29,18,5.16,18c0-.4.26-.5.54-.62l1.13.18C7.23,18,7.89,17.56,8.29,18Z"/><path class="cls-57" d="M17.61,17.35l-.53,0a27.78,27.78,0,0,1-4.65.15c-.35,0-.66-.05-.57-.52,1.21-.53,2.48-.24,3.72-.24.74,0,1.49.12,2.23.18l.28,0,.56,0C18.38,17.42,18,17.22,17.61,17.35Z"/><path class="cls-58" d="M7.3,44.49c.4-.15.9.38,1.25-.18.17,0,.17.43.41.27s.38-.7.64-.14a.82.82,0,0,1-.41,1C8.27,46,7.58,45.63,7.3,44.49Z"/><path class="cls-59" d="M8.74,43.34c-.51-.1-.49.47-.78.69-.57-1.75-.57-1.75.79-2.11a.76.76,0,0,1,.49.74C9.07,42.88,8.91,43.11,8.74,43.34Z"/><path class="cls-60" d="M14.22,41.93c.26.39,1.22-.21,1.08.87-.12.9-.35,1.05-1.05.51a.59.59,0,0,1-.47-.43l-.47-.49Z"/><path class="cls-61" d="M14.66,44.58l.31.25c0,.52,0,1-.77.77s-1.33-.56-.89-1.5C14,43.72,14.11,44.72,14.66,44.58Z"/><path class="cls-62" d="M14.66,44.58c-.72.62-.87-.39-1.35-.48l.47-1.22.47.43C13.74,43.94,14.58,44.14,14.66,44.58Z"/><path class="cls-63" d="M17.81,17,11.86,17a.54.54,0,0,1,.48-.23,9.07,9.07,0,0,1,4.08,0C16.89,16.86,17.38,16.67,17.81,17Z"/><path class="cls-64" d="M16.42,16.8H12.34v-.2c.55-.48,1.12-.21,1.69-.05A2.73,2.73,0,0,1,16.42,16.8Z"/><path class="cls-65" d="M8.75,17.47v-.39a5.72,5.72,0,0,1,2.33.17A4.42,4.42,0,0,1,8.75,17.47Z"/><path class="cls-66" d="M8.77,16.36a6.66,6.66,0,0,1,2.35-.21C10.41,17,9.58,16.6,8.77,16.36Z"/><path class="cls-67" d="M14,16.55l-1.69.05c-.27,0-.55-.06-.48-.46l1.2,0C13.35,16.32,13.89,16,14,16.55Z"/><path class="cls-1" d="M17.13,18a2.64,2.64,0,0,1-2.4,0Z"/><path class="cls-68" d="M11.17,27.82l.66,0A1.79,1.79,0,0,1,11.88,30v1.1a.52.52,0,0,1,0,.73c-.16,1,.84.79,1.27,1.18-.29.4-.82.29-1.17.57a.3.3,0,0,1-.3-.07V31.2h-.27c0,.66,0,1.32,0,2,0,.37-.09.53-.47.39.1-1-.74-.24-1-.53.53-.36,1.54-.29,1.23-1.4a.82.82,0,0,1-.26-.55,8.52,8.52,0,0,1,0-1.24C10.83,29.16,10.64,28.42,11.17,27.82Z"/><path class="cls-69" d="M15.41,31.92c.16.69.85.37,1.22.64a.7.7,0,0,1-.25,1,20.22,20.22,0,0,1-3.33-1.48A1.79,1.79,0,0,1,15.41,31.92Z"/><path class="cls-70" d="M15.41,31.92l-2.36.19-1.21-.25c0-.24,0-.49,0-.73,1.35.11,2.72-.18,4,.26Z"/><path class="cls-71" d="M11.64,33.54h.22c.31-.3.67-.08,1-.11l.91-.14.47.29c-.08.39-.15.77-.23,1.16-.77.11-1.41-.38-2.14-.47Z"/><path class="cls-72" d="M13.78,33.3c-.5,1.16-1.27.19-1.92.25.17-.79.83-.35,1.25-.51C13.36,33.05,13.62,33.05,13.78,33.3Z"/><path class="cls-73" d="M16.38,33.59c.08-.34.17-.68.25-1a1.52,1.52,0,0,1,.8,1.44A1.76,1.76,0,0,1,16.38,33.59Z"/><path class="cls-3" d="M11.88,30c0-.73,0-1.46-.05-2.18a5.19,5.19,0,0,1,3.38.45,1.61,1.61,0,0,0,.24.95c0,.65-.5.72-1,.71s-.95,0-1.43,0Z"/><path class="cls-74" d="M5.65,34.06c-.31-1,.44-1.45,1.07-2,.22.18.22.18.32-.23l.1,0c.84-.07,1.68-.5,2.53,0,0,.54-.4.58-.77.73C7.81,33.1,6.73,33.59,5.65,34.06Z"/><path class="cls-75" d="M9.67,31.92c-.85-.09-1.69.4-2.53,0-.17-.31,0-.53.18-.75a4.65,4.65,0,0,1,3.78-.05c0,.18,0,.36,0,.53C10.67,32,10.15,31.83,9.67,31.92Z"/><path class="cls-76" d="M5.88,35C5,35.1,5.73,36.24,5,36.44l-.06-1.15C5.12,34.88,5.36,34.52,5.88,35Z"/><path class="cls-77" d="M9.27,33.13c-.22.43.34,1.17-.51,1.37-.31-.28.18-.77-.27-1Z"/><path class="cls-78" d="M6.37,35.23a.52.52,0,0,1-.48-.2l.45-.27Z"/><path class="cls-79" d="M8.05,4.56,8,4.4h3.12a1.48,1.48,0,0,0,0,.21Z"/><path class="cls-3" d="M11.17,27.82l-.05,2.23c-1,.31-2,.72-3.09.18l-.47-.06.24-.69C7.58,29,8,28.53,8,28,9.05,27.54,10.13,27.93,11.17,27.82Z"/><path class="cls-80" d="M7,31.88a.47.47,0,0,1,0,.52l-.28-.29.16-.24Z"/><path class="cls-81" d="M17.19,32s0,.06,0,.07a.11.11,0,0,1-.08,0v-.12Z"/><path class="cls-82" d="M8.05,41.43c-.85-.12,0-.9-.45-1.17.65-.16.63.52,1,.77Z"/><path class="cls-83" d="M7.8,38.34l-.51-.15a.71.71,0,0,1-.08-1c.06-.07.24-.13.3-.09C8,37.39,7.72,37.91,7.8,38.34Z"/><path class="cls-3" d="M8,28,7.8,29.48c-.34,0-.71.1-1-.24a.69.69,0,0,0,.86-.61c0-.42-.36-.3-.61-.36C7.26,27.6,7.76,28.25,8,28Z"/><path class="cls-84" d="M15.16,38.09c-.12-.4-.16-.8.28-1,.16-.09.29,0,.39.15.45.62-.29.88-.39,1.33C15.2,38.47,15.25,38.24,15.16,38.09Z"/><path class="cls-85" d="M11.37,3l-.71.23A1.69,1.69,0,0,0,10.11,3c-1.48.07-1.22-1-1.21-1.85,0-.3,0-.58.4-.63A8.34,8.34,0,0,1,11.15.47C11.56.63,11.5,2.33,11.37,3Z"/></g></g></svg>