<svg xmlns="http://www.w3.org/2000/svg" viewBox="0 0 152.67 111.95"><defs><style>.cls-1{fill:#090909;}.cls-2{fill:#fff;}.cls-3{fill:#d1d1d1;}.cls-4{fill:#fefefe;}.cls-5{fill:#fffefe;}.cls-6{fill:#cbcaca;}.cls-7{fill:#cecece;}.cls-8{fill:#020202;}.cls-9{fill:#4d4d4e;}.cls-10{fill:#4d4d4d;}.cls-11{fill:#070707;}.cls-12{fill:#4e4e4e;}</style></defs><g id="Layer_2" data-name="Layer 2"><g id="Layer_1-2" data-name="Layer 1"><path class="cls-1" d="M18.87,32.7c-1.53.13-3.06.28-4.59.38A9.92,9.92,0,0,1,3.88,25c-1-5.24,1.42-9.11,6.8-10.61,1.9-.53,2.57-1.08,2.09-3.27a8.8,8.8,0,0,1,3.71-9.35C19.43-.39,22.66-.5,26,1c5.56,2.55,11,11.13,10.59,17.22-.09,1.29.54,1.49,1.18,1.89,3.08,1.94,6.24,3.77,9.28,5.77,1.32.87,2.16.36,3.33-.3,8.1-4.53,16.23-9,25.49-10.85,4.56-.9,8.79.18,12.81,2.11a58.61,58.61,0,0,1,15.76,11c1.18,1.17,2,1.3,3.41.46a68,68,0,0,1,8.87-4.73,14.61,14.61,0,0,0,8.81-9.49C127,9.68,130,7,134.84,6.84c6.8-.18,11,4.76,9.58,11.42-.4,1.84-.36,2.65,1.6,3.33,4.06,1.41,6.58,4.27,6.65,8.77.07,4.77-2.81,7.53-6.78,9.42-5.19,2.48-10.51,1.37-15.8.37-.74-.14-1.39-.55-2.19-.19-3.74,1.72-7.48,3.43-11.24,5.1-1,.45-1.09,1.16-.87,2.09,1.52,6.58.46,13-1.54,19.27-.59,1.88-.27,2.9,1.45,3.93,3.54,2.12,7,4.35,10.34,6.8a11.61,11.61,0,0,0,9.21,2c3.72-.56,7.4-.68,10.52,2.3,5.62,5.39,4,13.58-3.31,16-2,.65-2.91,1.28-2.51,3.62a8.7,8.7,0,0,1-4.37,9.55c-3.63,2.16-7.18,1.46-10.59-.65-5.12-3.17-7.06-8.4-8.69-13.75a6.41,6.41,0,0,0-2.42-3.68c-3.27-2.35-6.57-4.68-9.65-7.26-2-1.65-3.45-.17-4.94.47s0,2,0,3a5.94,5.94,0,0,0,.73,1.85c1.46,3.64,1,5.43-1.87,6.72-3.47,1.59-6.89.92-8.19-2.08-1.17-2.71-3.39-2.76-5.62-3.15-1.07-.19-1.55.5-2,1.31a21.05,21.05,0,0,1-1.42,2.49c-2.45,3.44-6.72,3-8.45-.87-1.42-3.2-3.22-3.58-5.45-1-1.6,1.81-3.28,3-5.76,1.86-2.67-1.18-4.83-3.14-4.29-6.1.68-3.76-1.24-4.56-4.06-6-3.62-1.78-6.42-1.53-9.62.62A52.74,52.74,0,0,1,34.69,89c-3.75,1.61-5.83,4.43-7.15,8.09-1.44,4-3.62,7.09-8.22,7.91-7,1.25-12.52-4.07-11-11,.45-2,.4-3.14-2-3.88A8.6,8.6,0,0,1,0,81.81c-.16-4,1.91-7,5.39-8.82,6.21-3.32,12.53-2.88,18.77-.15a2.21,2.21,0,0,0,2.33-.17c3-1.72,6-3.5,9-5.11A1.93,1.93,0,0,0,36.6,65c-1.63-6.91-1-13.73,1.07-20.44.51-1.72.08-2.56-1.38-3.45-3.19-1.94-6.36-3.95-9.37-6.17A10.56,10.56,0,0,0,18.87,32.7Z"/><path class="cls-2" d="M75.8,93.47c-2.65-5.62-7.18-6.36-11.47-1.91-.49.51-.83,1.38-1.84.85a3.17,3.17,0,0,1-2-3.16c.12-1.62.42-3.23.48-4.85a16.68,16.68,0,0,0-3.6-10.79v8c-9.21-1.49-15.94-8.43-17.67-17.92-1.77-9.65.42-18.64,4.66-27.25a19,19,0,0,1,7-7.48,89,89,0,0,1,18.24-8.9c2.2-.81,4.35-.37,6.47.29C85.23,23.27,92.08,28.84,95.76,38,96.2,39,97.08,40.36,95,40.9c-6-.1-9.05,2.06-11.34,7.68a26.77,26.77,0,0,0-1.81,11.8A9.78,9.78,0,0,0,94,69.33a3.7,3.7,0,0,1,2-.09c.54.25,1.15.61.59,1.24-3.89,4.41-6.84,9.64-11.58,13.3a27.3,27.3,0,0,0-7.7,8.72C77,93,76.73,93.82,75.8,93.47Z"/><path class="cls-3" d="M95,40.34c.7-.12.88-.39.62-1.16-3.47-10.45-14.92-18.87-26-19.08,6-2.89,12.09-3.2,18.13,0C98.81,26,108.1,33.67,112.14,46.24a25.89,25.89,0,0,1,.67,13.07,89.86,89.86,0,0,1-3.92,14.37,16.77,16.77,0,0,1-8.6,9.19c-1.62.82-2.3.59-2-1.3.15-.84.4-1.66.59-2.49s.81-1.57-.19-2c-.82-.35-1.45.4-1.87,1-2,3-1.45,6.25-1.06,9.47A28.1,28.1,0,0,0,97,91.7c.26.91,1.3,2-.34,2.57-1.32.44-3.1,1.07-3.74-.74-1.23-3.53-4.12-4.13-7.18-4.82s-5.2.29-6.45,3.22A7.54,7.54,0,0,1,78,93.88c-.92,1.1-1.73,1.06-2.24-.41,2.58-5.64,7.5-9.24,11.82-13.3a39.63,39.63,0,0,0,5.72-7.11c.76-1.13,1.2-2.66,2.88-2.92a.69.69,0,0,0,0-.27,1.24,1.24,0,0,0-.19-.22,1,1,0,0,1,.1-.83c7.23-5.63,7-13,4.72-20.77a12.15,12.15,0,0,0-4.34-5.93C96,41.54,94.85,41.46,95,40.34Z"/><path class="cls-4" d="M14.16,16.71c.51.34.61,1.43,1.49,1s.34-1.21.21-1.78c-.52-2.33-1.16-4.63-.65-7.06,1.1-5.33,5.63-7.49,10.41-5,5.3,2.8,6.43,8.14,8.43,13.29-1.76-.28-3.24-2.64-4.25-1s1.23,2.68,2.48,3.5c4,2.64,8,5.14,12.11,7.66,1.3.81,2.14,1.41.45,2.83-1.93,1.61-3,3.95-4.24,6.09-1.2.8-2-.23-2.81-.73-2.06-1.21-3.86-2.82-5.88-4.11a35.79,35.79,0,0,0-13.08-5.67,7.5,7.5,0,0,1-5.59-3.65A3.91,3.91,0,0,1,14.16,16.71Z"/><path class="cls-5" d="M12.53,91.75c1.28-.28,2-.82.38-1.62A29.18,29.18,0,0,0,9.37,89c-4.52-1.57-6.81-4.38-6.59-8,.2-3.36,3.54-6.44,7.87-7.24a29.11,29.11,0,0,1,11,1c-.78,1.19-3.59,1.46-2.57,3s3,0,4.35-.66q6.24-3.26,12.3-6.8c1.53-.9,2.22-.81,2.88,1a26,26,0,0,0,4,6.27c.23,1.4-1,1.49-1.78,1.82-7.38,3.15-14.2,7.08-19.5,13.3A6.41,6.41,0,0,1,16,95.13C13.79,95,12.62,93.86,12.53,91.75Z"/><path class="cls-4" d="M109.37,78.89a43.17,43.17,0,0,0,2.46-5.14c.74-2.17,1.63-1.93,3.22-.84,5.28,3.62,10.64,7.13,16,10.67,2,1.35,2,1.34,2.75-.89a1.1,1.1,0,0,1,.33-.42c.87-.74,7.39-.49,8.7.33a7,7,0,0,1,3,7.9,10.53,10.53,0,0,1-7.53,4c-.57-.33-1.14-.93-1.71,0a3.19,3.19,0,0,1-3.09,1.09,16.13,16.13,0,0,1-8.88-3.71,100,100,0,0,0-12.3-9.46C111,81.63,109.39,80.84,109.37,78.89Z"/><path class="cls-4" d="M140,20.15c-.59.15-1.09.39-1.14,1.1,1,1.88,0,3.32-1.1,4.67a17.29,17.29,0,0,1-7.44,5.2,126,126,0,0,0-15,7c-.74.4-1.5.89-2.42.45-.78-1.19-1.58-2.37-2.35-3.56-2.51-3.87-2.54-3.93,1.67-6.18,5.06-2.7,10.17-5.28,15.25-7.95.73-.38,1.73-.72,1.6-1.79-.15-1.32-1.5-.33-2.07-.93,3.36-8.62,6.83-10.63,12.42-7.17C141.44,13.94,141.34,17,140,20.15Z"/><path class="cls-3" d="M109.37,78.89c3.89,4.26,9.37,6.48,13.46,10.5,2.74,2.7,5.73,4.92,9.82,5.4a12.77,12.77,0,0,0,3.88-.25c.56,2.52,1.33,5,1.14,7.65-.39,5.61-5.64,8.56-10.59,5.9-4.43-2.37-5.9-6.71-7.65-11.41l3.8,1.75c-4.37-7-11.79-10.37-17.7-15.77Z"/><path class="cls-3" d="M112.85,38.6c6.09-3.31,12.38-6.2,18.76-8.93,3.59-1.55,6.9-3.83,7.23-8.42,1.44,1.05,3.23,1.14,4.82,1.76,4.38,1.72,6.47,4.51,6.14,8.32-.27,3.26-3.29,5.89-7.56,6.8-3.07.66-6-.13-9.66-.28l3.94-3.08A22.65,22.65,0,0,0,127.64,37c-3.41,1.51-6.86,3-10.16,4.7-2.16,1.14-3.46,1.1-4-1.5A11.79,11.79,0,0,0,112.85,38.6Z"/><path class="cls-3" d="M12.53,91.75c1.73,3.39,5,3.87,7.86.89C24.17,88.71,28.07,85,33,82.46c3.2-1.63,6.42-3.22,9.63-4.83,3.12,2.57,3.07,2.49-.45,4.45q-8.3,4.59-16.46,9.42c-.83.49-3.2,1.28-.37,2.54a.55.55,0,0,1,.21.41c.14,1.36-3.2,6.53-4.74,7.29-2.81,1.39-5.44.82-7.83-1-2.17-1.62-3.06-6.45-1.72-8.74C11.55,91.53,12.06,91.63,12.53,91.75Z"/><path class="cls-3" d="M14.16,16.71c-2.26,3.87-.15,6.86,2.54,7.45,8.69,1.91,15.9,6.48,22.84,11.68a4.33,4.33,0,0,0,1.06.41c-1.47,3.59-1.43,3.54-4.79,1.41q-7.29-4.6-14.68-9c-.93-.55-2.19-1.92-2.81.72-.32,1.39-2.36.6-3.59.76-5.38.68-9.07-3.44-7.93-8.68C7.48,18.34,11.52,15.75,14.16,16.71Z"/><path class="cls-6" d="M138.24,94.54l7.53-4a7.83,7.83,0,0,1-6,5.31C138.66,95.93,138.39,95.37,138.24,94.54Z"/><path class="cls-7" d="M140,20.15c-.18-3,.48-6.15-.61-9.13a8.22,8.22,0,0,1,2.34,8.37C141.37,20.44,140.74,20.32,140,20.15Z"/><path class="cls-8" d="M63.23,41.5c3.09,3,3.36,7,3.38,10.87A35,35,0,0,1,64.7,63.05c-.78,2.43-2.5,4-4.37,5.5-6.57,1-13.51-6.25-11.92-12.58A31.69,31.69,0,0,1,55,43.31C57.29,40.58,59.7,40.15,63.23,41.5Z"/><path class="cls-9" d="M96.18,69.18c-.06.16-.12.31-.17.47a10.44,10.44,0,0,1-7.92.11,10,10,0,0,1-7-8.9A24.28,24.28,0,0,1,84.59,45.2c2.35-3.82,5.68-5.86,10.37-4.86l1.76,1.14a1.56,1.56,0,0,1-1,1c-6.24,2.35-8.06,7.59-8.62,13.49-.69,7.17,1.35,10.19,8.09,12.57A2,2,0,0,1,96.18,69.18Z"/><path class="cls-10" d="M63.23,41.5c-4.62-.83-7.73,1.17-9.78,5.2-1,2-2.18,3.81-3.11,5.79C46.51,60.62,50.54,65,57.82,68a13.88,13.88,0,0,0,2.51.58C55.2,72.36,46.09,67.93,45.61,61A27.24,27.24,0,0,1,53.1,40.28C56,37.11,59.61,37.73,63.23,41.5Z"/><path class="cls-11" d="M76.53,67.4c3.4.52,8.34,6.49,8.23,9.86a2.25,2.25,0,0,1-2,2.38,6.25,6.25,0,0,1-3.1,0A12,12,0,0,0,69,80.09c-.29.15-.74,0-1.12,0-.26-.29-.54-.65-.41-1C69.2,74.19,71.69,69.88,76.53,67.4Z"/><path class="cls-12" d="M76.53,67.4a31.33,31.33,0,0,0-8.18,10.8,4.33,4.33,0,0,0-.46,1.91c-2,.44-2.89-.59-2.83-2.48.1-3.75,6.68-10.42,10.4-10.57A3.5,3.5,0,0,1,76.53,67.4Z"/><path class="cls-8" d="M96.18,69.18c-5.9-.29-10-4.72-9.88-10.92.07-5,1-9.68,4.51-13.51a12.33,12.33,0,0,1,5.91-3.27c5.77,4.47,6.64,10.72,6,17.33C102.26,63.22,100.84,67.29,96.18,69.18Z"/></g></g></svg>