<svg xmlns="http://www.w3.org/2000/svg" viewBox="0 0 152.67 111.95"><defs><style>.cls-1{fill:#090909;}</style></defs><g id="Layer_2" data-name="Layer 2"><g id="Layer_1-2" data-name="Layer 1"><path class="cls-1" d="M18.87,32.7c-1.53.13-3.06.28-4.59.38A9.92,9.92,0,0,1,3.88,25c-1-5.24,1.42-9.11,6.8-10.61,1.9-.53,2.57-1.08,2.09-3.27a8.8,8.8,0,0,1,3.71-9.35C19.43-.39,22.66-.5,26,1c5.56,2.55,11,11.13,10.59,17.22-.09,1.29.54,1.49,1.18,1.89,3.08,1.94,6.24,3.77,9.28,5.77,1.32.87,2.16.36,3.33-.3,8.1-4.53,16.23-9,25.49-10.85,4.56-.9,8.79.18,12.81,2.11a58.61,58.61,0,0,1,15.76,11c1.18,1.17,2,1.3,3.41.46a68,68,0,0,1,8.87-4.73,14.61,14.61,0,0,0,8.81-9.49C127,9.68,130,7,134.84,6.84c6.8-.18,11,4.76,9.58,11.42-.4,1.84-.36,2.65,1.6,3.33,4.06,1.41,6.58,4.27,6.65,8.77.07,4.77-2.81,7.53-6.78,9.42-5.19,2.48-10.51,1.37-15.8.37-.74-.14-1.39-.55-2.19-.19-3.74,1.72-7.48,3.43-11.24,5.1-1,.45-1.09,1.16-.87,2.09,1.52,6.58.46,13-1.54,19.27-.59,1.88-.27,2.9,1.45,3.93,3.54,2.12,7,4.35,10.34,6.8a11.61,11.61,0,0,0,9.21,2c3.72-.56,7.4-.68,10.52,2.3,5.62,5.39,4,13.58-3.31,16-2,.65-2.91,1.28-2.51,3.62a8.7,8.7,0,0,1-4.37,9.55c-3.63,2.16-7.18,1.46-10.59-.65-5.12-3.17-7.06-8.4-8.69-13.75a6.41,6.41,0,0,0-2.42-3.68c-3.27-2.35-6.57-4.68-9.65-7.26-2-1.65-3.45-.17-4.94.47s0,2,0,3a5.94,5.94,0,0,0,.73,1.85c1.46,3.64,1,5.43-1.87,6.72-3.47,1.59-6.89.92-8.19-2.08-1.17-2.71-3.39-2.76-5.62-3.15-1.07-.19-1.55.5-2,1.31a21.05,21.05,0,0,1-1.42,2.49c-2.45,3.44-6.72,3-8.45-.87-1.42-3.2-3.22-3.58-5.45-1-1.6,1.81-3.28,3-5.76,1.86-2.67-1.18-4.83-3.14-4.29-6.1.68-3.76-1.24-4.56-4.06-6-3.62-1.78-6.42-1.53-9.62.62A52.74,52.74,0,0,1,34.69,89c-3.75,1.61-5.83,4.43-7.15,8.09-1.44,4-3.62,7.09-8.22,7.91-7,1.25-12.52-4.07-11-11,.45-2,.4-3.14-2-3.88A8.6,8.6,0,0,1,0,81.81c-.16-4,1.91-7,5.39-8.82,6.21-3.32,12.53-2.88,18.77-.15a2.21,2.21,0,0,0,2.33-.17c3-1.72,6-3.5,9-5.11A1.93,1.93,0,0,0,36.6,65c-1.63-6.91-1-13.73,1.07-20.44.51-1.72.08-2.56-1.38-3.45-3.19-1.94-6.36-3.95-9.37-6.17A10.56,10.56,0,0,0,18.87,32.7Z"/></g></g></svg>